STARTFONT 2.1
FONT -FontForge-Good Times Rg-Book-R-Normal--137-1320-75-75-P-1019-ISO10646-1
SIZE 132 75 75
FONTBOUNDINGBOX 273 162 -38 -28
COMMENT "Generated by fontforge, http://fontforge.sourceforge.net"
COMMENT "(c) 1998-2012 Typodermic Fonts Inc. See attached license agreement. If agreement is missing visit typodermicfonts.com for more info. Languages by Chikako Larabie"
STARTPROPERTIES 39
FOUNDRY "FontForge"
FAMILY_NAME "Good Times Rg"
WEIGHT_NAME "Book"
SLANT "R"
SETWIDTH_NAME "Normal"
ADD_STYLE_NAME ""
PIXEL_SIZE 137
POINT_SIZE 1320
RESOLUTION_X 75
RESOLUTION_Y 75
SPACING "P"
AVERAGE_WIDTH 1019
CHARSET_REGISTRY "ISO10646"
CHARSET_ENCODING "1"
FONTNAME_REGISTRY ""
CHARSET_COLLECTIONS "ISO8859-2 ISO8859-9 ISO8859-4 ISO10646-1"
FONT_NAME "GoodTimesRg-Regular"
FACE_NAME "GoodTimesRg-Regular"
COPYRIGHT "(c) 1998-2012 Typodermic Fonts Inc. See attached license agreement. If agreement is missing visit typodermicfonts.com for more info. Languages by Chikako Larabie"
FONT_VERSION "4.001"
FONT_ASCENT 109
FONT_DESCENT 28
UNDERLINE_POSITION -20
UNDERLINE_THICKNESS 3
X_HEIGHT 99
CAP_HEIGHT 99
RAW_ASCENT 799
RAW_DESCENT 201
NORM_SPACE 40
RELATIVE_WEIGHT 40
RELATIVE_SETWIDTH 50
SUPERSCRIPT_X 0
SUPERSCRIPT_Y 41
SUPERSCRIPT_SIZE 41
SUBSCRIPT_X 0
SUBSCRIPT_Y 0
SUBSCRIPT_SIZE 41
AVG_LOWERCASE_WIDTH 1170
AVG_UPPERCASE_WIDTH 1165
ENDPROPERTIES
CHARS 372
STARTCHAR space
ENCODING 32
SWIDTH 294 0
DWIDTH 40 0
BBX 1 1 0 0
BITMAP
00
ENDCHAR
STARTCHAR exclam
ENCODING 33
SWIDTH 298 0
DWIDTH 41 0
BBX 19 100 11 0
BITMAP
7FFFC0
7FFFC0
7FFFC0
7FFFC0
7FFFC0
7FFFC0
7FFFC0
7FFFC0
7FFFC0
7FFFC0
7FFFC0
7FFFC0
7FFFC0
7FFFC0
7FFFC0
7FFFC0
7FFFC0
7FFFC0
7FFFC0
7FFFC0
7FFFC0
7FFFC0
7FFFC0
7FFFC0
7FFFC0
7FFFC0
7FFFC0
7FFFC0
7FFFC0
7FFFC0
7FFFC0
7FFFC0
7FFFC0
7FFFC0
7FFFC0
7FFFC0
7FFFC0
7FFFC0
7FFFC0
7FFFC0
7FFFC0
7FFFC0
7FFFC0
7FFFC0
7FFFC0
7FFFC0
7FFFC0
7FFFC0
7FFFC0
7FFFC0
7FFFC0
7FFFC0
7FFFC0
7FFFC0
7FFFC0
7FFFC0
7FFFC0
7FFFC0
7FFFC0
7FFFC0
7FFFC0
7FFFC0
7FFFC0
7FFFC0
7FFFC0
7FFFC0
7FFFC0
7FFFC0
000000
000000
000000
000000
000000
000000
000000
000000
000000
000000
000000
000000
000000
01F800
0FFE00
1FFF00
3FFF80
3FFFC0
7FFFC0
7FFFE0
7FFFE0
FFFFE0
FFFFE0
FFFFE0
7FFFE0
7FFFE0
7FFFC0
3FFFC0
3FFF80
1FFF00
0FFE00
03F800
ENDCHAR
STARTCHAR quotedbl
ENCODING 34
SWIDTH 452 0
DWIDTH 62 0
BBX 44 36 9 64
BITMAP
FFFFC03FFFF0
FFFFC03FFFE0
7FFFC03FFFE0
7FFFC03FFFE0
7FFFC03FFFE0
7FFFC03FFFE0
7FFF801FFFE0
7FFF801FFFE0
7FFF801FFFE0
7FFF801FFFE0
7FFF801FFFE0
7FFF801FFFE0
7FFF801FFFE0
7FFF801FFFC0
3FFF801FFFC0
3FFF801FFFC0
3FFF801FFFC0
3FFF000FFFC0
3FFF000FFFC0
3FFF000FFFC0
3FFF000FFFC0
3FFF000FFFC0
3FFF000FFFC0
3FFF000FFFC0
3FFF000FFF80
1FFF000FFF80
1FFF000FFF80
1FFF000FFF80
1FFF0007FF80
1FFE0007FF80
1FFE0007FF80
1FFE0007FF80
1FFE0007FF80
1FFE0007FF80
1FFE0007FF80
1FFE0007FF80
ENDCHAR
STARTCHAR numbersign
ENCODING 35
SWIDTH 697 0
DWIDTH 95 0
BBX 84 100 6 0
BITMAP
000000003FFE00001FFE00
000000003FFC00001FFE00
000000003FFC00003FFE00
000000007FFC00003FFC00
000000007FF800003FFC00
000000007FF800007FFC00
00000000FFF800007FF800
00000000FFF000007FF800
00000000FFF00000FFF800
00000001FFF00000FFF000
00000001FFF00000FFF000
00000001FFE00001FFF000
00000003FFE00001FFF000
00000003FFE00001FFE000
00000003FFC00001FFE000
00000003FFC00003FFE000
00000007FFC00003FFC000
00000007FF800003FFC000
00000007FF800007FFC000
0000000FFF800007FF8000
0000000FFF000007FF8000
0000000FFF00000FFF8000
0000001FFF00000FFF0000
0000001FFF00000FFF0000
0000001FFE00001FFF0000
001FFFFFFFFFFFFFFFFFF0
001FFFFFFFFFFFFFFFFFF0
001FFFFFFFFFFFFFFFFFF0
001FFFFFFFFFFFFFFFFFF0
001FFFFFFFFFFFFFFFFFF0
001FFFFFFFFFFFFFFFFFF0
001FFFFFFFFFFFFFFFFFF0
001FFFFFFFFFFFFFFFFFF0
001FFFFFFFFFFFFFFFFFF0
001FFFFFFFFFFFFFFFFFF0
001FFFFFFFFFFFFFFFFFF0
001FFFFFFFFFFFFFFFFFF0
000001FFE00000FFF00000
000001FFE00001FFF00000
000003FFE00001FFE00000
000003FFC00001FFE00000
000003FFC00003FFE00000
000007FFC00003FFE00000
000007FF800003FFC00000
000007FF800003FFC00000
000007FF800007FFC00000
00000FFF800007FF800000
00000FFF000007FF800000
00000FFF00000FFF800000
00001FFF00000FFF000000
00001FFE00000FFF000000
00001FFE00001FFF000000
00003FFE00001FFF000000
00003FFC00001FFE000000
00003FFC00001FFE000000
00003FFC00003FFE000000
00007FFC00003FFC000000
00007FF800003FFC000000
00007FF800007FFC000000
0000FFF800007FF8000000
0000FFF000007FF8000000
FFFFFFFFFFFFFFFFFF8000
FFFFFFFFFFFFFFFFFF8000
FFFFFFFFFFFFFFFFFF8000
FFFFFFFFFFFFFFFFFF8000
FFFFFFFFFFFFFFFFFF8000
FFFFFFFFFFFFFFFFFF8000
FFFFFFFFFFFFFFFFFF8000
FFFFFFFFFFFFFFFFFF8000
FFFFFFFFFFFFFFFFFF8000
FFFFFFFFFFFFFFFFFF8000
FFFFFFFFFFFFFFFFFF8000
FFFFFFFFFFFFFFFFFF8000
000FFF800007FF80000000
000FFF000007FF80000000
000FFF00000FFF80000000
001FFF00000FFF00000000
001FFE00000FFF00000000
001FFE00001FFF00000000
003FFE00001FFE00000000
003FFC00001FFE00000000
003FFC00001FFE00000000
003FFC00003FFE00000000
007FFC00003FFC00000000
007FF800003FFC00000000
007FF800007FFC00000000
00FFF800007FF800000000
00FFF000007FF800000000
00FFF00000FFF800000000
01FFF00000FFF800000000
01FFE00000FFF000000000
01FFE00000FFF000000000
01FFE00001FFF000000000
03FFE00001FFE000000000
03FFC00001FFE000000000
03FFC00003FFE000000000
07FFC00003FFC000000000
07FF800003FFC000000000
07FF800007FFC000000000
0FFF800007FFC000000000
ENDCHAR
STARTCHAR dollar
ENCODING 36
SWIDTH 744 0
DWIDTH 102 0
BBX 86 100 8 0
BITMAP
0000000000FE0000000000
0000000000FE0000000000
0000000000FE0000000000
0000000000FE0000000000
0000000000FE0000000000
0000000000FE0000000000
0000000000FE0000000000
0000000000FE0000000000
0000000000FE0000000000
0000000000FE0000000000
00003FFFFFFFFFFFFFFFC0
0003FFFFFFFFFFFFFFFFC0
000FFFFFFFFFFFFFFFFFC0
003FFFFFFFFFFFFFFFFFC0
00FFFFFFFFFFFFFFFFFFC0
01FFFFFFFFFFFFFFFFFFC0
03FFFFFFFFFFFFFFFFFFC0
07FFFFFFFFFFFFFFFFFFC0
0FFFFFFFFFFFFFFFFFFFC0
1FFFFFFFFFFFFFFFFFFFC0
1FFFFFFFFFFFFFFFFFFFC0
3FFFFFFFFFFFFFFFFFFFC0
3FFFFFFFFFFFFFFFFFFFC0
7FFFFFFFFFFFFFFFFFFFC0
7FFFF80000FE0000000000
7FFFC00000FE0000000000
FFFF800000FE0000000000
FFFF000000FE0000000000
FFFE000000FE0000000000
FFFE000000FE0000000000
FFFE000000FE0000000000
FFFC000000FE0000000000
FFFC000000FE0000000000
FFFC000000FE0000000000
FFFC000000FE0000000000
FFFC000000FE0000000000
FFFE000000FE0000000000
FFFE000000FE0000000000
7FFE000000FE0000000000
7FFF000000FE0000000000
7FFF800000FE0000000000
3FFFC00000FE0000000000
3FFFF80000FE0000000000
3FFFFFFFFFFFFFFFF00000
1FFFFFFFFFFFFFFFFF0000
0FFFFFFFFFFFFFFFFFE000
0FFFFFFFFFFFFFFFFFF000
07FFFFFFFFFFFFFFFFFC00
03FFFFFFFFFFFFFFFFFE00
01FFFFFFFFFFFFFFFFFF00
007FFFFFFFFFFFFFFFFF80
003FFFFFFFFFFFFFFFFFC0
000FFFFFFFFFFFFFFFFFE0
0001FFFFFFFFFFFFFFFFE0
00003FFFFFFFFFFFFFFFF0
0000000000FE00007FFFF0
0000000000FE00000FFFF0
0000000000FE000007FFF8
0000000000FE000003FFF8
0000000000FE000001FFF8
0000000000FE000000FFF8
0000000000FE000000FFFC
0000000000FE000000FFFC
0000000000FE000000FFFC
0000000000FE0000007FFC
0000000000FE0000007FFC
0000000000FE0000007FFC
0000000000FE000000FFFC
0000000000FE000000FFFC
0000000000FE000000FFFC
0000000000FE000000FFFC
0000000000FE000001FFF8
0000000000FE000003FFF8
0000000000FE000007FFF8
0000000000FE00000FFFF8
0000000000FE00007FFFF0
7FFFFFFFFFFFFFFFFFFFF0
7FFFFFFFFFFFFFFFFFFFF0
7FFFFFFFFFFFFFFFFFFFE0
7FFFFFFFFFFFFFFFFFFFE0
7FFFFFFFFFFFFFFFFFFFC0
7FFFFFFFFFFFFFFFFFFF80
7FFFFFFFFFFFFFFFFFFF00
7FFFFFFFFFFFFFFFFFFF00
7FFFFFFFFFFFFFFFFFFC00
7FFFFFFFFFFFFFFFFFF800
7FFFFFFFFFFFFFFFFFF000
7FFFFFFFFFFFFFFFFFC000
7FFFFFFFFFFFFFFFFE0000
7FFFFFFFFFFFFFFFE00000
0000000000FE0000000000
0000000000FE0000000000
0000000000FE0000000000
0000000000FE0000000000
0000000000FE0000000000
0000000000FE0000000000
0000000000FE0000000000
0000000000FE0000000000
0000000000FE0000000000
0000000000FE0000000000
ENDCHAR
STARTCHAR percent
ENCODING 37
SWIDTH 965 0
DWIDTH 132 0
BBX 120 116 6 -9
BITMAP
0000000000000000000000007FF800
0000000000000000000000007FF000
000000000000000000000000FFE000
000000000000000000000001FFE000
000000000000000000000003FFC000
00000FFE0000000000000007FF8000
0000FFFFE000000000000007FF0000
0003FFFFF80000000000000FFF0000
000FFFFFFE0000000000001FFE0000
003FFFFFFF8000000000003FFC0000
007FFFFFFFC000000000007FF80000
00FFFFFFFFE000000000007FF00000
01FFFFFFFFF00000000000FFF00000
03FFFFFFFFF80000000001FFE00000
07FFF803FFFC0000000003FFC00000
0FFF80003FFE0000000003FF800000
0FFE00000FFF0000000007FF800000
1FFC000007FF000000000FFF000000
3FF8000003FF800000001FFE000000
3FF0000001FF800000003FFC000000
3FE0000000FFC00000003FF8000000
7FE0000000FFC00000007FF8000000
7FC00000007FC0000000FFF0000000
7FC00000007FE0000001FFE0000000
FF800000003FE0000001FFC0000000
FF800000003FE0000003FFC0000000
FF800000003FE0000007FF80000000
FF800000003FE000000FFF00000000
FF000000001FE000001FFE00000000
FF000000001FE000001FFC00000000
FF000000001FE000003FFC00000000
FF000000001FE000007FF800000000
FF000000001FE00000FFF000000000
FF800000003FE00000FFE000000000
FF800000003FE00001FFE000000000
FF800000003FE00003FFC000000000
7F800000003FE00007FF8000000000
7FC00000007FC0000FFF0000000000
7FC00000007FC0000FFE0000000000
7FE0000000FFC0001FFE0000000000
3FE0000000FF80003FFC0000000000
3FF0000001FF80007FF80000000000
1FF8000003FF00007FF00000000000
1FFC000007FF0000FFF00000000000
0FFF00001FFE0001FFE00000000000
07FF80003FFC0003FFC00000000000
07FFF803FFFC0007FF800000000000
03FFFFFFFFF80007FF000000000000
01FFFFFFFFF0000FFF000000000000
00FFFFFFFFE0001FFE000000000000
007FFFFFFFC0003FFC000000000000
001FFFFFFF00003FF8000000000000
000FFFFFFE00007FF8000000000000
0003FFFFF80000FFF0000000000000
00007FFFC00001FFE0000000000000
00000FFE000003FFC0000000000000
00000000000003FF80000000000000
00000000000007FF80000000000000
0000000000000FFF0000007FF00000
0000000000001FFE000007FFFF0000
0000000000001FFC00001FFFFFC000
0000000000003FFC00007FFFFFF000
0000000000007FF80001FFFFFFFC00
000000000000FFF00003FFFFFFFE00
000000000001FFE00007FFFFFFFF00
000000000001FFC0000FFFFFFFFF80
000000000003FFC0001FFFFFFFFFC0
000000000007FF80003FFFC01FFFE0
00000000000FFF00007FFC0001FFF0
00000000000FFE00007FF800007FF8
00000000001FFE0000FFE000003FF8
00000000003FFC0001FFC000001FFC
00000000007FF80001FF8000000FFC
0000000000FFF00001FF00000007FE
0000000000FFE00003FF00000007FE
0000000001FFE00003FE00000003FE
0000000003FFC00003FE00000003FF
0000000007FF800007FC00000001FF
000000000FFF000007FC00000001FF
000000000FFF000007FC00000001FF
000000001FFE000007FC00000001FF
000000003FFC000007FC00000000FF
000000007FF8000007F800000000FF
000000007FF0000007F800000000FF
00000000FFF0000007F800000000FF
00000001FFE0000007FC00000000FF
00000003FFC0000007FC00000001FF
00000007FF80000007FC00000001FF
00000007FF80000007FC00000001FF
0000000FFF00000003FC00000001FF
0000001FFE00000003FE00000003FE
0000003FFC00000003FE00000003FE
0000003FF800000001FF00000007FE
0000007FF800000001FF00000007FC
000000FFF000000001FF8000000FFC
000001FFE000000000FFC000001FF8
000003FFC000000000FFE000003FF8
000003FFC0000000007FF800007FF0
000007FF80000000003FFE0001FFE0
00000FFF00000000003FFFC01FFFE0
00001FFE00000000001FFFFFFFFFC0
00001FFC00000000000FFFFFFFFF80
00003FFC000000000007FFFFFFFF00
00007FF8000000000003FFFFFFFE00
0000FFF0000000000000FFFFFFF800
0001FFE00000000000007FFFFFF000
0001FFE00000000000001FFFFFC000
0003FFC000000000000003FFFE0000
0007FF80000000000000007FF00000
000FFF000000000000000000000000
000FFE000000000000000000000000
001FFE000000000000000000000000
003FFC000000000000000000000000
007FF8000000000000000000000000
00FFF0000000000000000000000000
01FFF0000000000000000000000000
ENDCHAR
STARTCHAR ampersand
ENCODING 38
SWIDTH 759 0
DWIDTH 104 0
BBX 93 100 7 0
BITMAP
0000003FFFFFF80000000000
000007FFFFFFF80000000000
00003FFFFFFFF80000000000
0000FFFFFFFFF80000000000
0003FFFFFFFFF80000000000
000FFFFFFFFFF80000000000
001FFFFFFFFFF80000000000
007FFFFFFFFFF80000000000
00FFFFFFFFFFF80000000000
01FFFFFFFFFFF80000000000
03FFFFFFFFFFF80000000000
03FFFFFFFFFFF80000000000
07FFFFFFFFFFF80000000000
07FFFFFFFFFFF80000000000
0FFFFFFFFFFFF80000000000
0FFFFFFFFFFFF80000000000
1FFFFFFFFFFFF80000000000
1FFFFFFF0000000000000000
1FFFFFC00000000000000000
3FFFFF000000000000000000
3FFFFE000000000000000000
3FFFFC000000000000000000
3FFFF8000000000000000000
3FFFF0000000000000000000
3FFFF0000000000000000000
3FFFF0000000000000000000
3FFFE0000000000000000000
3FFFE0000000000000000000
3FFFE0000000000000000000
3FFFE0000000000000000000
3FFFE0000000000000000000
3FFFE0000000000000000000
3FFFE0000000000000000000
3FFFF0000000000000000000
1FFFF0000000000000000000
1FFFF0000000000000000000
1FFFF8000000000000000000
0FFFF8000000000000000000
0FFFFC000000000000000000
07FFFF000000000000000000
07FFFF800000000000000000
03FFFFF00000000000000000
01FFFFFFFFFFFFFFFFFFFE00
00FFFFFFFFFFFFFFFFFFFE00
007FFFFFFFFFFFFFFFFFFE00
001FFFFFFFFFFFFFFFFFFE00
0007FFFFFFFFFFFFFFFFFE00
0001FFFFFFFFFFFFFFFFFE00
0007FFFFFFFFFFFFFFFFFE00
001FFFFFFFFFFFFFFFFFFE00
007FFFFFFFFFFFFFFFFFFE00
00FFFFFFFFFFFFFFFFFFFE00
01FFFFFFFFFFFFFFFFFFFE00
03FFFFFFFFFFFFFFFFFFFE00
07FFFFFFFFFFFFFFFFFFFE00
0FFFFFFFFFFFFFFFFFFFFE00
1FFFFFFFFFFFFFFFFFFFFE00
1FFFFFF00000003FFFE00000
3FFFFF000000003FFFE00000
3FFFFC000000003FFFE00000
7FFFF8000000003FFFE00000
7FFFF0000000003FFFE00000
7FFFE0000000003FFFE00000
FFFFC0000000003FFFE00000
FFFFC0000000003FFFE00000
FFFFC0000000003FFFE00000
FFFF80000000003FFFE00000
FFFF80000000003FFFE00000
FFFF80000000003FFFE00000
FFFF80000000003FFFE00000
FFFF80000000003FFFE00000
FFFF80000000003FFFE00000
FFFFC0000000003FFFE00000
FFFFC0000000003FFFE00000
FFFFC0000000003FFFE00000
FFFFE0000000003FFFE00000
FFFFE0000000003FFFE00000
FFFFF0000000003FFFE00000
7FFFF8000000003FFFE00000
7FFFFC000000003FFFE00000
7FFFFF000000003FFFE00000
3FFFFFE00000003FFFE00000
3FFFFFFFC000003FFFE00000
3FFFFFFFFFFFFFFFFFFFFFF8
1FFFFFFFFFFFFFFFFFFFFFF8
1FFFFFFFFFFFFFFFFFFFFFF8
0FFFFFFFFFFFFFFFFFFFFFF8
07FFFFFFFFFFFFFFFFFFFFF8
07FFFFFFFFFFFFFFFFFFFFF8
03FFFFFFFFFFFFFFFFFFFFF8
01FFFFFFFFFFFFFFFFFFFFF8
00FFFFFFFFFFFFFFFFFFFFF8
007FFFFFFFFFFFFFFFFFFFF8
003FFFFFFFFFFFFFFFFFFFF8
000FFFFFFFFFFFFFFFFFFFF8
0007FFFFFFFFFFFFFFFFFFF8
0001FFFFFFFFFFFFFFFFFFF8
00007FFFFFFFFFFFFFFFFFF8
00000FFFFFFFFFFFFFFFFFF8
0000007FFFFFFFFFFFFFFFF8
ENDCHAR
STARTCHAR quotesingle
ENCODING 39
SWIDTH 255 0
DWIDTH 35 0
BBX 17 36 9 64
BITMAP
FFFF80
FFFF80
FFFF80
FFFF80
FFFF80
FFFF80
FFFF80
FFFF80
FFFF80
FFFF00
7FFF00
7FFF00
7FFF00
7FFF00
7FFF00
7FFF00
7FFF00
7FFF00
7FFF00
7FFF00
3FFE00
3FFE00
3FFE00
3FFE00
3FFE00
3FFE00
3FFE00
3FFE00
3FFE00
3FFE00
3FFE00
1FFC00
1FFC00
1FFC00
1FFC00
1FFC00
ENDCHAR
STARTCHAR parenleft
ENCODING 40
SWIDTH 356 0
DWIDTH 49 0
BBX 27 126 13 -12
BITMAP
0003FFE0
0003FFC0
0007FFC0
0007FF80
0007FF80
000FFF80
000FFF00
001FFF00
001FFE00
001FFE00
003FFE00
003FFC00
007FFC00
007FF800
007FF800
00FFF800
00FFF000
00FFF000
01FFF000
01FFE000
01FFE000
03FFE000
03FFC000
03FFC000
07FFC000
07FF8000
07FF8000
07FF8000
0FFF0000
0FFF0000
0FFF0000
0FFF0000
1FFE0000
1FFE0000
1FFE0000
1FFC0000
3FFC0000
3FFC0000
3FFC0000
3FFC0000
3FF80000
3FF80000
7FF80000
7FF80000
7FF80000
7FF00000
7FF00000
7FF00000
7FF00000
7FF00000
FFF00000
FFF00000
FFE00000
FFE00000
FFE00000
FFE00000
FFE00000
FFE00000
FFE00000
FFE00000
FFE00000
FFE00000
FFE00000
FFE00000
FFE00000
FFE00000
FFE00000
FFE00000
FFE00000
FFE00000
FFE00000
FFE00000
FFE00000
FFE00000
FFF00000
FFF00000
7FF00000
7FF00000
7FF00000
7FF00000
7FF00000
7FF80000
7FF80000
7FF80000
3FF80000
3FF80000
3FF80000
3FFC0000
3FFC0000
1FFC0000
1FFC0000
1FFC0000
1FFE0000
1FFE0000
0FFE0000
0FFF0000
0FFF0000
0FFF0000
07FF0000
07FF8000
07FF8000
07FF8000
03FFC000
03FFC000
03FFC000
01FFE000
01FFE000
01FFE000
00FFF000
00FFF000
00FFF000
007FF800
007FF800
003FFC00
003FFC00
003FFC00
001FFE00
001FFE00
000FFF00
000FFF00
000FFF80
0007FF80
0007FF80
0003FFC0
0003FFC0
0001FFE0
ENDCHAR
STARTCHAR parenright
ENCODING 41
SWIDTH 355 0
DWIDTH 49 0
BBX 27 126 9 -12
BITMAP
FFF00000
7FF80000
7FF80000
7FFC0000
3FFC0000
3FFE0000
1FFE0000
1FFE0000
1FFF0000
0FFF0000
0FFF0000
07FF8000
07FF8000
07FFC000
03FFC000
03FFC000
03FFE000
01FFE000
01FFE000
00FFF000
00FFF000
00FFF000
007FF800
007FF800
007FF800
007FF800
003FFC00
003FFC00
003FFC00
001FFE00
001FFE00
001FFE00
001FFE00
000FFF00
000FFF00
000FFF00
000FFF00
0007FF00
0007FF80
0007FF80
0007FF80
0003FF80
0003FF80
0003FF80
0003FFC0
0003FFC0
0003FFC0
0001FFC0
0001FFC0
0001FFC0
0001FFC0
0001FFC0
0001FFC0
0001FFE0
0001FFE0
0001FFE0
0001FFE0
0000FFE0
0000FFE0
0000FFE0
0000FFE0
0000FFE0
0000FFE0
0000FFE0
0000FFE0
0000FFE0
0000FFE0
0000FFE0
0001FFE0
0001FFE0
0001FFE0
0001FFE0
0001FFE0
0001FFC0
0001FFC0
0001FFC0
0001FFC0
0001FFC0
0001FFC0
0003FFC0
0003FFC0
0003FFC0
0003FF80
0003FF80
0003FF80
0007FF80
0007FF80
0007FF80
0007FF00
0007FF00
000FFF00
000FFF00
000FFF00
000FFE00
001FFE00
001FFE00
001FFE00
001FFC00
003FFC00
003FFC00
003FFC00
007FF800
007FF800
007FF800
00FFF000
00FFF000
00FFF000
01FFE000
01FFE000
01FFE000
03FFC000
03FFC000
07FFC000
07FF8000
07FF8000
0FFF0000
0FFF0000
1FFF0000
1FFE0000
1FFE0000
3FFC0000
3FFC0000
7FFC0000
7FF80000
FFF80000
FFF00000
ENDCHAR
STARTCHAR asterisk
ENCODING 42
SWIDTH 469 0
DWIDTH 64 0
BBX 47 45 9 55
BITMAP
00001FE00000
00001FE00000
00001FE00000
00001FE00000
00001FE00000
00001FE00000
00001FE00000
00001FE00000
00001FE00000
00001FE00000
00001FE00000
00001FE00000
20001FE00010
3C001FE000F8
7F801FE007F8
7FF01FE03FF8
7FFE1FE1FFF8
FFFFFFFFFFFC
FFFFFFFFFFFC
FFFFFFFFFFFE
7FFFFFFFFFF8
0FFFFFFFFFC0
01FFFFFFFE00
001FFFFFF000
0003FFFF0000
0000FFFC0000
0000FFFC0000
0001FFFE0000
0003FFFF0000
0003FFFF8000
0007FFFF8000
000FFCFFC000
001FF87FE000
001FF87FE000
003FF03FF000
007FE01FF800
007FE00FFC00
00FFC00FFC00
01FF8007FE00
01FF0003FF00
03FF0003FF00
00FE0001FE00
007C0000F800
003C00007000
000800006000
ENDCHAR
STARTCHAR plus
ENCODING 43
SWIDTH 690 0
DWIDTH 95 0
BBX 77 78 9 12
BITMAP
000000007FF000000000
000000007FF000000000
000000007FF000000000
000000007FF000000000
000000007FF000000000
000000007FF000000000
000000007FF000000000
000000007FF000000000
000000007FF000000000
000000007FF000000000
000000007FF000000000
000000007FF000000000
000000007FF000000000
000000007FF000000000
000000007FF000000000
000000007FF000000000
000000007FF000000000
000000007FF000000000
000000007FF000000000
000000007FF000000000
000000007FF000000000
000000007FF000000000
000000007FF000000000
000000007FF000000000
000000007FF000000000
000000007FF000000000
000000007FF000000000
000000007FF000000000
000000007FF000000000
000000007FF000000000
000000007FF000000000
000000007FF000000000
000000007FF000000000
FFFFFFFFFFFFFFFFFFF8
FFFFFFFFFFFFFFFFFFF8
FFFFFFFFFFFFFFFFFFF8
FFFFFFFFFFFFFFFFFFF8
FFFFFFFFFFFFFFFFFFF8
FFFFFFFFFFFFFFFFFFF8
FFFFFFFFFFFFFFFFFFF8
FFFFFFFFFFFFFFFFFFF8
FFFFFFFFFFFFFFFFFFF8
FFFFFFFFFFFFFFFFFFF8
FFFFFFFFFFFFFFFFFFF8
FFFFFFFFFFFFFFFFFFF8
000000007FF000000000
000000007FF000000000
000000007FF000000000
000000007FF000000000
000000007FF000000000
000000007FF000000000
000000007FF000000000
000000007FF000000000
000000007FF000000000
000000007FF000000000
000000007FF000000000
000000007FF000000000
000000007FF000000000
000000007FF000000000
000000007FF000000000
000000007FF000000000
000000007FF000000000
000000007FF000000000
000000007FF000000000
000000007FF000000000
000000007FF000000000
000000007FF000000000
000000007FF000000000
000000007FF000000000
000000007FF000000000
000000007FF000000000
000000007FF000000000
000000007FF000000000
000000007FF000000000
000000007FF000000000
000000007FF000000000
000000007FF000000000
000000007FF000000000
ENDCHAR
STARTCHAR comma
ENCODING 44
SWIDTH 259 0
DWIDTH 35 0
BBX 18 36 9 -16
BITMAP
FFFFC0
FFFFC0
FFFF80
FFFF80
FFFF80
FFFF80
FFFF80
FFFF00
FFFF00
FFFF00
FFFF00
FFFF00
FFFE00
FFFE00
FFFE00
FFFE00
FFFE00
FFFE00
FFFC00
FFFC00
FFFC00
FFFC00
FFFC00
FFF800
FFF800
FFF800
FFF800
FFF800
FFF000
FFF000
FFF000
FFF000
FFF000
FFE000
FFE000
FFE000
ENDCHAR
STARTCHAR hyphen
ENCODING 45
SWIDTH 296 0
DWIDTH 41 0
BBX 33 12 4 45
BITMAP
FFFFFFFF80
FFFFFFFF80
FFFFFFFF80
FFFFFFFF80
FFFFFFFF80
FFFFFFFF80
FFFFFFFF80
FFFFFFFF80
FFFFFFFF80
FFFFFFFF80
FFFFFFFF80
FFFFFFFF80
ENDCHAR
STARTCHAR period
ENCODING 46
SWIDTH 262 0
DWIDTH 36 0
BBX 18 19 9 0
BITMAP
03F000
0FFC00
3FFE00
3FFF00
7FFF80
FFFF80
FFFFC0
FFFFC0
FFFFC0
FFFFC0
FFFFC0
FFFFC0
FFFFC0
FFFF80
7FFF80
3FFF00
3FFE00
0FFC00
03F000
ENDCHAR
STARTCHAR slash
ENCODING 47
SWIDTH 444 0
DWIDTH 61 0
BBX 58 100 1 0
BITMAP
000000000001FFC0
000000000003FFC0
000000000003FF80
000000000007FF80
000000000007FF00
000000000007FF00
00000000000FFE00
00000000000FFE00
00000000001FFE00
00000000001FFC00
00000000003FFC00
00000000003FF800
00000000007FF800
00000000007FF000
0000000000FFF000
0000000000FFE000
0000000001FFE000
0000000001FFC000
0000000003FFC000
0000000003FF8000
0000000007FF8000
0000000007FF8000
0000000007FF0000
000000000FFF0000
000000000FFE0000
000000001FFE0000
000000001FFC0000
000000003FFC0000
000000003FF80000
000000007FF80000
000000007FF00000
00000000FFF00000
00000000FFE00000
00000001FFE00000
00000001FFE00000
00000003FFC00000
00000003FFC00000
00000003FF800000
00000007FF800000
00000007FF000000
0000000FFF000000
0000000FFE000000
0000001FFE000000
0000001FFC000000
0000003FFC000000
0000003FF8000000
0000007FF8000000
0000007FF8000000
000000FFF0000000
000000FFF0000000
000001FFE0000000
000001FFE0000000
000003FFC0000000
000003FFC0000000
000003FF80000000
000007FF80000000
000007FF00000000
00000FFF00000000
00000FFE00000000
00001FFE00000000
00001FFE00000000
00003FFC00000000
00003FFC00000000
00007FF800000000
00007FF800000000
0000FFF000000000
0000FFF000000000
0001FFE000000000
0001FFE000000000
0001FFC000000000
0003FFC000000000
0003FF8000000000
0007FF8000000000
0007FF8000000000
000FFF0000000000
000FFF0000000000
001FFE0000000000
001FFE0000000000
003FFC0000000000
003FFC0000000000
007FF80000000000
007FF80000000000
00FFF00000000000
00FFF00000000000
01FFE00000000000
01FFE00000000000
01FFE00000000000
03FFC00000000000
03FFC00000000000
07FF800000000000
07FF800000000000
0FFF000000000000
0FFF000000000000
1FFE000000000000
1FFE000000000000
3FFC000000000000
3FFC000000000000
7FF8000000000000
7FF8000000000000
FFF8000000000000
ENDCHAR
STARTCHAR zero
ENCODING 48
SWIDTH 838 0
DWIDTH 115 0
BBX 103 100 6 0
BITMAP
00000000000FFFE00000000000
0000000003FFFFFF8000000000
000000003FFFFFFFF000000000
00000001FFFFFFFFFE00000000
00000007FFFFFFFFFFC0000000
0000001FFFFFFFFFFFF0000000
0000007FFFFFFFFFFFFC000000
000001FFFFFFFFFFFFFF000000
000007FFFFFFFFFFFFFF800000
00000FFFFFFFFFFFFFFFE00000
00003FFFFFFFFFFFFFFFF00000
00007FFFFFFFFFFFFFFFFC0000
0000FFFFFFFFFFFFFFFFFE0000
0001FFFFFFFFFFFFFFFFFF0000
0003FFFFFFFFFFFFFFFFFF8000
0007FFFFFFFFFFFFFFFFFFC000
000FFFFFFFFFFFFFFFFFFFE000
001FFFFFFFFFC7FFFFFFFFF000
003FFFFFFF800007FFFFFFF800
007FFFFFFC0000007FFFFFF800
007FFFFFE00000001FFFFFFC00
00FFFFFF8000000007FFFFFE00
01FFFFFF0000000001FFFFFE00
01FFFFFC00000000007FFFFF00
03FFFFF800000000003FFFFF80
03FFFFE000000000001FFFFF80
07FFFFC000000000000FFFFFC0
07FFFF80000000000007FFFFC0
0FFFFF00000000000003FFFFE0
0FFFFF00000000000001FFFFE0
1FFFFE00000000000000FFFFF0
1FFFFC000000000000007FFFF0
3FFFF8000000000000007FFFF0
3FFFF8000000000000003FFFF8
3FFFF0000000000000003FFFF8
7FFFF0000000000000001FFFF8
7FFFF0000000000000001FFFFC
7FFFE0000000000000001FFFFC
7FFFE0000000000000000FFFFC
7FFFE0000000000000000FFFFC
FFFFC0000000000000000FFFFC
FFFFC00000000000000007FFFE
FFFFC00000000000000007FFFE
FFFFC00000000000000007FFFE
FFFFC00000000000000007FFFE
FFFF800000000000000007FFFE
FFFF800000000000000007FFFE
FFFF800000000000000007FFFE
FFFF800000000000000007FFFE
FFFF800000000000000003FFFE
FFFF800000000000000007FFFE
FFFF800000000000000007FFFE
FFFF800000000000000007FFFE
FFFF800000000000000007FFFE
FFFF800000000000000007FFFE
FFFFC00000000000000007FFFE
FFFFC00000000000000007FFFE
FFFFC00000000000000007FFFC
7FFFC00000000000000007FFFC
7FFFC0000000000000000FFFFC
7FFFE0000000000000000FFFFC
7FFFE0000000000000000FFFFC
7FFFE0000000000000001FFFF8
3FFFF0000000000000001FFFF8
3FFFF0000000000000001FFFF8
3FFFF8000000000000003FFFF0
1FFFF8000000000000003FFFF0
1FFFFC000000000000007FFFF0
0FFFFC00000000000000FFFFE0
0FFFFE00000000000000FFFFE0
0FFFFF00000000000001FFFFC0
07FFFF80000000000003FFFFC0
07FFFF80000000000007FFFF80
03FFFFC000000000000FFFFF80
03FFFFF000000000001FFFFF00
01FFFFF800000000003FFFFF00
00FFFFFC00000000007FFFFE00
00FFFFFF0000000001FFFFFC00
007FFFFF8000000007FFFFFC00
003FFFFFF00000001FFFFFF800
003FFFFFFC0000007FFFFFF000
001FFFFFFFC00007FFFFFFE000
000FFFFFFFFFCFFFFFFFFFE000
0007FFFFFFFFFFFFFFFFFFC000
0003FFFFFFFFFFFFFFFFFF8000
0001FFFFFFFFFFFFFFFFFF0000
0000FFFFFFFFFFFFFFFFFE0000
00007FFFFFFFFFFFFFFFFC0000
00003FFFFFFFFFFFFFFFF00000
00000FFFFFFFFFFFFFFFE00000
000007FFFFFFFFFFFFFFC00000
000003FFFFFFFFFFFFFF000000
000000FFFFFFFFFFFFFE000000
0000003FFFFFFFFFFFF8000000
0000000FFFFFFFFFFFE0000000
00000003FFFFFFFFFF80000000
00000000FFFFFFFFFE00000000
000000001FFFFFFFF000000000
0000000003FFFFFF0000000000
00000000000FFFE00000000000
ENDCHAR
STARTCHAR one
ENCODING 49
SWIDTH 385 0
DWIDTH 53 0
BBX 41 100 3 0
BITMAP
FFFF80000000
FFFFF8000000
FFFFFF000000
FFFFFFC00000
FFFFFFF00000
FFFFFFFC0000
FFFFFFFE0000
FFFFFFFF0000
FFFFFFFF8000
FFFFFFFFC000
FFFFFFFFE000
FFFFFFFFE000
FFFFFFFFF000
FFFFFFFFF800
FFFFFFFFF800
FFFFFFFFFC00
FFFFFFFFFC00
003FFFFFFE00
0000FFFFFE00
00003FFFFE00
00001FFFFF00
00000FFFFF00
000007FFFF00
000003FFFF00
000003FFFF00
000001FFFF80
000001FFFF80
000001FFFF80
000000FFFF80
000000FFFF80
000000FFFF80
000000FFFF80
000000FFFF80
000000FFFF80
000000FFFF80
000000FFFF80
000000FFFF80
000000FFFF80
000000FFFF80
000000FFFF80
000000FFFF80
000000FFFF80
000000FFFF80
000000FFFF80
000000FFFF80
000000FFFF80
000000FFFF80
000000FFFF80
000000FFFF80
000000FFFF80
000000FFFF80
000000FFFF80
000000FFFF80
000000FFFF80
000000FFFF80
000000FFFF80
000000FFFF80
000000FFFF80
000000FFFF80
000000FFFF80
000000FFFF80
000000FFFF80
000000FFFF80
000000FFFF80
000000FFFF80
000000FFFF80
000000FFFF80
000000FFFF80
000000FFFF80
000000FFFF80
000000FFFF80
000000FFFF80
000000FFFF80
000000FFFF80
000000FFFF80
000000FFFF80
000000FFFF80
000000FFFF80
000000FFFF80
000000FFFF80
000000FFFF80
000000FFFF80
000000FFFF80
000000FFFF80
000000FFFF80
000000FFFF80
000000FFFF80
000000FFFF80
000000FFFF80
000000FFFF80
000000FFFF80
000000FFFF80
000000FFFF80
000000FFFF80
000000FFFF80
000000FFFF80
000000FFFF80
000000FFFF80
000000FFFF80
000000FFFF80
ENDCHAR
STARTCHAR two
ENCODING 50
SWIDTH 825 0
DWIDTH 113 0
BBX 97 100 9 0
BITMAP
FFFFFFFFFFFFFFFFFF80000000
FFFFFFFFFFFFFFFFFFFC000000
FFFFFFFFFFFFFFFFFFFF000000
FFFFFFFFFFFFFFFFFFFFE00000
FFFFFFFFFFFFFFFFFFFFF00000
FFFFFFFFFFFFFFFFFFFFFC0000
FFFFFFFFFFFFFFFFFFFFFE0000
FFFFFFFFFFFFFFFFFFFFFF0000
FFFFFFFFFFFFFFFFFFFFFF8000
FFFFFFFFFFFFFFFFFFFFFFC000
FFFFFFFFFFFFFFFFFFFFFFE000
FFFFFFFFFFFFFFFFFFFFFFF000
FFFFFFFFFFFFFFFFFFFFFFF800
FFFFFFFFFFFFFFFFFFFFFFF800
FFFFFFFFFFFFFFFFFFFFFFFC00
FFFFFFFFFFFFFFFFFFFFFFFC00
FFFFFFFFFFFFFFFFFFFFFFFE00
00000000000000001FFFFFFE00
000000000000000000FFFFFE00
0000000000000000003FFFFF00
0000000000000000001FFFFF00
0000000000000000000FFFFF00
00000000000000000007FFFF00
00000000000000000003FFFF80
00000000000000000003FFFF80
00000000000000000003FFFF80
00000000000000000001FFFF80
00000000000000000001FFFF80
00000000000000000001FFFF80
00000000000000000001FFFF80
00000000000000000001FFFF80
00000000000000000001FFFF80
00000000000000000001FFFF80
00000000000000000001FFFF80
00000000000000000003FFFF00
00000000000000000003FFFF00
00000000000000000007FFFF00
00000000000000000007FFFF00
0000000000000000000FFFFE00
0000000000000000001FFFFE00
0000000000000000007FFFFC00
000000000000000001FFFFFC00
000001FFFFFFFFFFFFFFFFFC00
00003FFFFFFFFFFFFFFFFFF800
0001FFFFFFFFFFFFFFFFFFF000
0007FFFFFFFFFFFFFFFFFFF000
001FFFFFFFFFFFFFFFFFFFE000
007FFFFFFFFFFFFFFFFFFFC000
00FFFFFFFFFFFFFFFFFFFF8000
01FFFFFFFFFFFFFFFFFFFF0000
03FFFFFFFFFFFFFFFFFFFE0000
07FFFFFFFFFFFFFFFFFFFC0000
0FFFFFFFFFFFFFFFFFFFF00000
0FFFFFFFFFFFFFFFFFFFC00000
1FFFFFFFFFFFFFFFFFFF000000
1FFFFFFFFFFFFFFFFFF8000000
3FFFFFFFFFFFFFFFFF80000000
3FFFFF80000000000000000000
7FFFFC00000000000000000000
7FFFF000000000000000000000
7FFFE000000000000000000000
7FFFC000000000000000000000
FFFFC000000000000000000000
FFFF8000000000000000000000
FFFF8000000000000000000000
FFFF8000000000000000000000
FFFF0000000000000000000000
FFFF0000000000000000000000
FFFF0000000000000000000000
FFFF0000000000000000000000
FFFF0000000000000000000000
FFFF0000000000000000000000
FFFF0000000000000000000000
FFFF0000000000000000000000
FFFF0000000000000000000000
FFFF0000000000000000000000
FFFF0000000000000000000000
FFFF0000000000000000000000
FFFF0000000000000000000000
FFFF0000000000000000000000
FFFF0000000000000000000000
FFFF0000000000000000000000
FFFF0000000000000000000000
FFFFFFFFFFFFFFFFFFFFFFFE00
FFFFFFFFFFFFFFFFFFFFFFFE00
FFFFFFFFFFFFFFFFFFFFFFFE00
FFFFFFFFFFFFFFFFFFFFFFFE00
FFFFFFFFFFFFFFFFFFFFFFFE00
FFFFFFFFFFFFFFFFFFFFFFFE00
FFFFFFFFFFFFFFFFFFFFFFFE00
FFFFFFFFFFFFFFFFFFFFFFFE00
FFFFFFFFFFFFFFFFFFFFFFFE00
FFFFFFFFFFFFFFFFFFFFFFFE00
FFFFFFFFFFFFFFFFFFFFFFFE00
FFFFFFFFFFFFFFFFFFFFFFFE00
FFFFFFFFFFFFFFFFFFFFFFFE00
FFFFFFFFFFFFFFFFFFFFFFFE00
FFFFFFFFFFFFFFFFFFFFFFFE00
FFFFFFFFFFFFFFFFFFFFFFFE00
FFFFFFFFFFFFFFFFFFFFFFFE00
ENDCHAR
STARTCHAR three
ENCODING 51
SWIDTH 827 0
DWIDTH 113 0
BBX 101 100 6 0
BITMAP
7FFFFFFFFFFFFFFFFFC0000000
7FFFFFFFFFFFFFFFFFFE000000
7FFFFFFFFFFFFFFFFFFFC00000
7FFFFFFFFFFFFFFFFFFFF80000
7FFFFFFFFFFFFFFFFFFFFE0000
7FFFFFFFFFFFFFFFFFFFFF0000
7FFFFFFFFFFFFFFFFFFFFFC000
7FFFFFFFFFFFFFFFFFFFFFE000
7FFFFFFFFFFFFFFFFFFFFFF000
7FFFFFFFFFFFFFFFFFFFFFF800
7FFFFFFFFFFFFFFFFFFFFFFC00
7FFFFFFFFFFFFFFFFFFFFFFE00
7FFFFFFFFFFFFFFFFFFFFFFE00
7FFFFFFFFFFFFFFFFFFFFFFF00
7FFFFFFFFFFFFFFFFFFFFFFF00
7FFFFFFFFFFFFFFFFFFFFFFF80
7FFFFFFFFFFFFFFFFFFFFFFF80
0000000000000000FFFFFFFF80
000000000000000000FFFFFFC0
0000000000000000001FFFFFC0
00000000000000000007FFFFC0
00000000000000000003FFFFC0
00000000000000000001FFFFC0
00000000000000000000FFFFE0
00000000000000000000FFFFE0
000000000000000000007FFFE0
000000000000000000007FFFE0
000000000000000000007FFFE0
000000000000000000007FFFE0
000000000000000000007FFFE0
000000000000000000007FFFC0
000000000000000000007FFFC0
000000000000000000007FFFC0
000000000000000000007FFFC0
000000000000000000007FFFC0
00000000000000000000FFFF80
00000000000000000000FFFF80
00000000000000000001FFFF80
00000000000000000003FFFF00
00000000000000000007FFFE00
0000000000000000001FFFFE00
000000000000000000FFFFFC00
000000FFFFFFFFFFFFFFFFF800
000000FFFFFFFFFFFFFFFFF000
000000FFFFFFFFFFFFFFFFE000
000000FFFFFFFFFFFFFFFF8000
000000FFFFFFFFFFFFFFFE0000
000000FFFFFFFFFFFFFFF80000
000000FFFFFFFFFFFFFFFF0000
000000FFFFFFFFFFFFFFFF8000
000000FFFFFFFFFFFFFFFFE000
000000FFFFFFFFFFFFFFFFF000
000000FFFFFFFFFFFFFFFFFC00
000000FFFFFFFFFFFFFFFFFE00
000000FFFFFFFFFFFFFFFFFE00
000000FFFFFFFFFFFFFFFFFF00
000000FFFFFFFFFFFFFFFFFF80
0000000000000000007FFFFFC0
0000000000000000000FFFFFC0
00000000000000000003FFFFE0
00000000000000000001FFFFE0
00000000000000000000FFFFE0
000000000000000000007FFFF0
000000000000000000003FFFF0
000000000000000000003FFFF0
000000000000000000003FFFF0
000000000000000000001FFFF0
000000000000000000001FFFF0
000000000000000000001FFFF8
000000000000000000001FFFF8
000000000000000000001FFFF8
000000000000000000001FFFF8
000000000000000000001FFFF8
000000000000000000003FFFF0
000000000000000000003FFFF0
000000000000000000007FFFF0
000000000000000000007FFFF0
00000000000000000000FFFFF0
00000000000000000001FFFFF0
00000000000000000007FFFFE0
0000000000000000001FFFFFE0
0000000000000000007FFFFFE0
00000000000000007FFFFFFFC0
FFFFFFFFFFFFFFFFFFFFFFFFC0
FFFFFFFFFFFFFFFFFFFFFFFF80
FFFFFFFFFFFFFFFFFFFFFFFF80
FFFFFFFFFFFFFFFFFFFFFFFF00
FFFFFFFFFFFFFFFFFFFFFFFF00
FFFFFFFFFFFFFFFFFFFFFFFE00
FFFFFFFFFFFFFFFFFFFFFFFC00
FFFFFFFFFFFFFFFFFFFFFFF800
FFFFFFFFFFFFFFFFFFFFFFF000
FFFFFFFFFFFFFFFFFFFFFFE000
FFFFFFFFFFFFFFFFFFFFFFC000
FFFFFFFFFFFFFFFFFFFFFF0000
FFFFFFFFFFFFFFFFFFFFFE0000
FFFFFFFFFFFFFFFFFFFFF80000
FFFFFFFFFFFFFFFFFFFFE00000
FFFFFFFFFFFFFFFFFFFF000000
FFFFFFFFFFFFFFFFFFE0000000
ENDCHAR
STARTCHAR four
ENCODING 52
SWIDTH 845 0
DWIDTH 116 0
BBX 105 100 7 0
BITMAP
FFFF800000000000003FFFE00000
FFFF800000000000003FFFE00000
FFFF800000000000003FFFE00000
FFFF800000000000003FFFE00000
FFFF800000000000003FFFE00000
FFFF800000000000003FFFE00000
FFFF800000000000003FFFE00000
FFFF800000000000003FFFE00000
FFFF800000000000003FFFE00000
FFFF800000000000003FFFE00000
FFFF800000000000003FFFE00000
FFFF800000000000003FFFE00000
FFFF800000000000003FFFE00000
FFFF800000000000003FFFE00000
FFFF800000000000003FFFE00000
FFFF800000000000003FFFE00000
FFFF800000000000003FFFE00000
FFFF800000000000003FFFE00000
FFFF800000000000003FFFE00000
FFFF800000000000003FFFE00000
FFFF800000000000003FFFE00000
FFFF800000000000003FFFE00000
FFFF800000000000003FFFE00000
FFFF800000000000003FFFE00000
FFFF800000000000003FFFE00000
FFFF800000000000003FFFE00000
FFFF800000000000003FFFE00000
FFFF800000000000003FFFE00000
FFFF800000000000003FFFE00000
FFFF800000000000003FFFE00000
FFFF800000000000003FFFE00000
FFFF800000000000003FFFE00000
FFFF800000000000003FFFE00000
FFFF800000000000003FFFE00000
FFFF800000000000003FFFE00000
FFFF800000000000003FFFE00000
FFFF800000000000003FFFE00000
FFFF800000000000003FFFE00000
FFFF800000000000003FFFE00000
FFFF800000000000003FFFE00000
FFFF800000000000003FFFE00000
FFFF800000000000003FFFE00000
FFFF800000000000003FFFE00000
FFFF800000000000003FFFE00000
FFFF800000000000003FFFE00000
FFFF800000000000003FFFE00000
FFFFC00000000000003FFFE00000
FFFFC00000000000003FFFE00000
FFFFC00000000000003FFFE00000
FFFFC00000000000003FFFE00000
FFFFE00000000000003FFFE00000
7FFFF00000000000003FFFE00000
7FFFF80000000000003FFFE00000
7FFFFC0000000000003FFFE00000
7FFFFF0000000000003FFFE00000
3FFFFFE000000000003FFFE00000
3FFFFFFFFFFFFFFFFFFFFFFFFF80
3FFFFFFFFFFFFFFFFFFFFFFFFF80
1FFFFFFFFFFFFFFFFFFFFFFFFF80
1FFFFFFFFFFFFFFFFFFFFFFFFF80
0FFFFFFFFFFFFFFFFFFFFFFFFF80
07FFFFFFFFFFFFFFFFFFFFFFFF80
07FFFFFFFFFFFFFFFFFFFFFFFF80
03FFFFFFFFFFFFFFFFFFFFFFFF80
01FFFFFFFFFFFFFFFFFFFFFFFF80
00FFFFFFFFFFFFFFFFFFFFFFFF80
007FFFFFFFFFFFFFFFFFFFFFFF80
001FFFFFFFFFFFFFFFFFFFFFFF80
000FFFFFFFFFFFFFFFFFFFFFFF80
0003FFFFFFFFFFFFFFFFFFFFFF80
00007FFFFFFFFFFFFFFFFFFFFF80
00000FFFFFFFFFFFFFFFFFFFFF80
000000FFFFFFFFFFFFFFFFFFFF80
0000000000000000003FFFE00000
0000000000000000003FFFE00000
0000000000000000003FFFE00000
0000000000000000003FFFE00000
0000000000000000003FFFE00000
0000000000000000003FFFE00000
0000000000000000003FFFE00000
0000000000000000003FFFE00000
0000000000000000003FFFE00000
0000000000000000003FFFE00000
0000000000000000003FFFE00000
0000000000000000003FFFE00000
0000000000000000003FFFE00000
0000000000000000003FFFE00000
0000000000000000003FFFE00000
0000000000000000003FFFE00000
0000000000000000003FFFE00000
0000000000000000003FFFE00000
0000000000000000003FFFE00000
0000000000000000003FFFE00000
0000000000000000003FFFE00000
0000000000000000003FFFE00000
0000000000000000003FFFE00000
0000000000000000003FFFE00000
0000000000000000003FFFE00000
0000000000000000003FFFE00000
0000000000000000003FFFE00000
ENDCHAR
STARTCHAR five
ENCODING 53
SWIDTH 885 0
DWIDTH 121 0
BBX 105 100 9 0
BITMAP
FFFFFFFFFFFFFFFFFFFFFFFFF000
FFFFFFFFFFFFFFFFFFFFFFFFF000
FFFFFFFFFFFFFFFFFFFFFFFFF000
FFFFFFFFFFFFFFFFFFFFFFFFF000
FFFFFFFFFFFFFFFFFFFFFFFFF000
FFFFFFFFFFFFFFFFFFFFFFFFF000
FFFFFFFFFFFFFFFFFFFFFFFFF000
FFFFFFFFFFFFFFFFFFFFFFFFF000
FFFFFFFFFFFFFFFFFFFFFFFFF000
FFFFFFFFFFFFFFFFFFFFFFFFF000
FFFFFFFFFFFFFFFFFFFFFFFFF000
FFFFFFFFFFFFFFFFFFFFFFFFF000
FFFFFFFFFFFFFFFFFFFFFFFFF000
FFFFFFFFFFFFFFFFFFFFFFFFF000
FFFFFFFFFFFFFFFFFFFFFFFFF000
FFFFFFFFFFFFFFFFFFFFFFFFF000
FFFFFFFFFFFFFFFFFFFFFFFFF000
FFFFC00000000000000000000000
FFFFC00000000000000000000000
FFFFC00000000000000000000000
FFFFC00000000000000000000000
FFFFC00000000000000000000000
FFFFC00000000000000000000000
FFFFC00000000000000000000000
FFFFC00000000000000000000000
FFFFC00000000000000000000000
FFFFC00000000000000000000000
FFFFC00000000000000000000000
FFFFC00000000000000000000000
FFFFC00000000000000000000000
FFFFC00000000000000000000000
FFFFC00000000000000000000000
FFFFC00000000000000000000000
FFFFC00000000000000000000000
FFFFC00000000000000000000000
FFFFC00000000000000000000000
FFFFC00000000000000000000000
FFFFC00000000000000000000000
FFFFC00000000000000000000000
FFFFC00000000000000000000000
FFFFC00000000000000000000000
FFFFC00000000000000000000000
FFFFFFFFFFFFFFFFFFFFC0000000
FFFFFFFFFFFFFFFFFFFFFE000000
FFFFFFFFFFFFFFFFFFFFFFC00000
FFFFFFFFFFFFFFFFFFFFFFF00000
FFFFFFFFFFFFFFFFFFFFFFFC0000
FFFFFFFFFFFFFFFFFFFFFFFE0000
FFFFFFFFFFFFFFFFFFFFFFFF0000
FFFFFFFFFFFFFFFFFFFFFFFFC000
FFFFFFFFFFFFFFFFFFFFFFFFE000
FFFFFFFFFFFFFFFFFFFFFFFFE000
FFFFFFFFFFFFFFFFFFFFFFFFF000
FFFFFFFFFFFFFFFFFFFFFFFFF800
FFFFFFFFFFFFFFFFFFFFFFFFF800
FFFFFFFFFFFFFFFFFFFFFFFFFC00
FFFFFFFFFFFFFFFFFFFFFFFFFC00
00000000000000000001FFFFFE00
000000000000000000003FFFFE00
000000000000000000000FFFFF00
0000000000000000000007FFFF00
0000000000000000000003FFFF00
0000000000000000000001FFFF00
0000000000000000000001FFFF80
0000000000000000000000FFFF80
0000000000000000000000FFFF80
0000000000000000000000FFFF80
00000000000000000000007FFF80
00000000000000000000007FFF80
00000000000000000000007FFF80
00000000000000000000007FFF80
00000000000000000000007FFF80
0000000000000000000000FFFF80
0000000000000000000000FFFF80
0000000000000000000000FFFF80
0000000000000000000000FFFF80
0000000000000000000001FFFF80
0000000000000000000003FFFF80
0000000000000000000007FFFF00
000000000000000000000FFFFF00
000000000000000000001FFFFF00
000000000000000000007FFFFF00
0000000000000000001FFFFFFE00
FFFFFFFFFFFFFFFFFFFFFFFFFE00
FFFFFFFFFFFFFFFFFFFFFFFFFC00
FFFFFFFFFFFFFFFFFFFFFFFFFC00
FFFFFFFFFFFFFFFFFFFFFFFFF800
FFFFFFFFFFFFFFFFFFFFFFFFF800
FFFFFFFFFFFFFFFFFFFFFFFFF000
FFFFFFFFFFFFFFFFFFFFFFFFE000
FFFFFFFFFFFFFFFFFFFFFFFFE000
FFFFFFFFFFFFFFFFFFFFFFFFC000
FFFFFFFFFFFFFFFFFFFFFFFF8000
FFFFFFFFFFFFFFFFFFFFFFFE0000
FFFFFFFFFFFFFFFFFFFFFFFC0000
FFFFFFFFFFFFFFFFFFFFFFF80000
FFFFFFFFFFFFFFFFFFFFFFE00000
FFFFFFFFFFFFFFFFFFFFFF800000
FFFFFFFFFFFFFFFFFFFFFC000000
FFFFFFFFFFFFFFFFFFFF80000000
ENDCHAR
STARTCHAR six
ENCODING 54
SWIDTH 872 0
DWIDTH 119 0
BBX 106 100 6 0
BITMAP
0000000007FFFFFFFFFFFFFFFC00
00000001FFFFFFFFFFFFFFFFFC00
0000001FFFFFFFFFFFFFFFFFFC00
000000FFFFFFFFFFFFFFFFFFFC00
000003FFFFFFFFFFFFFFFFFFFC00
00000FFFFFFFFFFFFFFFFFFFFC00
00003FFFFFFFFFFFFFFFFFFFFC00
00007FFFFFFFFFFFFFFFFFFFFC00
0000FFFFFFFFFFFFFFFFFFFFFC00
0003FFFFFFFFFFFFFFFFFFFFFC00
0007FFFFFFFFFFFFFFFFFFFFFC00
000FFFFFFFFFFFFFFFFFFFFFFC00
001FFFFFFFFFFFFFFFFFFFFFFC00
003FFFFFFFFFFFFFFFFFFFFFFC00
007FFFFFFFFFFFFFFFFFFFFFFC00
007FFFFFFFFFFFFFFFFFFFFFFC00
00FFFFFFFFFFFFFFFFFFFFFFFC00
01FFFFFFFFF00000000000000000
01FFFFFFF0000000000000000000
03FFFFFF80000000000000000000
03FFFFFC00000000000000000000
07FFFFF800000000000000000000
07FFFFE000000000000000000000
0FFFFFC000000000000000000000
0FFFFF8000000000000000000000
1FFFFF0000000000000000000000
1FFFFE0000000000000000000000
1FFFFC0000000000000000000000
3FFFFC0000000000000000000000
3FFFF80000000000000000000000
3FFFF80000000000000000000000
3FFFF00000000000000000000000
7FFFF00000000000000000000000
7FFFE00000000000000000000000
7FFFE00000000000000000000000
7FFFE00000000000000000000000
7FFFE00000000000000000000000
FFFFC00000000000000000000000
FFFFC00000000000000000000000
FFFFC00000000000000000000000
FFFFC00000000000000000000000
FFFFC00000000000000000000000
FFFFFFFFFFFFFFFFFFFFE0000000
FFFFFFFFFFFFFFFFFFFFFF000000
FFFFFFFFFFFFFFFFFFFFFFE00000
FFFFFFFFFFFFFFFFFFFFFFF80000
FFFFFFFFFFFFFFFFFFFFFFFE0000
FFFFFFFFFFFFFFFFFFFFFFFF8000
FFFFFFFFFFFFFFFFFFFFFFFFC000
FFFFFFFFFFFFFFFFFFFFFFFFE000
FFFFFFFFFFFFFFFFFFFFFFFFF000
FFFFFFFFFFFFFFFFFFFFFFFFF800
FFFFFFFFFFFFFFFFFFFFFFFFFC00
FFFFFFFFFFFFFFFFFFFFFFFFFC00
FFFFFFFFFFFFFFFFFFFFFFFFFE00
FFFFFFFFFFFFFFFFFFFFFFFFFE00
FFFFFFFFFFFFFFFFFFFFFFFFFF00
FFFF8000000000000000FFFFFF00
FFFFC0000000000000001FFFFF80
FFFFC00000000000000007FFFF80
FFFFC00000000000000003FFFF80
7FFFC00000000000000001FFFF80
7FFFC00000000000000000FFFFC0
7FFFE00000000000000000FFFFC0
7FFFE000000000000000007FFFC0
7FFFE000000000000000007FFFC0
7FFFE000000000000000007FFFC0
3FFFF000000000000000007FFFC0
3FFFF000000000000000007FFFC0
3FFFF800000000000000007FFFC0
1FFFF800000000000000007FFFC0
1FFFFC00000000000000007FFFC0
1FFFFC00000000000000007FFFC0
0FFFFE00000000000000007FFFC0
0FFFFF00000000000000007FFFC0
0FFFFF8000000000000000FFFFC0
07FFFFC000000000000000FFFFC0
07FFFFE000000000000001FFFFC0
03FFFFF800000000000003FFFF80
03FFFFFC00000000000007FFFF80
01FFFFFF8000000000000FFFFF80
01FFFFFFF000000000007FFFFF80
00FFFFFFFFF00000001FFFFFFF00
007FFFFFFFFFFFFFFFFFFFFFFF00
007FFFFFFFFFFFFFFFFFFFFFFE00
003FFFFFFFFFFFFFFFFFFFFFFE00
001FFFFFFFFFFFFFFFFFFFFFFC00
000FFFFFFFFFFFFFFFFFFFFFFC00
0007FFFFFFFFFFFFFFFFFFFFF800
0003FFFFFFFFFFFFFFFFFFFFF000
0001FFFFFFFFFFFFFFFFFFFFF000
0000FFFFFFFFFFFFFFFFFFFFE000
00003FFFFFFFFFFFFFFFFFFFC000
00001FFFFFFFFFFFFFFFFFFF8000
000007FFFFFFFFFFFFFFFFFE0000
000001FFFFFFFFFFFFFFFFFC0000
0000007FFFFFFFFFFFFFFFF00000
0000000FFFFFFFFFFFFFFFC00000
00000001FFFFFFFFFFFFFE000000
0000000007FFFFFFFFFFE0000000
ENDCHAR
STARTCHAR seven
ENCODING 55
SWIDTH 756 0
DWIDTH 104 0
BBX 95 100 6 0
BITMAP
FFFFFFFFFFFFFFFFFFFFFF00
FFFFFFFFFFFFFFFFFFFFFFE0
FFFFFFFFFFFFFFFFFFFFFFF0
FFFFFFFFFFFFFFFFFFFFFFF8
FFFFFFFFFFFFFFFFFFFFFFFC
FFFFFFFFFFFFFFFFFFFFFFFC
FFFFFFFFFFFFFFFFFFFFFFFC
FFFFFFFFFFFFFFFFFFFFFFFE
FFFFFFFFFFFFFFFFFFFFFFFE
FFFFFFFFFFFFFFFFFFFFFFFE
FFFFFFFFFFFFFFFFFFFFFFFC
FFFFFFFFFFFFFFFFFFFFFFFC
FFFFFFFFFFFFFFFFFFFFFFFC
FFFFFFFFFFFFFFFFFFFFFFFC
FFFFFFFFFFFFFFFFFFFFFFF8
FFFFFFFFFFFFFFFFFFFFFFF0
FFFFFFFFFFFFFFFFFFFFFFE0
000000000000000007FFFFE0
00000000000000000FFFFFC0
00000000000000001FFFFF80
00000000000000003FFFFF00
00000000000000003FFFFE00
00000000000000007FFFFE00
0000000000000000FFFFFC00
0000000000000001FFFFF800
0000000000000003FFFFF000
0000000000000007FFFFE000
0000000000000007FFFFC000
000000000000000FFFFFC000
000000000000001FFFFF8000
000000000000003FFFFF0000
000000000000007FFFFE0000
000000000000007FFFFC0000
00000000000000FFFFFC0000
00000000000001FFFFF80000
00000000000003FFFFF00000
00000000000007FFFFE00000
0000000000000FFFFFC00000
0000000000000FFFFFC00000
0000000000001FFFFF800000
0000000000003FFFFF000000
0000000000007FFFFE000000
000000000000FFFFFC000000
000000000001FFFFF8000000
000000000001FFFFF8000000
000000000003FFFFF0000000
000000000007FFFFE0000000
00000000000FFFFFC0000000
00000000001FFFFF80000000
00000000003FFFFF80000000
00000000003FFFFF00000000
00000000007FFFFE00000000
0000000000FFFFFC00000000
0000000001FFFFF800000000
0000000003FFFFF000000000
0000000003FFFFF000000000
0000000007FFFFE000000000
000000000FFFFFC000000000
000000001FFFFF8000000000
000000003FFFFF0000000000
000000007FFFFF0000000000
000000007FFFFE0000000000
00000000FFFFFC0000000000
00000001FFFFF80000000000
00000003FFFFF00000000000
00000007FFFFF00000000000
0000000FFFFFE00000000000
0000000FFFFFC00000000000
0000001FFFFF800000000000
0000003FFFFF000000000000
0000007FFFFE000000000000
000000FFFFFE000000000000
000000FFFFFC000000000000
000001FFFFF8000000000000
000003FFFFF0000000000000
000007FFFFE0000000000000
00000FFFFFE0000000000000
00001FFFFFC0000000000000
00001FFFFF80000000000000
00003FFFFF00000000000000
00007FFFFE00000000000000
0000FFFFFE00000000000000
0001FFFFFC00000000000000
0003FFFFF800000000000000
0003FFFFF000000000000000
0007FFFFE000000000000000
000FFFFFC000000000000000
001FFFFFC000000000000000
003FFFFF8000000000000000
007FFFFF0000000000000000
007FFFFE0000000000000000
00FFFFFC0000000000000000
01FFFFFC0000000000000000
03FFFFF80000000000000000
07FFFFF00000000000000000
07FFFFE00000000000000000
0FFFFFC00000000000000000
1FFFFFC00000000000000000
3FFFFF800000000000000000
7FFFFF000000000000000000
ENDCHAR
STARTCHAR eight
ENCODING 56
SWIDTH 898 0
DWIDTH 123 0
BBX 109 100 7 0
BITMAP
0000001FFFFFFFFFFFFFE0000000
000007FFFFFFFFFFFFFFFF000000
00003FFFFFFFFFFFFFFFFFE00000
0000FFFFFFFFFFFFFFFFFFF80000
0003FFFFFFFFFFFFFFFFFFFE0000
000FFFFFFFFFFFFFFFFFFFFF8000
001FFFFFFFFFFFFFFFFFFFFFC000
003FFFFFFFFFFFFFFFFFFFFFF000
00FFFFFFFFFFFFFFFFFFFFFFF800
00FFFFFFFFFFFFFFFFFFFFFFFC00
01FFFFFFFFFFFFFFFFFFFFFFFC00
03FFFFFFFFFFFFFFFFFFFFFFFE00
07FFFFFFFFFFFFFFFFFFFFFFFF00
07FFFFFFFFFFFFFFFFFFFFFFFF00
0FFFFFFFFFFFFFFFFFFFFFFFFF80
0FFFFFFFFFFFFFFFFFFFFFFFFF80
1FFFFFFFFFFFFFFFFFFFFFFFFFC0
1FFFFFFFF0000000007FFFFFFFC0
1FFFFFF00000000000007FFFFFC0
1FFFFF800000000000000FFFFFE0
3FFFFE0000000000000003FFFFE0
3FFFFC0000000000000001FFFFE0
3FFFF80000000000000000FFFFE0
3FFFF80000000000000000FFFFE0
3FFFF000000000000000007FFFE0
3FFFF000000000000000007FFFE0
3FFFF000000000000000007FFFE0
3FFFF000000000000000007FFFE0
3FFFE000000000000000003FFFE0
3FFFE000000000000000003FFFE0
3FFFE000000000000000003FFFE0
3FFFE000000000000000007FFFE0
3FFFF000000000000000007FFFE0
1FFFF000000000000000007FFFC0
1FFFF000000000000000007FFFC0
1FFFF000000000000000007FFFC0
0FFFF80000000000000000FFFF80
0FFFF80000000000000000FFFF80
0FFFFC0000000000000001FFFF80
07FFFE0000000000000003FFFF00
03FFFF800000000000000FFFFE00
01FFFFF00000000000007FFFFE00
00FFFFFFFFFFFFFFFFFFFFFFFC00
007FFFFFFFFFFFFFFFFFFFFFF800
003FFFFFFFFFFFFFFFFFFFFFE000
001FFFFFFFFFFFFFFFFFFFFFC000
0007FFFFFFFFFFFFFFFFFFFF0000
0000FFFFFFFFFFFFFFFFFFF80000
0007FFFFFFFFFFFFFFFFFFFF0000
001FFFFFFFFFFFFFFFFFFFFFC000
007FFFFFFFFFFFFFFFFFFFFFF000
00FFFFFFFFFFFFFFFFFFFFFFF800
01FFFFFFFFFFFFFFFFFFFFFFFC00
03FFFFFFFFFFFFFFFFFFFFFFFE00
07FFFFFFFFFFFFFFFFFFFFFFFF00
0FFFFFFFFFFFFFFFFFFFFFFFFF80
0FFFFFFFFFFFFFFFFFFFFFFFFF80
1FFFFFE00000000000007FFFFFC0
3FFFFF0000000000000007FFFFE0
3FFFFE0000000000000003FFFFE0
3FFFF80000000000000000FFFFE0
7FFFF000000000000000007FFFF0
7FFFE000000000000000003FFFF0
7FFFE000000000000000003FFFF0
FFFFC000000000000000001FFFF8
FFFFC000000000000000001FFFF8
FFFFC000000000000000001FFFF8
FFFFC000000000000000001FFFF8
FFFFC000000000000000001FFFF8
FFFFC000000000000000001FFFF8
FFFFC000000000000000001FFFF8
FFFFC000000000000000001FFFF8
FFFFC000000000000000001FFFF8
FFFFC000000000000000001FFFF8
FFFFC000000000000000001FFFF8
FFFFE000000000000000003FFFF8
7FFFF000000000000000007FFFF0
7FFFF000000000000000007FFFF0
7FFFFC0000000000000001FFFFF0
7FFFFE0000000000000003FFFFF0
3FFFFF800000000000000FFFFFE0
3FFFFFF00000000000007FFFFFE0
3FFFFFFFE0000000003FFFFFFFE0
1FFFFFFFFFFFFFFFFFFFFFFFFFC0
1FFFFFFFFFFFFFFFFFFFFFFFFFC0
0FFFFFFFFFFFFFFFFFFFFFFFFF80
0FFFFFFFFFFFFFFFFFFFFFFFFF80
07FFFFFFFFFFFFFFFFFFFFFFFF00
03FFFFFFFFFFFFFFFFFFFFFFFE00
01FFFFFFFFFFFFFFFFFFFFFFFE00
01FFFFFFFFFFFFFFFFFFFFFFFC00
00FFFFFFFFFFFFFFFFFFFFFFF800
007FFFFFFFFFFFFFFFFFFFFFF000
001FFFFFFFFFFFFFFFFFFFFFC000
000FFFFFFFFFFFFFFFFFFFFF8000
0003FFFFFFFFFFFFFFFFFFFE0000
0001FFFFFFFFFFFFFFFFFFF80000
00003FFFFFFFFFFFFFFFFFE00000
000007FFFFFFFFFFFFFFFF000000
0000007FFFFFFFFFFFFFF0000000
ENDCHAR
STARTCHAR nine
ENCODING 57
SWIDTH 861 0
DWIDTH 118 0
BBX 106 100 6 0
BITMAP
000001FFFFFFFFFFF80000000000
00001FFFFFFFFFFFFFC000000000
0000FFFFFFFFFFFFFFFC00000000
0003FFFFFFFFFFFFFFFF80000000
0007FFFFFFFFFFFFFFFFE0000000
001FFFFFFFFFFFFFFFFFF8000000
003FFFFFFFFFFFFFFFFFFE000000
007FFFFFFFFFFFFFFFFFFF000000
00FFFFFFFFFFFFFFFFFFFFC00000
01FFFFFFFFFFFFFFFFFFFFE00000
03FFFFFFFFFFFFFFFFFFFFF00000
03FFFFFFFFFFFFFFFFFFFFF80000
07FFFFFFFFFFFFFFFFFFFFFC0000
0FFFFFFFFFFFFFFFFFFFFFFE0000
0FFFFFFFFFFFFFFFFFFFFFFF0000
1FFFFFFFFFFFFFFFFFFFFFFF0000
1FFFFFFFFFFFFFFFFFFFFFFF8000
3FFFFFFE00000003FFFFFFFFC000
3FFFFF800000000003FFFFFFC000
3FFFFE0000000000007FFFFFE000
7FFFFC0000000000001FFFFFF000
7FFFF800000000000007FFFFF000
7FFFF000000000000001FFFFF800
FFFFE000000000000000FFFFF800
FFFFE0000000000000007FFFFC00
FFFFC0000000000000003FFFFC00
FFFFC0000000000000001FFFFC00
FFFFC0000000000000001FFFFE00
FFFFC0000000000000000FFFFE00
FFFFC00000000000000007FFFE00
FFFF800000000000000007FFFF00
FFFF800000000000000003FFFF00
FFFF800000000000000003FFFF00
FFFF800000000000000003FFFF00
FFFFC00000000000000001FFFF80
FFFFC00000000000000001FFFF80
FFFFC00000000000000001FFFF80
FFFFC00000000000000001FFFF80
FFFFC00000000000000000FFFF80
FFFFE00000000000000000FFFF80
FFFFE00000000000000000FFFFC0
7FFFF00000000000000000FFFFC0
7FFFF80000000000000000FFFFC0
7FFFFC0000000000000000FFFFC0
3FFFFF00000000000000007FFFC0
3FFFFFE0000000000000007FFFC0
3FFFFFFFFFFFFFFFFFFFFFFFFFC0
1FFFFFFFFFFFFFFFFFFFFFFFFFC0
1FFFFFFFFFFFFFFFFFFFFFFFFFC0
0FFFFFFFFFFFFFFFFFFFFFFFFFC0
0FFFFFFFFFFFFFFFFFFFFFFFFFC0
07FFFFFFFFFFFFFFFFFFFFFFFFC0
03FFFFFFFFFFFFFFFFFFFFFFFFC0
01FFFFFFFFFFFFFFFFFFFFFFFFC0
00FFFFFFFFFFFFFFFFFFFFFFFFC0
007FFFFFFFFFFFFFFFFFFFFFFFC0
001FFFFFFFFFFFFFFFFFFFFFFFC0
000FFFFFFFFFFFFFFFFFFFFFFFC0
0003FFFFFFFFFFFFFFFFFFFFFFC0
00007FFFFFFFFFFFFFFFFFFFFFC0
000007FFFFFFFFFFFFFFFFFFFFC0
0000000000000000000000FFFFC0
0000000000000000000000FFFF80
0000000000000000000001FFFF80
0000000000000000000001FFFF80
0000000000000000000001FFFF80
0000000000000000000001FFFF80
0000000000000000000003FFFF80
0000000000000000000003FFFF00
0000000000000000000007FFFF00
0000000000000000000007FFFF00
000000000000000000000FFFFF00
000000000000000000000FFFFE00
000000000000000000001FFFFE00
000000000000000000003FFFFE00
000000000000000000007FFFFC00
00000000000000000000FFFFFC00
00000000000000000001FFFFF800
00000000000000000003FFFFF800
0000000000000000000FFFFFF000
0000000000000000003FFFFFF000
000000000000000003FFFFFFE000
0000000000000003FFFFFFFFE000
001FFFFFFFFFFFFFFFFFFFFFC000
001FFFFFFFFFFFFFFFFFFFFF8000
001FFFFFFFFFFFFFFFFFFFFF8000
001FFFFFFFFFFFFFFFFFFFFF0000
001FFFFFFFFFFFFFFFFFFFFE0000
001FFFFFFFFFFFFFFFFFFFFC0000
001FFFFFFFFFFFFFFFFFFFF80000
001FFFFFFFFFFFFFFFFFFFF00000
001FFFFFFFFFFFFFFFFFFFE00000
001FFFFFFFFFFFFFFFFFFF800000
001FFFFFFFFFFFFFFFFFFF000000
001FFFFFFFFFFFFFFFFFFC000000
001FFFFFFFFFFFFFFFFFF0000000
001FFFFFFFFFFFFFFFFFC0000000
001FFFFFFFFFFFFFFFFE00000000
001FFFFFFFFFFFFFFFE000000000
001FFFFFFFFFFFFFFC0000000000
ENDCHAR
STARTCHAR colon
ENCODING 58
SWIDTH 262 0
DWIDTH 36 0
BBX 18 64 9 0
BITMAP
03F000
0FFC00
1FFE00
3FFF00
7FFF80
FFFF80
FFFFC0
FFFFC0
FFFFC0
FFFFC0
FFFFC0
FFFFC0
FFFFC0
FFFFC0
7FFF80
7FFF00
3FFE00
0FFC00
03F000
000000
000000
000000
000000
000000
000000
000000
000000
000000
000000
000000
000000
000000
000000
000000
000000
000000
000000
000000
000000
000000
000000
000000
000000
000000
000000
03F000
0FFC00
3FFE00
3FFF00
7FFF80
FFFF80
FFFFC0
FFFFC0
FFFFC0
FFFFC0
FFFFC0
FFFFC0
FFFFC0
FFFF80
7FFF80
3FFF00
3FFE00
0FFC00
03F000
ENDCHAR
STARTCHAR semicolon
ENCODING 59
SWIDTH 262 0
DWIDTH 36 0
BBX 18 79 9 -16
BITMAP
03F000
0FFC00
1FFF00
3FFF00
7FFF80
FFFFC0
FFFFC0
FFFFC0
FFFFC0
FFFFC0
FFFFC0
FFFFC0
FFFFC0
7FFFC0
7FFF80
3FFF00
1FFE00
0FFC00
03F000
000000
000000
000000
000000
000000
000000
000000
000000
000000
000000
000000
000000
000000
000000
000000
000000
000000
000000
000000
000000
000000
000000
000000
000000
FFFFC0
FFFFC0
FFFF80
FFFF80
FFFF80
FFFF80
FFFF80
FFFF00
FFFF00
FFFF00
FFFF00
FFFF00
FFFE00
FFFE00
FFFE00
FFFE00
FFFE00
FFFE00
FFFC00
FFFC00
FFFC00
FFFC00
FFFC00
FFF800
FFF800
FFF800
FFF800
FFF800
FFF000
FFF000
FFF000
FFF000
FFF000
FFE000
FFE000
FFE000
ENDCHAR
STARTCHAR less
ENCODING 60
SWIDTH 690 0
DWIDTH 95 0
BBX 77 74 9 14
BITMAP
00000000000000000008
00000000000000000038
000000000000000001F8
000000000000000007F8
00000000000000003FF8
0000000000000000FFF8
0000000000000003FFF8
000000000000001FFFF8
000000000000007FFFF8
00000000000001FFFFF8
0000000000000FFFFFF8
0000000000003FFFFFF8
000000000001FFFFFFF8
000000000007FFFFFFE0
00000000001FFFFFFF00
0000000000FFFFFFFC00
0000000003FFFFFFE000
000000000FFFFFFF0000
000000007FFFFFFC0000
00000001FFFFFFE00000
0000000FFFFFFF800000
0000003FFFFFFC000000
000000FFFFFFF0000000
000007FFFFFF80000000
00001FFFFFFE00000000
0000FFFFFFF000000000
0003FFFFFFC000000000
000FFFFFFE0000000000
007FFFFFF00000000000
01FFFFFFC00000000000
07FFFFFE000000000000
1FFFFFF8000000000000
3FFFFFC0000000000000
7FFFFF00000000000000
FFFFF800000000000000
FFFFE000000000000000
FFFF0000000000000000
FFFE0000000000000000
FFFFC000000000000000
FFFFF000000000000000
FFFFFE00000000000000
7FFFFFC0000000000000
3FFFFFF0000000000000
0FFFFFFE000000000000
03FFFFFF800000000000
007FFFFFF00000000000
001FFFFFFC0000000000
0003FFFFFF8000000000
0000FFFFFFE000000000
00003FFFFFFC00000000
000007FFFFFF00000000
000001FFFFFFE0000000
0000007FFFFFF8000000
0000000FFFFFFF000000
00000003FFFFFFC00000
00000000FFFFFFF80000
000000001FFFFFFE0000
0000000007FFFFFFC000
0000000000FFFFFFF000
00000000003FFFFFFE00
00000000000FFFFFFF80
000000000001FFFFFFF0
0000000000007FFFFFF8
0000000000001FFFFFF8
00000000000003FFFFF8
00000000000000FFFFF8
000000000000001FFFF8
0000000000000007FFF8
0000000000000001FFF8
00000000000000003FF8
00000000000000000FF8
000000000000000003F8
00000000000000000078
00000000000000000018
ENDCHAR
STARTCHAR equal
ENCODING 61
SWIDTH 690 0
DWIDTH 95 0
BBX 77 49 9 26
BITMAP
FFFFFFFFFFFFFFFFFFF8
FFFFFFFFFFFFFFFFFFF8
FFFFFFFFFFFFFFFFFFF8
FFFFFFFFFFFFFFFFFFF8
FFFFFFFFFFFFFFFFFFF8
FFFFFFFFFFFFFFFFFFF8
FFFFFFFFFFFFFFFFFFF8
FFFFFFFFFFFFFFFFFFF8
FFFFFFFFFFFFFFFFFFF8
FFFFFFFFFFFFFFFFFFF8
FFFFFFFFFFFFFFFFFFF8
FFFFFFFFFFFFFFFFFFF8
00000000000000000000
00000000000000000000
00000000000000000000
00000000000000000000
00000000000000000000
00000000000000000000
00000000000000000000
00000000000000000000
00000000000000000000
00000000000000000000
00000000000000000000
00000000000000000000
00000000000000000000
00000000000000000000
00000000000000000000
00000000000000000000
00000000000000000000
00000000000000000000
00000000000000000000
00000000000000000000
00000000000000000000
00000000000000000000
00000000000000000000
00000000000000000000
00000000000000000000
FFFFFFFFFFFFFFFFFFF8
FFFFFFFFFFFFFFFFFFF8
FFFFFFFFFFFFFFFFFFF8
FFFFFFFFFFFFFFFFFFF8
FFFFFFFFFFFFFFFFFFF8
FFFFFFFFFFFFFFFFFFF8
FFFFFFFFFFFFFFFFFFF8
FFFFFFFFFFFFFFFFFFF8
FFFFFFFFFFFFFFFFFFF8
FFFFFFFFFFFFFFFFFFF8
FFFFFFFFFFFFFFFFFFF8
FFFFFFFFFFFFFFFFFFF8
ENDCHAR
STARTCHAR greater
ENCODING 62
SWIDTH 690 0
DWIDTH 95 0
BBX 77 74 9 14
BITMAP
80000000000000000000
E0000000000000000000
F8000000000000000000
FF000000000000000000
FFC00000000000000000
FFF00000000000000000
FFFE0000000000000000
FFFF8000000000000000
FFFFF000000000000000
FFFFFC00000000000000
FFFFFF00000000000000
FFFFFFE0000000000000
FFFFFFF8000000000000
3FFFFFFE000000000000
0FFFFFFFC00000000000
01FFFFFFF00000000000
007FFFFFFE0000000000
000FFFFFFF8000000000
0001FFFFFFE000000000
00007FFFFFFC00000000
00000FFFFFFF00000000
000003FFFFFFE0000000
0000007FFFFFF8000000
0000001FFFFFFE000000
00000003FFFFFFC00000
00000000FFFFFFF00000
000000001FFFFFFC0000
0000000003FFFFFF8000
0000000000FFFFFFE000
00000000001FFFFFFC00
000000000007FFFFFF00
000000000000FFFFFFC0
0000000000003FFFFFE0
00000000000007FFFFF0
00000000000001FFFFF0
000000000000003FFFF8
0000000000000007FFF8
0000000000000007FFF8
000000000000001FFFF8
00000000000000FFFFF8
00000000000003FFFFF0
0000000000001FFFFFE0
0000000000007FFFFFC0
000000000003FFFFFF00
00000000001FFFFFFC00
00000000007FFFFFF000
0000000003FFFFFF8000
000000000FFFFFFE0000
000000007FFFFFF80000
00000001FFFFFFC00000
0000000FFFFFFF000000
0000003FFFFFF8000000
000001FFFFFFE0000000
000007FFFFFF80000000
00003FFFFFFC00000000
0000FFFFFFF000000000
0007FFFFFFC000000000
001FFFFFFE0000000000
00FFFFFFF80000000000
03FFFFFFE00000000000
1FFFFFFF000000000000
7FFFFFFC000000000000
FFFFFFE0000000000000
FFFFFF80000000000000
FFFFFE00000000000000
FFFFF000000000000000
FFFFC000000000000000
FFFF0000000000000000
FFF80000000000000000
FFE00000000000000000
FF800000000000000000
FC000000000000000000
F0000000000000000000
80000000000000000000
ENDCHAR
STARTCHAR question
ENCODING 63
SWIDTH 776 0
DWIDTH 106 0
BBX 96 100 6 0
BITMAP
FFFFFFFFFFFFFFFFFF800000
FFFFFFFFFFFFFFFFFFF80000
FFFFFFFFFFFFFFFFFFFF0000
FFFFFFFFFFFFFFFFFFFFC000
FFFFFFFFFFFFFFFFFFFFF000
FFFFFFFFFFFFFFFFFFFFF800
FFFFFFFFFFFFFFFFFFFFFE00
FFFFFFFFFFFFFFFFFFFFFF00
FFFFFFFFFFFFFFFFFFFFFF80
FFFFFFFFFFFFFFFFFFFFFFC0
FFFFFFFFFFFFFFFFFFFFFFE0
FFFFFFFFFFFFFFFFFFFFFFE0
FFFFFFFFFFFFFFFFFFFFFFF0
FFFFFFFFFFFFFFFFFFFFFFF8
FFFFFFFFFFFFFFFFFFFFFFF8
FFFFFFFFFFFFFFFFFFFFFFFC
FFFFFFFFFFFFFFFFFFFFFFFC
00000000000000003FFFFFFE
000000000000000000FFFFFE
0000000000000000003FFFFE
0000000000000000001FFFFE
0000000000000000000FFFFF
00000000000000000007FFFF
00000000000000000007FFFF
00000000000000000003FFFF
00000000000000000003FFFF
00000000000000000003FFFF
00000000000000000003FFFF
00000000000000000003FFFF
00000000000000000003FFFF
00000000000000000003FFFF
00000000000000000003FFFF
00000000000000000003FFFF
00000000000000000003FFFF
00000000000000000007FFFF
00000000000000000007FFFE
0000000000000000000FFFFE
0000000000000000001FFFFE
0000000000000000003FFFFC
0000000000000000007FFFFC
000000000000000003FFFFFC
0000003FFFFFFFFFFFFFFFF8
000003FFFFFFFFFFFFFFFFF0
00001FFFFFFFFFFFFFFFFFF0
00007FFFFFFFFFFFFFFFFFE0
0000FFFFFFFFFFFFFFFFFFC0
0001FFFFFFFFFFFFFFFFFFC0
0003FFFFFFFFFFFFFFFFFF80
0007FFFFFFFFFFFFFFFFFF00
000FFFFFFFFFFFFFFFFFFC00
000FFFFFFFFFFFFFFFFFF800
001FFFFFFFFFFFFFFFFFF000
001FFFFFFFFFFFFFFFFFC000
003FFFFFFFFFFFFFFFFF0000
003FFFFFFFFFFFFFFFF80000
003FFFFFFFFFFFFFFF000000
003FFFF80000000000000000
003FFFE00000000000000000
007FFFC00000000000000000
007FFFC00000000000000000
007FFFC00000000000000000
007FFFC00000000000000000
007FFFC00000000000000000
007FFFC00000000000000000
007FFFC00000000000000000
007FFFC00000000000000000
007FFFC00000000000000000
000000000000000000000000
000000000000000000000000
000000000000000000000000
000000000000000000000000
000000000000000000000000
000000000000000000000000
000000000000000000000000
000000000000000000000000
000000000000000000000000
000000000000000000000000
000000000000000000000000
000000000000000000000000
000000000000000000000000
000000000000000000000000
0001F8000000000000000000
0007FE000000000000000000
001FFF000000000000000000
003FFF800000000000000000
003FFFC00000000000000000
007FFFC00000000000000000
007FFFE00000000000000000
007FFFE00000000000000000
007FFFE00000000000000000
007FFFE00000000000000000
007FFFE00000000000000000
007FFFE00000000000000000
007FFFE00000000000000000
007FFFC00000000000000000
003FFFC00000000000000000
003FFF800000000000000000
001FFF000000000000000000
0007FE000000000000000000
0001F8000000000000000000
ENDCHAR
STARTCHAR at
ENCODING 64
SWIDTH 833 0
DWIDTH 114 0
BBX 99 100 6 0
BITMAP
00000000003FFFFFFFFFFFFFE0
0000000007FFFFFFFFFFFFFFE0
000000003FFFFFFFFFFFFFFFE0
00000001FFFFFFFFFFFFFFFFE0
00000007FFFFFFFFFFFFFFFFE0
0000003FFFFFFFFFFFFFFFFFE0
0000007FFFFFFFFFFFFFFFFFE0
000001FFFFFFFFFFFFFFFFFFE0
000007FFFFFFFFFFFFFFFFFFE0
00000FFFFFFFFFFFFFFFFFFFE0
00001FFFFFFFFFFFFFFFFFFFE0
00007FFFFFFFFFFFFFFFFFFFE0
0000FFFFFFFFFFFFFFFFFFFFE0
0001FFFFFFE00000000003FFE0
0003FFFFFC000000000003FFE0
0007FFFFE0000000000003FFE0
000FFFFF80000000000003FFE0
000FFFFE00000000000003FFE0
001FFFF800000000000003FFE0
003FFFE000000000000003FFE0
007FFFC000000000000003FFE0
007FFF8000000000000003FFE0
00FFFF0000000000000003FFE0
01FFFE0000000000000003FFE0
01FFFC0000000000000003FFE0
03FFF80000000000000003FFE0
03FFF00000000000000003FFE0
07FFE00000000000000003FFE0
07FFE000001FFFFFFFE003FFE0
0FFFC00000FFFFFFFFE003FFE0
0FFF800003FFFFFFFFE003FFE0
1FFF800007FFFFFFFFE003FFE0
1FFF00001FFFFFFFFFE003FFE0
1FFF00003FFFFFFFFFE003FFE0
3FFE00007FFFFFFFFFE003FFE0
3FFE00007FFFFFFFFFE003FFE0
3FFE0000FFFFFFFFFFE003FFE0
7FFC0001FFFFFFFFFFE003FFE0
7FFC0001FFFE0001FFE003FFE0
7FFC0003FFF80001FFE003FFE0
7FFC0003FFE00001FFE003FFE0
7FFC0007FFC00001FFE003FFE0
FFF80007FFC00001FFE003FFE0
FFF80007FF800001FFE003FFE0
FFF80007FF800001FFE003FFE0
FFF8000FFF000001FFE003FFE0
FFF8000FFF000001FFE003FFE0
FFF8000FFF000001FFE003FFE0
FFF8000FFF000001FFE003FFE0
FFF8000FFF000001FFE003FFE0
FFF8000FFF000001FFE003FFE0
FFF8000FFF000001FFE003FFE0
FFF8000FFF000001FFE003FFE0
FFF8000FFF000001FFE003FFE0
FFF8000FFF000001FFE003FFE0
FFF80007FF800001FFE003FFE0
FFF80007FF800001FFE003FFE0
FFF80007FFC00001FFE003FFE0
FFFC0007FFE00001FFE003FFE0
FFFC0003FFF00001FFE003FFE0
FFFC0003FFF80001FFE003FFE0
7FFC0003FFFE0001FFE003FFE0
7FFC0001FFFFFFFFFFFFFFFFE0
7FFE0001FFFFFFFFFFFFFFFFE0
7FFE0000FFFFFFFFFFFFFFFFE0
3FFF00007FFFFFFFFFFFFFFFE0
3FFF00003FFFFFFFFFFFFFFFE0
3FFF00003FFFFFFFFFFFFFFFE0
3FFF80000FFFFFFFFFFFFFFFE0
1FFF800007FFFFFFFFFFFFFFE0
1FFFC00003FFFFFFFFFFFFFFE0
0FFFE00000FFFFFFFFFFFFFFE0
0FFFE000001FFFFFFFFFFFFFE0
07FFF000000000000000000000
07FFF800000000000000000000
03FFFC00000000000000000000
03FFFE00000000000000000000
01FFFF00000000000000000000
01FFFF80000000000000000000
00FFFFC0000000000000000000
007FFFE0000000000000000000
007FFFF8000000000000000000
003FFFFE000000000000000000
001FFFFF800000000000000000
000FFFFFE00000000000000000
0007FFFFFC0000000000000000
0003FFFFFFE000000000000000
0001FFFFFFFFFFFFFFFFFFFFE0
0000FFFFFFFFFFFFFFFFFFFFE0
00007FFFFFFFFFFFFFFFFFFFE0
00001FFFFFFFFFFFFFFFFFFFE0
00000FFFFFFFFFFFFFFFFFFFE0
000003FFFFFFFFFFFFFFFFFFE0
000001FFFFFFFFFFFFFFFFFFE0
0000007FFFFFFFFFFFFFFFFFE0
0000001FFFFFFFFFFFFFFFFFE0
00000003FFFFFFFFFFFFFFFFE0
000000007FFFFFFFFFFFFFFFE0
000000000FFFFFFFFFFFFFFFE0
00000000003FFFFFFFFFFFFFE0
ENDCHAR
STARTCHAR A
ENCODING 65
SWIDTH 989 0
DWIDTH 136 0
BBX 131 102 2 0
BITMAP
0000000000000000400000000000000000
0000000000000003FC0000000000000000
000000000000000FFE0000000000000000
000000000000001FFF0000000000000000
000000000000003FFF8000000000000000
000000000000003FFFC000000000000000
000000000000007FFFC000000000000000
00000000000000FFFFE000000000000000
00000000000000FFFFE000000000000000
00000000000001FFFFF000000000000000
00000000000001FFFFF800000000000000
00000000000003FFFFF800000000000000
00000000000007FFFFFC00000000000000
00000000000007FFFFFC00000000000000
0000000000000FFFFFFE00000000000000
0000000000000FFFFFFF00000000000000
0000000000001FFFFFFF00000000000000
0000000000003FFFFFFF80000000000000
0000000000003FFFFFFF80000000000000
0000000000007FFFFFFFC0000000000000
0000000000007FFFFFFFE0000000000000
000000000000FFFFFFFFE0000000000000
000000000001FFFFFFFFF0000000000000
000000000001FFFFFFFFF0000000000000
000000000003FFFFFFFFF8000000000000
000000000003FFFFFFFFFC000000000000
000000000007FFFF3FFFFC000000000000
00000000000FFFFF3FFFFE000000000000
00000000000FFFFE1FFFFE000000000000
00000000001FFFFE1FFFFF000000000000
00000000001FFFFC0FFFFF800000000000
00000000003FFFFC0FFFFF800000000000
00000000007FFFF807FFFFC00000000000
00000000007FFFF003FFFFC00000000000
0000000000FFFFF003FFFFE00000000000
0000000000FFFFE001FFFFF00000000000
0000000001FFFFE001FFFFF00000000000
0000000003FFFFC000FFFFF80000000000
0000000003FFFF80007FFFF80000000000
0000000007FFFF80007FFFFC0000000000
0000000007FFFF00003FFFFE0000000000
000000000FFFFF00003FFFFE0000000000
000000001FFFFE00001FFFFF0000000000
000000001FFFFC00000FFFFF0000000000
000000003FFFFC00000FFFFF8000000000
000000003FFFF8000007FFFFC000000000
000000007FFFF8000007FFFFC000000000
00000000FFFFF0000003FFFFE000000000
00000000FFFFE0000001FFFFE000000000
00000001FFFFE0000001FFFFF000000000
00000001FFFFC0000000FFFFF800000000
00000003FFFFC0000000FFFFF800000000
00000007FFFF800000007FFFFC00000000
00000007FFFF800000003FFFFC00000000
0000000FFFFF000000003FFFFE00000000
0000000FFFFE000000001FFFFF00000000
0000001FFFFE000000001FFFFF00000000
0000003FFFFC000000000FFFFF80000000
0000003FFFFC0000000007FFFF80000000
0000007FFFF80000000007FFFFC0000000
0000007FFFF00000000003FFFFE0000000
000000FFFFF00000000003FFFFE0000000
000000FFFFE00000000001FFFFF0000000
000001FFFFE000FFFFFFFFFFFFF0000000
000003FFFFC000FFFFFFFFFFFFF8000000
000003FFFF8001FFFFFFFFFFFFFC000000
000007FFFF8001FFFFFFFFFFFFFC000000
000007FFFF0003FFFFFFFFFFFFFE000000
00000FFFFF0007FFFFFFFFFFFFFE000000
00001FFFFE0007FFFFFFFFFFFFFF000000
00001FFFFC000FFFFFFFFFFFFFFF800000
00003FFFFC000FFFFFFFFFFFFFFF800000
00003FFFF8001FFFFFFFFFFFFFFFC00000
00007FFFF8003FFFFFFFFFFFFFFFC00000
0000FFFFF0003FFFFFFFFFFFFFFFE00000
0000FFFFE0007FFFFFFFFFFFFFFFF00000
0001FFFFE000FFFFFFFFFFFFFFFFF00000
0001FFFFC000000000000000FFFFF80000
0003FFFFC000000000000000FFFFF80000
0007FFFF80000000000000007FFFFC0000
0007FFFF80000000000000003FFFFE0000
000FFFFF00000000000000003FFFFE0000
000FFFFE00000000000000001FFFFF0000
001FFFFE00000000000000001FFFFF0000
003FFFFC00000000000000000FFFFF8000
003FFFFC000000000000000007FFFFC000
007FFFF8000000000000000007FFFFC000
007FFFF0000000000000000003FFFFE000
00FFFFF0000000000000000003FFFFE000
01FFFFE0000000000000000001FFFFF000
01FFFFE0000000000000000000FFFFF800
03FFFFC0000000000000000000FFFFF800
03FFFF800000000000000000007FFFFC00
07FFFF800000000000000000007FFFFC00
0FFFFF000000000000000000003FFFFE00
0FFFFF000000000000000000001FFFFF00
1FFFFE000000000000000000001FFFFF00
1FFFFC000000000000000000000FFFFF80
3FFFFC000000000000000000000FFFFF80
7FFFF80000000000000000000007FFFFC0
7FFFF80000000000000000000003FFFFE0
FFFFF00000000000000000000003FFFFE0
ENDCHAR
STARTCHAR B
ENCODING 66
SWIDTH 891 0
DWIDTH 122 0
BBX 107 100 8 0
BITMAP
FFFFFFFFFFFFFFFFFFFF80000000
FFFFFFFFFFFFFFFFFFFFFC000000
FFFFFFFFFFFFFFFFFFFFFF800000
FFFFFFFFFFFFFFFFFFFFFFF00000
FFFFFFFFFFFFFFFFFFFFFFFC0000
FFFFFFFFFFFFFFFFFFFFFFFE0000
FFFFFFFFFFFFFFFFFFFFFFFF8000
FFFFFFFFFFFFFFFFFFFFFFFFC000
FFFFFFFFFFFFFFFFFFFFFFFFE000
FFFFFFFFFFFFFFFFFFFFFFFFF000
FFFFFFFFFFFFFFFFFFFFFFFFF800
FFFFFFFFFFFFFFFFFFFFFFFFF800
FFFFFFFFFFFFFFFFFFFFFFFFFC00
FFFFFFFFFFFFFFFFFFFFFFFFFE00
FFFFFFFFFFFFFFFFFFFFFFFFFE00
FFFFFFFFFFFFFFFFFFFFFFFFFF00
FFFFFFFFFFFFFFFFFFFFFFFFFF00
FFFFC000000000000FFFFFFFFF00
FFFFC000000000000001FFFFFF80
FFFFC0000000000000003FFFFF80
FFFFC0000000000000000FFFFF80
FFFFC00000000000000007FFFF80
FFFFC00000000000000003FFFF80
FFFFC00000000000000001FFFFC0
FFFFC00000000000000001FFFFC0
FFFFC00000000000000001FFFFC0
FFFFC00000000000000000FFFFC0
FFFFC00000000000000000FFFFC0
FFFFC00000000000000000FFFFC0
FFFFC00000000000000000FFFFC0
FFFFC00000000000000000FFFF80
FFFFC00000000000000000FFFF80
FFFFC00000000000000000FFFF80
FFFFC00000000000000000FFFF80
FFFFC00000000000000001FFFF80
FFFFC00000000000000001FFFF00
FFFFC00000000000000001FFFF00
FFFFC00000000000000003FFFE00
FFFFC00000000000000007FFFE00
FFFFC0000000000000000FFFFC00
FFFFC0000000000000003FFFFC00
FFFFC000000000000001FFFFF800
FFFFC003FFFFFFFFFFFFFFFFF000
FFFFC003FFFFFFFFFFFFFFFFE000
FFFFC003FFFFFFFFFFFFFFFFC000
FFFFC003FFFFFFFFFFFFFFFF0000
FFFFC003FFFFFFFFFFFFFFFE0000
FFFFC003FFFFFFFFFFFFFFF00000
FFFFC003FFFFFFFFFFFFFFFC0000
FFFFC003FFFFFFFFFFFFFFFF0000
FFFFC003FFFFFFFFFFFFFFFFC000
FFFFC003FFFFFFFFFFFFFFFFE000
FFFFC003FFFFFFFFFFFFFFFFF000
FFFFC003FFFFFFFFFFFFFFFFF800
FFFFC003FFFFFFFFFFFFFFFFFC00
FFFFC003FFFFFFFFFFFFFFFFFE00
FFFFC003FFFFFFFFFFFFFFFFFF00
FFFFC000000000000000FFFFFF00
FFFFC0000000000000001FFFFF80
FFFFC00000000000000007FFFF80
FFFFC00000000000000003FFFFC0
FFFFC00000000000000001FFFFC0
FFFFC00000000000000000FFFFE0
FFFFC00000000000000000FFFFE0
FFFFC000000000000000007FFFE0
FFFFC000000000000000007FFFE0
FFFFC000000000000000007FFFE0
FFFFC000000000000000003FFFE0
FFFFC000000000000000003FFFE0
FFFFC000000000000000003FFFE0
FFFFC000000000000000003FFFE0
FFFFC000000000000000003FFFE0
FFFFC000000000000000007FFFE0
FFFFC000000000000000007FFFE0
FFFFC000000000000000007FFFE0
FFFFC00000000000000000FFFFE0
FFFFC00000000000000000FFFFE0
FFFFC00000000000000001FFFFE0
FFFFC00000000000000003FFFFC0
FFFFC0000000000000000FFFFFC0
FFFFC0000000000000003FFFFFC0
FFFFC000000000000001FFFFFFC0
FFFFC0000000000003FFFFFFFF80
FFFFFFFFFFFFFFFFFFFFFFFFFF80
FFFFFFFFFFFFFFFFFFFFFFFFFF00
FFFFFFFFFFFFFFFFFFFFFFFFFF00
FFFFFFFFFFFFFFFFFFFFFFFFFE00
FFFFFFFFFFFFFFFFFFFFFFFFFC00
FFFFFFFFFFFFFFFFFFFFFFFFFC00
FFFFFFFFFFFFFFFFFFFFFFFFF800
FFFFFFFFFFFFFFFFFFFFFFFFF000
FFFFFFFFFFFFFFFFFFFFFFFFE000
FFFFFFFFFFFFFFFFFFFFFFFFC000
FFFFFFFFFFFFFFFFFFFFFFFF8000
FFFFFFFFFFFFFFFFFFFFFFFE0000
FFFFFFFFFFFFFFFFFFFFFFFC0000
FFFFFFFFFFFFFFFFFFFFFFF00000
FFFFFFFFFFFFFFFFFFFFFFC00000
FFFFFFFFFFFFFFFFFFFFFE000000
FFFFFFFFFFFFFFFFFFFFC0000000
ENDCHAR
STARTCHAR C
ENCODING 67
SWIDTH 829 0
DWIDTH 114 0
BBX 102 100 6 0
BITMAP
00000000007FFFFFFFFFFFFFFC
000000001FFFFFFFFFFFFFFFFC
00000000FFFFFFFFFFFFFFFFFC
00000007FFFFFFFFFFFFFFFFFC
0000001FFFFFFFFFFFFFFFFFFC
000000FFFFFFFFFFFFFFFFFFFC
000001FFFFFFFFFFFFFFFFFFFC
000007FFFFFFFFFFFFFFFFFFFC
00001FFFFFFFFFFFFFFFFFFFFC
00003FFFFFFFFFFFFFFFFFFFFC
00007FFFFFFFFFFFFFFFFFFFFC
0000FFFFFFFFFFFFFFFFFFFFFC
0003FFFFFFFFFFFFFFFFFFFFFC
0007FFFFFFFFFFFFFFFFFFFFFC
000FFFFFFFFFFFFFFFFFFFFFFC
000FFFFFFFFFFFFFFFFFFFFFFC
001FFFFFFFFFFFFFFFFFFFFFFC
003FFFFFFFFE00000000000000
007FFFFFFF0000000000000000
00FFFFFFF80000000000000000
00FFFFFFC00000000000000000
01FFFFFF000000000000000000
03FFFFFE000000000000000000
03FFFFF8000000000000000000
07FFFFF0000000000000000000
07FFFFE0000000000000000000
0FFFFFC0000000000000000000
0FFFFF80000000000000000000
0FFFFF00000000000000000000
1FFFFE00000000000000000000
1FFFFE00000000000000000000
3FFFFC00000000000000000000
3FFFF800000000000000000000
3FFFF800000000000000000000
3FFFF000000000000000000000
7FFFF000000000000000000000
7FFFF000000000000000000000
7FFFE000000000000000000000
7FFFE000000000000000000000
FFFFE000000000000000000000
FFFFC000000000000000000000
FFFFC000000000000000000000
FFFFC000000000000000000000
FFFFC000000000000000000000
FFFF8000000000000000000000
FFFF8000000000000000000000
FFFF8000000000000000000000
FFFF8000000000000000000000
FFFF8000000000000000000000
FFFF8000000000000000000000
FFFF8000000000000000000000
FFFF8000000000000000000000
FFFF8000000000000000000000
FFFF8000000000000000000000
FFFF8000000000000000000000
FFFFC000000000000000000000
FFFFC000000000000000000000
FFFFC000000000000000000000
FFFFC000000000000000000000
7FFFC000000000000000000000
7FFFE000000000000000000000
7FFFE000000000000000000000
7FFFE000000000000000000000
3FFFF000000000000000000000
3FFFF000000000000000000000
3FFFF800000000000000000000
3FFFF800000000000000000000
1FFFFC00000000000000000000
1FFFFC00000000000000000000
1FFFFE00000000000000000000
0FFFFF00000000000000000000
0FFFFF00000000000000000000
07FFFF80000000000000000000
07FFFFC0000000000000000000
03FFFFE0000000000000000000
03FFFFF0000000000000000000
01FFFFFC000000000000000000
01FFFFFE000000000000000000
00FFFFFF800000000000000000
007FFFFFC00000000000000000
007FFFFFF80000000000000000
003FFFFFFF0000000000000000
001FFFFFFFFE00000000000000
000FFFFFFFFFFFFFFFFFFFFFFC
0007FFFFFFFFFFFFFFFFFFFFFC
0003FFFFFFFFFFFFFFFFFFFFFC
0001FFFFFFFFFFFFFFFFFFFFFC
0000FFFFFFFFFFFFFFFFFFFFFC
00007FFFFFFFFFFFFFFFFFFFFC
00003FFFFFFFFFFFFFFFFFFFFC
00001FFFFFFFFFFFFFFFFFFFFC
000007FFFFFFFFFFFFFFFFFFFC
000003FFFFFFFFFFFFFFFFFFFC
000000FFFFFFFFFFFFFFFFFFFC
0000003FFFFFFFFFFFFFFFFFFC
0000000FFFFFFFFFFFFFFFFFFC
00000003FFFFFFFFFFFFFFFFFC
00000000FFFFFFFFFFFFFFFFFC
000000000FFFFFFFFFFFFFFFFC
00000000007FFFFFFFFFFFFFFC
ENDCHAR
STARTCHAR D
ENCODING 68
SWIDTH 879 0
DWIDTH 120 0
BBX 106 100 9 0
BITMAP
FFFFFFFFFFFFFFFF800000000000
FFFFFFFFFFFFFFFFFC0000000000
FFFFFFFFFFFFFFFFFFC000000000
FFFFFFFFFFFFFFFFFFF800000000
FFFFFFFFFFFFFFFFFFFE00000000
FFFFFFFFFFFFFFFFFFFF80000000
FFFFFFFFFFFFFFFFFFFFE0000000
FFFFFFFFFFFFFFFFFFFFF0000000
FFFFFFFFFFFFFFFFFFFFFC000000
FFFFFFFFFFFFFFFFFFFFFE000000
FFFFFFFFFFFFFFFFFFFFFF800000
FFFFFFFFFFFFFFFFFFFFFFC00000
FFFFFFFFFFFFFFFFFFFFFFE00000
FFFFFFFFFFFFFFFFFFFFFFF00000
FFFFFFFFFFFFFFFFFFFFFFF80000
FFFFFFFFFFFFFFFFFFFFFFFC0000
FFFFFFFFFFFFFFFFFFFFFFFE0000
FFFF80000000003FFFFFFFFF0000
FFFF8000000000003FFFFFFF0000
FFFF80000000000007FFFFFF8000
FFFF80000000000001FFFFFFC000
FFFF800000000000007FFFFFC000
FFFF800000000000001FFFFFE000
FFFF800000000000000FFFFFF000
FFFF8000000000000007FFFFF000
FFFF8000000000000003FFFFF800
FFFF8000000000000000FFFFF800
FFFF8000000000000000FFFFF800
FFFF80000000000000007FFFFC00
FFFF80000000000000003FFFFC00
FFFF80000000000000001FFFFE00
FFFF80000000000000001FFFFE00
FFFF80000000000000000FFFFE00
FFFF800000000000000007FFFF00
FFFF800000000000000007FFFF00
FFFF800000000000000003FFFF00
FFFF800000000000000003FFFF00
FFFF800000000000000003FFFF80
FFFF800000000000000001FFFF80
FFFF800000000000000001FFFF80
FFFF800000000000000001FFFF80
FFFF800000000000000001FFFF80
FFFF800000000000000000FFFF80
FFFF800000000000000000FFFFC0
FFFF800000000000000000FFFFC0
FFFF800000000000000000FFFFC0
FFFF800000000000000000FFFFC0
FFFF800000000000000000FFFFC0
FFFF800000000000000000FFFFC0
FFFF800000000000000000FFFFC0
FFFF800000000000000000FFFFC0
FFFF800000000000000000FFFFC0
FFFF800000000000000000FFFFC0
FFFF800000000000000000FFFFC0
FFFF800000000000000000FFFFC0
FFFF800000000000000000FFFF80
FFFF800000000000000000FFFF80
FFFF800000000000000000FFFF80
FFFF800000000000000001FFFF80
FFFF800000000000000001FFFF80
FFFF800000000000000001FFFF80
FFFF800000000000000001FFFF00
FFFF800000000000000003FFFF00
FFFF800000000000000003FFFF00
FFFF800000000000000007FFFF00
FFFF800000000000000007FFFE00
FFFF80000000000000000FFFFE00
FFFF80000000000000000FFFFE00
FFFF80000000000000001FFFFC00
FFFF80000000000000001FFFFC00
FFFF80000000000000003FFFFC00
FFFF80000000000000007FFFF800
FFFF8000000000000000FFFFF800
FFFF8000000000000001FFFFF000
FFFF8000000000000003FFFFF000
FFFF8000000000000007FFFFE000
FFFF800000000000000FFFFFE000
FFFF800000000000003FFFFFC000
FFFF800000000000007FFFFF8000
FFFF80000000000001FFFFFF8000
FFFF80000000000007FFFFFF0000
FFFF8000000000003FFFFFFE0000
FFFF80000000003FFFFFFFFE0000
FFFFFFFFFFFFFFFFFFFFFFFC0000
FFFFFFFFFFFFFFFFFFFFFFF80000
FFFFFFFFFFFFFFFFFFFFFFF00000
FFFFFFFFFFFFFFFFFFFFFFE00000
FFFFFFFFFFFFFFFFFFFFFFC00000
FFFFFFFFFFFFFFFFFFFFFF800000
FFFFFFFFFFFFFFFFFFFFFF000000
FFFFFFFFFFFFFFFFFFFFFC000000
FFFFFFFFFFFFFFFFFFFFF8000000
FFFFFFFFFFFFFFFFFFFFF0000000
FFFFFFFFFFFFFFFFFFFFC0000000
FFFFFFFFFFFFFFFFFFFF00000000
FFFFFFFFFFFFFFFFFFFC00000000
FFFFFFFFFFFFFFFFFFF000000000
FFFFFFFFFFFFFFFFFF8000000000
FFFFFFFFFFFFFFFFFC0000000000
FFFFFFFFFFFFFFFF000000000000
ENDCHAR
STARTCHAR E
ENCODING 69
SWIDTH 759 0
DWIDTH 104 0
BBX 89 100 9 0
BITMAP
FFFFFFFFFFFFFFFFFFFFFF80
FFFFFFFFFFFFFFFFFFFFFF80
FFFFFFFFFFFFFFFFFFFFFF80
FFFFFFFFFFFFFFFFFFFFFF80
FFFFFFFFFFFFFFFFFFFFFF80
FFFFFFFFFFFFFFFFFFFFFF80
FFFFFFFFFFFFFFFFFFFFFF80
FFFFFFFFFFFFFFFFFFFFFF80
FFFFFFFFFFFFFFFFFFFFFF80
FFFFFFFFFFFFFFFFFFFFFF80
FFFFFFFFFFFFFFFFFFFFFF80
FFFFFFFFFFFFFFFFFFFFFF80
FFFFFFFFFFFFFFFFFFFFFF80
FFFFFFFFFFFFFFFFFFFFFF80
FFFFFFFFFFFFFFFFFFFFFF80
FFFFFFFFFFFFFFFFFFFFFF80
FFFFFFFFFFFFFFFFFFFFFF80
FFFF80000000000000000000
FFFF80000000000000000000
FFFF80000000000000000000
FFFF80000000000000000000
FFFF80000000000000000000
FFFF80000000000000000000
FFFF80000000000000000000
FFFF80000000000000000000
FFFF80000000000000000000
FFFF80000000000000000000
FFFF80000000000000000000
FFFF80000000000000000000
FFFF80000000000000000000
FFFF80000000000000000000
FFFF80000000000000000000
FFFF80000000000000000000
FFFF80000000000000000000
FFFF80000000000000000000
FFFF80000000000000000000
FFFF80000000000000000000
FFFF80000000000000000000
FFFF80000000000000000000
FFFF80000000000000000000
FFFF80000000000000000000
FFFF80000000000000000000
FFFF8003FFFFFFFFFFFFF800
FFFF8003FFFFFFFFFFFFF800
FFFF8003FFFFFFFFFFFFF800
FFFF8003FFFFFFFFFFFFF800
FFFF8003FFFFFFFFFFFFF800
FFFF8003FFFFFFFFFFFFF800
FFFF8003FFFFFFFFFFFFF800
FFFF8003FFFFFFFFFFFFF800
FFFF8003FFFFFFFFFFFFF800
FFFF8003FFFFFFFFFFFFF800
FFFF8003FFFFFFFFFFFFF800
FFFF8003FFFFFFFFFFFFF800
FFFF8003FFFFFFFFFFFFF800
FFFF8003FFFFFFFFFFFFF800
FFFF8003FFFFFFFFFFFFF800
FFFF80000000000000000000
FFFF80000000000000000000
FFFF80000000000000000000
FFFF80000000000000000000
FFFF80000000000000000000
FFFF80000000000000000000
FFFF80000000000000000000
FFFF80000000000000000000
FFFF80000000000000000000
FFFF80000000000000000000
FFFF80000000000000000000
FFFF80000000000000000000
FFFF80000000000000000000
FFFF80000000000000000000
FFFF80000000000000000000
FFFF80000000000000000000
FFFF80000000000000000000
FFFF80000000000000000000
FFFF80000000000000000000
FFFF80000000000000000000
FFFF80000000000000000000
FFFF80000000000000000000
FFFF80000000000000000000
FFFF80000000000000000000
FFFF80000000000000000000
FFFF80000000000000000000
FFFFFFFFFFFFFFFFFFFFFF80
FFFFFFFFFFFFFFFFFFFFFF80
FFFFFFFFFFFFFFFFFFFFFF80
FFFFFFFFFFFFFFFFFFFFFF80
FFFFFFFFFFFFFFFFFFFFFF80
FFFFFFFFFFFFFFFFFFFFFF80
FFFFFFFFFFFFFFFFFFFFFF80
FFFFFFFFFFFFFFFFFFFFFF80
FFFFFFFFFFFFFFFFFFFFFF80
FFFFFFFFFFFFFFFFFFFFFF80
FFFFFFFFFFFFFFFFFFFFFF80
FFFFFFFFFFFFFFFFFFFFFF80
FFFFFFFFFFFFFFFFFFFFFF80
FFFFFFFFFFFFFFFFFFFFFF80
FFFFFFFFFFFFFFFFFFFFFF80
FFFFFFFFFFFFFFFFFFFFFF80
FFFFFFFFFFFFFFFFFFFFFF80
ENDCHAR
STARTCHAR F
ENCODING 70
SWIDTH 705 0
DWIDTH 97 0
BBX 84 100 9 0
BITMAP
FFFFFFFFFFFFFFFFFFFFF0
FFFFFFFFFFFFFFFFFFFFF0
FFFFFFFFFFFFFFFFFFFFF0
FFFFFFFFFFFFFFFFFFFFF0
FFFFFFFFFFFFFFFFFFFFF0
FFFFFFFFFFFFFFFFFFFFF0
FFFFFFFFFFFFFFFFFFFFF0
FFFFFFFFFFFFFFFFFFFFF0
FFFFFFFFFFFFFFFFFFFFF0
FFFFFFFFFFFFFFFFFFFFF0
FFFFFFFFFFFFFFFFFFFFF0
FFFFFFFFFFFFFFFFFFFFF0
FFFFFFFFFFFFFFFFFFFFF0
FFFFFFFFFFFFFFFFFFFFF0
FFFFFFFFFFFFFFFFFFFFF0
FFFFFFFFFFFFFFFFFFFFF0
FFFFFFFFFFFFFFFFFFFFF0
FFFF800000000000000000
FFFF800000000000000000
FFFF800000000000000000
FFFF800000000000000000
FFFF800000000000000000
FFFF800000000000000000
FFFF800000000000000000
FFFF800000000000000000
FFFF800000000000000000
FFFF800000000000000000
FFFF800000000000000000
FFFF800000000000000000
FFFF800000000000000000
FFFF800000000000000000
FFFF800000000000000000
FFFF800000000000000000
FFFF800000000000000000
FFFF800000000000000000
FFFF800000000000000000
FFFF800000000000000000
FFFF800000000000000000
FFFF800000000000000000
FFFF800000000000000000
FFFF800000000000000000
FFFF800000000000000000
FFFF800000000000000000
FFFF8003FFFFFFFFFFFF00
FFFF8003FFFFFFFFFFFF00
FFFF8003FFFFFFFFFFFF00
FFFF8003FFFFFFFFFFFF00
FFFF8003FFFFFFFFFFFF00
FFFF8003FFFFFFFFFFFF00
FFFF8003FFFFFFFFFFFF00
FFFF8003FFFFFFFFFFFF00
FFFF8003FFFFFFFFFFFF00
FFFF8003FFFFFFFFFFFF00
FFFF8003FFFFFFFFFFFF00
FFFF8003FFFFFFFFFFFF00
FFFF8003FFFFFFFFFFFF00
FFFF8003FFFFFFFFFFFF00
FFFF8003FFFFFFFFFFFF00
FFFF800000000000000000
FFFF800000000000000000
FFFF800000000000000000
FFFF800000000000000000
FFFF800000000000000000
FFFF800000000000000000
FFFF800000000000000000
FFFF800000000000000000
FFFF800000000000000000
FFFF800000000000000000
FFFF800000000000000000
FFFF800000000000000000
FFFF800000000000000000
FFFF800000000000000000
FFFF800000000000000000
FFFF800000000000000000
FFFF800000000000000000
FFFF800000000000000000
FFFF800000000000000000
FFFF800000000000000000
FFFF800000000000000000
FFFF800000000000000000
FFFF800000000000000000
FFFF800000000000000000
FFFF800000000000000000
FFFF800000000000000000
FFFF800000000000000000
FFFF800000000000000000
FFFF800000000000000000
FFFF800000000000000000
FFFF800000000000000000
FFFF800000000000000000
FFFF800000000000000000
FFFF800000000000000000
FFFF800000000000000000
FFFF800000000000000000
FFFF800000000000000000
FFFF800000000000000000
FFFF800000000000000000
FFFF800000000000000000
FFFF800000000000000000
FFFF800000000000000000
ENDCHAR
STARTCHAR G
ENCODING 71
SWIDTH 888 0
DWIDTH 122 0
BBX 108 100 6 0
BITMAP
00000000007FFFFFFFFFFFFFFC00
000000001FFFFFFFFFFFFFFFFC00
00000000FFFFFFFFFFFFFFFFFC00
00000007FFFFFFFFFFFFFFFFFC00
0000001FFFFFFFFFFFFFFFFFFC00
000000FFFFFFFFFFFFFFFFFFFC00
000001FFFFFFFFFFFFFFFFFFFC00
000007FFFFFFFFFFFFFFFFFFFC00
00001FFFFFFFFFFFFFFFFFFFFC00
00003FFFFFFFFFFFFFFFFFFFFC00
00007FFFFFFFFFFFFFFFFFFFFC00
0000FFFFFFFFFFFFFFFFFFFFFC00
0003FFFFFFFFFFFFFFFFFFFFFC00
0007FFFFFFFFFFFFFFFFFFFFFC00
000FFFFFFFFFFFFFFFFFFFFFFC00
000FFFFFFFFFFFFFFFFFFFFFFC00
001FFFFFFFFFFFFFFFFFFFFFFC00
003FFFFFFFFE0000000000000000
007FFFFFFF000000000000000000
00FFFFFFF8000000000000000000
00FFFFFFC0000000000000000000
01FFFFFF00000000000000000000
03FFFFFE00000000000000000000
03FFFFF800000000000000000000
07FFFFF000000000000000000000
07FFFFE000000000000000000000
0FFFFFC000000000000000000000
0FFFFF8000000000000000000000
0FFFFF0000000000000000000000
1FFFFE0000000000000000000000
1FFFFE0000000000000000000000
3FFFFC0000000000000000000000
3FFFF80000000000000000000000
3FFFF80000000000000000000000
3FFFF00000000000000000000000
7FFFF00000000000000000000000
7FFFF00000000000000000000000
7FFFE00000000000000000000000
7FFFE00000000000000000000000
FFFFE00000000000000000000000
FFFFC00000000000000000000000
FFFFC00000000000000000000000
FFFFC0000003FFFFFFFFFFFFFFF0
FFFFC0000003FFFFFFFFFFFFFFF0
FFFF80000003FFFFFFFFFFFFFFF0
FFFF80000003FFFFFFFFFFFFFFF0
FFFF80000003FFFFFFFFFFFFFFF0
FFFF80000003FFFFFFFFFFFFFFF0
FFFF80000003FFFFFFFFFFFFFFF0
FFFF80000003FFFFFFFFFFFFFFF0
FFFF80000003FFFFFFFFFFFFFFF0
FFFF80000003FFFFFFFFFFFFFFF0
FFFF80000003FFFFFFFFFFFFFFF0
FFFF80000003FFFFFFFFFFFFFFF0
FFFF80000003FFFFFFFFFFFFFFF0
FFFFC0000003FFFFFFFFFFFFFFF0
FFFFC0000003FFFFFFFFFFFFFFF0
FFFFC000000000000000001FFFF0
FFFFC000000000000000001FFFF0
7FFFC000000000000000001FFFF0
7FFFE000000000000000001FFFF0
7FFFE000000000000000001FFFF0
7FFFE000000000000000001FFFF0
3FFFF000000000000000001FFFF0
3FFFF000000000000000001FFFF0
3FFFF800000000000000001FFFF0
3FFFF800000000000000001FFFF0
1FFFFC00000000000000001FFFF0
1FFFFC00000000000000001FFFF0
1FFFFE00000000000000001FFFF0
0FFFFF00000000000000001FFFF0
0FFFFF00000000000000001FFFF0
07FFFF80000000000000001FFFF0
07FFFFC0000000000000001FFFF0
03FFFFE0000000000000001FFFF0
03FFFFF0000000000000001FFFF0
01FFFFFC000000000000001FFFF0
01FFFFFE000000000000001FFFF0
00FFFFFF800000000000001FFFF0
007FFFFFC00000000000001FFFF0
007FFFFFF80000000000001FFFF0
003FFFFFFF0000000000001FFFF0
001FFFFFFFFE00000000001FFFF0
000FFFFFFFFFFFFFFFFFFFFFFFF0
0007FFFFFFFFFFFFFFFFFFFFFFF0
0003FFFFFFFFFFFFFFFFFFFFFFF0
0001FFFFFFFFFFFFFFFFFFFFFFF0
0000FFFFFFFFFFFFFFFFFFFFFFF0
00007FFFFFFFFFFFFFFFFFFFFFF0
00003FFFFFFFFFFFFFFFFFFFFFF0
00001FFFFFFFFFFFFFFFFFFFFFF0
000007FFFFFFFFFFFFFFFFFFFFF0
000003FFFFFFFFFFFFFFFFFFFFF0
000000FFFFFFFFFFFFFFFFFFFFF0
0000003FFFFFFFFFFFFFFFFFFFF0
0000000FFFFFFFFFFFFFFFFFFFF0
00000003FFFFFFFFFFFFFFFFFFF0
00000000FFFFFFFFFFFFFFFFFFF0
000000000FFFFFFFFFFFFFFFFFF0
00000000007FFFFFFFFFFFFFFFF0
ENDCHAR
STARTCHAR H
ENCODING 72
SWIDTH 838 0
DWIDTH 115 0
BBX 97 100 9 0
BITMAP
FFFF8000000000000000FFFF80
FFFF8000000000000000FFFF80
FFFF8000000000000000FFFF80
FFFF8000000000000000FFFF80
FFFF8000000000000000FFFF80
FFFF8000000000000000FFFF80
FFFF8000000000000000FFFF80
FFFF8000000000000000FFFF80
FFFF8000000000000000FFFF80
FFFF8000000000000000FFFF80
FFFF8000000000000000FFFF80
FFFF8000000000000000FFFF80
FFFF8000000000000000FFFF80
FFFF8000000000000000FFFF80
FFFF8000000000000000FFFF80
FFFF8000000000000000FFFF80
FFFF8000000000000000FFFF80
FFFF8000000000000000FFFF80
FFFF8000000000000000FFFF80
FFFF8000000000000000FFFF80
FFFF8000000000000000FFFF80
FFFF8000000000000000FFFF80
FFFF8000000000000000FFFF80
FFFF8000000000000000FFFF80
FFFF8000000000000000FFFF80
FFFF8000000000000000FFFF80
FFFF8000000000000000FFFF80
FFFF8000000000000000FFFF80
FFFF8000000000000000FFFF80
FFFF8000000000000000FFFF80
FFFF8000000000000000FFFF80
FFFF8000000000000000FFFF80
FFFF8000000000000000FFFF80
FFFF8000000000000000FFFF80
FFFF8000000000000000FFFF80
FFFF8000000000000000FFFF80
FFFF8000000000000000FFFF80
FFFF8000000000000000FFFF80
FFFF8000000000000000FFFF80
FFFF8000000000000000FFFF80
FFFF8000000000000000FFFF80
FFFF8003FFFFFFFFFFFFFFFF80
FFFF8003FFFFFFFFFFFFFFFF80
FFFF8003FFFFFFFFFFFFFFFF80
FFFF8003FFFFFFFFFFFFFFFF80
FFFF8003FFFFFFFFFFFFFFFF80
FFFF8003FFFFFFFFFFFFFFFF80
FFFF8003FFFFFFFFFFFFFFFF80
FFFF8003FFFFFFFFFFFFFFFF80
FFFF8003FFFFFFFFFFFFFFFF80
FFFF8003FFFFFFFFFFFFFFFF80
FFFF8003FFFFFFFFFFFFFFFF80
FFFF8003FFFFFFFFFFFFFFFF80
FFFF8003FFFFFFFFFFFFFFFF80
FFFF8003FFFFFFFFFFFFFFFF80
FFFF8003FFFFFFFFFFFFFFFF80
FFFF8003FFFFFFFFFFFFFFFF80
FFFF8000000000000000FFFF80
FFFF8000000000000000FFFF80
FFFF8000000000000000FFFF80
FFFF8000000000000000FFFF80
FFFF8000000000000000FFFF80
FFFF8000000000000000FFFF80
FFFF8000000000000000FFFF80
FFFF8000000000000000FFFF80
FFFF8000000000000000FFFF80
FFFF8000000000000000FFFF80
FFFF8000000000000000FFFF80
FFFF8000000000000000FFFF80
FFFF8000000000000000FFFF80
FFFF8000000000000000FFFF80
FFFF8000000000000000FFFF80
FFFF8000000000000000FFFF80
FFFF8000000000000000FFFF80
FFFF8000000000000000FFFF80
FFFF8000000000000000FFFF80
FFFF8000000000000000FFFF80
FFFF8000000000000000FFFF80
FFFF8000000000000000FFFF80
FFFF8000000000000000FFFF80
FFFF8000000000000000FFFF80
FFFF8000000000000000FFFF80
FFFF8000000000000000FFFF80
FFFF8000000000000000FFFF80
FFFF8000000000000000FFFF80
FFFF8000000000000000FFFF80
FFFF8000000000000000FFFF80
FFFF8000000000000000FFFF80
FFFF8000000000000000FFFF80
FFFF8000000000000000FFFF80
FFFF8000000000000000FFFF80
FFFF8000000000000000FFFF80
FFFF8000000000000000FFFF80
FFFF8000000000000000FFFF80
FFFF8000000000000000FFFF80
FFFF8000000000000000FFFF80
FFFF8000000000000000FFFF80
FFFF8000000000000000FFFF80
FFFF8000000000000000FFFF80
FFFF8000000000000000FFFF80
ENDCHAR
STARTCHAR I
ENCODING 73
SWIDTH 267 0
DWIDTH 37 0
BBX 17 100 10 0
BITMAP
FFFF80
FFFF80
FFFF80
FFFF80
FFFF80
FFFF80
FFFF80
FFFF80
FFFF80
FFFF80
FFFF80
FFFF80
FFFF80
FFFF80
FFFF80
FFFF80
FFFF80
FFFF80
FFFF80
FFFF80
FFFF80
FFFF80
FFFF80
FFFF80
FFFF80
FFFF80
FFFF80
FFFF80
FFFF80
FFFF80
FFFF80
FFFF80
FFFF80
FFFF80
FFFF80
FFFF80
FFFF80
FFFF80
FFFF80
FFFF80
FFFF80
FFFF80
FFFF80
FFFF80
FFFF80
FFFF80
FFFF80
FFFF80
FFFF80
FFFF80
FFFF80
FFFF80
FFFF80
FFFF80
FFFF80
FFFF80
FFFF80
FFFF80
FFFF80
FFFF80
FFFF80
FFFF80
FFFF80
FFFF80
FFFF80
FFFF80
FFFF80
FFFF80
FFFF80
FFFF80
FFFF80
FFFF80
FFFF80
FFFF80
FFFF80
FFFF80
FFFF80
FFFF80
FFFF80
FFFF80
FFFF80
FFFF80
FFFF80
FFFF80
FFFF80
FFFF80
FFFF80
FFFF80
FFFF80
FFFF80
FFFF80
FFFF80
FFFF80
FFFF80
FFFF80
FFFF80
FFFF80
FFFF80
FFFF80
FFFF80
ENDCHAR
STARTCHAR J
ENCODING 74
SWIDTH 708 0
DWIDTH 97 0
BBX 87 100 3 0
BITMAP
000000000000000007FFFE
000000000000000007FFFE
000000000000000007FFFE
000000000000000007FFFE
000000000000000007FFFE
000000000000000007FFFE
000000000000000007FFFE
000000000000000007FFFE
000000000000000007FFFE
000000000000000007FFFE
000000000000000007FFFE
000000000000000007FFFE
000000000000000007FFFE
000000000000000007FFFE
000000000000000007FFFE
000000000000000007FFFE
000000000000000007FFFE
000000000000000007FFFE
000000000000000007FFFE
000000000000000007FFFE
000000000000000007FFFE
000000000000000007FFFE
000000000000000007FFFE
000000000000000007FFFE
000000000000000007FFFE
000000000000000007FFFE
000000000000000007FFFE
000000000000000007FFFE
000000000000000007FFFE
000000000000000007FFFE
000000000000000007FFFE
000000000000000007FFFE
000000000000000007FFFE
000000000000000007FFFE
000000000000000007FFFE
000000000000000007FFFE
000000000000000007FFFE
000000000000000007FFFE
000000000000000007FFFE
000000000000000007FFFE
000000000000000007FFFE
000000000000000007FFFE
000000000000000007FFFE
000000000000000007FFFE
000000000000000007FFFE
000000000000000007FFFE
000000000000000007FFFE
000000000000000007FFFE
000000000000000007FFFE
000000000000000007FFFE
000000000000000007FFFE
000000000000000007FFFE
000000000000000007FFFE
000000000000000007FFFE
000000000000000007FFFE
000000000000000007FFFE
000000000000000007FFFE
000000000000000007FFFE
000000000000000007FFFE
000000000000000007FFFE
000000000000000007FFFE
000000000000000007FFFE
000000000000000007FFFC
000000000000000007FFFC
00000000000000000FFFFC
00000000000000000FFFFC
00000000000000000FFFFC
00000000000000001FFFFC
00000000000000001FFFFC
00000000000000001FFFF8
00000000000000003FFFF8
00000000000000007FFFF8
00000000000000007FFFF8
0000000000000000FFFFF0
0000000000000001FFFFF0
0000000000000003FFFFF0
0000000000000007FFFFE0
000000000000000FFFFFE0
000000000000003FFFFFC0
00000000000000FFFFFFC0
00000000000007FFFFFF80
0000000000007FFFFFFF80
0000000003FFFFFFFFFF00
FFFFFFFFFFFFFFFFFFFE00
FFFFFFFFFFFFFFFFFFFE00
FFFFFFFFFFFFFFFFFFFC00
FFFFFFFFFFFFFFFFFFF800
FFFFFFFFFFFFFFFFFFF000
FFFFFFFFFFFFFFFFFFE000
FFFFFFFFFFFFFFFFFFC000
FFFFFFFFFFFFFFFFFF8000
FFFFFFFFFFFFFFFFFF0000
FFFFFFFFFFFFFFFFFC0000
FFFFFFFFFFFFFFFFF00000
FFFFFFFFFFFFFFFFC00000
FFFFFFFFFFFFFFFF000000
FFFFFFFFFFFFFFF8000000
FFFFFFFFFFFFFFC0000000
FFFFFFFFFFFFFC00000000
FFFFFFFFFFFE0000000000
ENDCHAR
STARTCHAR K
ENCODING 75
SWIDTH 875 0
DWIDTH 120 0
BBX 108 100 9 0
BITMAP
FFFF8000000000000001FFFFFFC0
FFFF8000000000000003FFFFFF00
FFFF800000000000000FFFFFFE00
FFFF800000000000001FFFFFFC00
FFFF800000000000003FFFFFF000
FFFF80000000000000FFFFFFE000
FFFF80000000000001FFFFFFC000
FFFF80000000000003FFFFFF0000
FFFF8000000000000FFFFFFE0000
FFFF8000000000001FFFFFFC0000
FFFF8000000000003FFFFFF00000
FFFF8000000000007FFFFFE00000
FFFF800000000001FFFFFFC00000
FFFF800000000003FFFFFF000000
FFFF800000000007FFFFFE000000
FFFF80000000001FFFFFFC000000
FFFF80000000003FFFFFF0000000
FFFF80000000007FFFFFE0000000
FFFF8000000000FFFFFFC0000000
FFFF8000000003FFFFFF00000000
FFFF8000000007FFFFFE00000000
FFFF800000000FFFFFFC00000000
FFFF800000003FFFFFF000000000
FFFF800000007FFFFFE000000000
FFFF80000000FFFFFFC000000000
FFFF80000003FFFFFF0000000000
FFFF80000007FFFFFE0000000000
FFFF8000000FFFFFF80000000000
FFFF8000001FFFFFF00000000000
FFFF8000007FFFFFE00000000000
FFFF800000FFFFFF800000000000
FFFF800001FFFFFF000000000000
FFFF800007FFFFFE000000000000
FFFF80000FFFFFF8000000000000
FFFF80001FFFFFF0000000000000
FFFF80007FFFFFE0000000000000
FFFF8000FFFFFF80000000000000
FFFF8001FFFFFF00000000000000
FFFF8003FFFFFE00000000000000
FFFF800FFFFFF800000000000000
FFFF801FFFFFF000000000000000
FFFF803FFFFFE000000000000000
FFFF807FFFFF8000000000000000
FFFF80FFFFFF0000000000000000
FFFF81FFFFFE0000000000000000
FFFF81FFFFF80000000000000000
FFFF81FFFFF00000000000000000
FFFF83FFFFE00000000000000000
FFFF83FFFF800000000000000000
FFFF83FFFFC00000000000000000
FFFF83FFFFE00000000000000000
FFFF81FFFFF80000000000000000
FFFF81FFFFFC0000000000000000
FFFF81FFFFFE0000000000000000
FFFF80FFFFFF0000000000000000
FFFF807FFFFFC000000000000000
FFFF801FFFFFE000000000000000
FFFF800FFFFFF000000000000000
FFFF8007FFFFFC00000000000000
FFFF8003FFFFFE00000000000000
FFFF8000FFFFFF00000000000000
FFFF80007FFFFFC0000000000000
FFFF80003FFFFFE0000000000000
FFFF80001FFFFFF0000000000000
FFFF800007FFFFFC000000000000
FFFF800003FFFFFE000000000000
FFFF800001FFFFFF000000000000
FFFF800000FFFFFFC00000000000
FFFF8000003FFFFFE00000000000
FFFF8000001FFFFFF00000000000
FFFF8000000FFFFFFC0000000000
FFFF80000003FFFFFE0000000000
FFFF80000001FFFFFF0000000000
FFFF80000000FFFFFF8000000000
FFFF800000007FFFFFE000000000
FFFF800000001FFFFFF000000000
FFFF800000000FFFFFF800000000
FFFF8000000007FFFFFE00000000
FFFF8000000003FFFFFF00000000
FFFF8000000000FFFFFF80000000
FFFF80000000007FFFFFE0000000
FFFF80000000003FFFFFF0000000
FFFF80000000001FFFFFF8000000
FFFF800000000007FFFFFE000000
FFFF800000000003FFFFFF000000
FFFF800000000001FFFFFF800000
FFFF8000000000007FFFFFE00000
FFFF8000000000003FFFFFF00000
FFFF8000000000001FFFFFF80000
FFFF8000000000000FFFFFFC0000
FFFF80000000000003FFFFFF0000
FFFF80000000000001FFFFFF8000
FFFF80000000000000FFFFFFC000
FFFF800000000000007FFFFFF000
FFFF800000000000001FFFFFF800
FFFF800000000000000FFFFFFC00
FFFF8000000000000007FFFFFF00
FFFF8000000000000003FFFFFF80
FFFF8000000000000000FFFFFFC0
FFFF80000000000000007FFFFFF0
ENDCHAR
STARTCHAR L
ENCODING 76
SWIDTH 707 0
DWIDTH 97 0
BBX 84 100 9 0
BITMAP
FFFF800000000000000000
FFFF800000000000000000
FFFF800000000000000000
FFFF800000000000000000
FFFF800000000000000000
FFFF800000000000000000
FFFF800000000000000000
FFFF800000000000000000
FFFF800000000000000000
FFFF800000000000000000
FFFF800000000000000000
FFFF800000000000000000
FFFF800000000000000000
FFFF800000000000000000
FFFF800000000000000000
FFFF800000000000000000
FFFF800000000000000000
FFFF800000000000000000
FFFF800000000000000000
FFFF800000000000000000
FFFF800000000000000000
FFFF800000000000000000
FFFF800000000000000000
FFFF800000000000000000
FFFF800000000000000000
FFFF800000000000000000
FFFF800000000000000000
FFFF800000000000000000
FFFF800000000000000000
FFFF800000000000000000
FFFF800000000000000000
FFFF800000000000000000
FFFF800000000000000000
FFFF800000000000000000
FFFF800000000000000000
FFFF800000000000000000
FFFF800000000000000000
FFFF800000000000000000
FFFF800000000000000000
FFFF800000000000000000
FFFF800000000000000000
FFFF800000000000000000
FFFF800000000000000000
FFFF800000000000000000
FFFF800000000000000000
FFFF800000000000000000
FFFF800000000000000000
FFFF800000000000000000
FFFF800000000000000000
FFFF800000000000000000
FFFF800000000000000000
FFFF800000000000000000
FFFF800000000000000000
FFFF800000000000000000
FFFF800000000000000000
FFFF800000000000000000
FFFF800000000000000000
FFFF800000000000000000
FFFF800000000000000000
FFFF800000000000000000
FFFF800000000000000000
FFFF800000000000000000
FFFF800000000000000000
FFFF800000000000000000
FFFF800000000000000000
FFFF800000000000000000
FFFF800000000000000000
FFFF800000000000000000
FFFF800000000000000000
FFFF800000000000000000
FFFF800000000000000000
FFFF800000000000000000
FFFF800000000000000000
FFFF800000000000000000
FFFF800000000000000000
FFFF800000000000000000
FFFF800000000000000000
FFFF800000000000000000
FFFF800000000000000000
FFFF800000000000000000
FFFF800000000000000000
FFFF800000000000000000
FFFF800000000000000000
FFFFFFFFFFFFFFFFFFFFF0
FFFFFFFFFFFFFFFFFFFFF0
FFFFFFFFFFFFFFFFFFFFF0
FFFFFFFFFFFFFFFFFFFFF0
FFFFFFFFFFFFFFFFFFFFF0
FFFFFFFFFFFFFFFFFFFFF0
FFFFFFFFFFFFFFFFFFFFF0
FFFFFFFFFFFFFFFFFFFFF0
FFFFFFFFFFFFFFFFFFFFF0
FFFFFFFFFFFFFFFFFFFFF0
FFFFFFFFFFFFFFFFFFFFF0
FFFFFFFFFFFFFFFFFFFFF0
FFFFFFFFFFFFFFFFFFFFF0
FFFFFFFFFFFFFFFFFFFFF0
FFFFFFFFFFFFFFFFFFFFF0
FFFFFFFFFFFFFFFFFFFFF0
FFFFFFFFFFFFFFFFFFFFF0
ENDCHAR
STARTCHAR M
ENCODING 77
SWIDTH 1115 0
DWIDTH 153 0
BBX 147 102 3 -2
BITMAP
00000001FC000000000000000003F000000000
00000007FF00000000000000000FFC00000000
0000000FFF80000000000000001FFE00000000
0000001FFFC0000000000000003FFF00000000
0000001FFFE0000000000000007FFF00000000
0000003FFFE0000000000000007FFF80000000
0000003FFFF000000000000000FFFF80000000
0000003FFFF000000000000000FFFFC0000000
0000007FFFF000000000000000FFFFC0000000
0000007FFFF800000000000001FFFFC0000000
0000007FFFF800000000000001FFFFC0000000
0000007FFFFC00000000000003FFFFE0000000
000000FFFFFC00000000000003FFFFE0000000
000000FFFFFE00000000000007FFFFE0000000
000000FFFFFE00000000000007FFFFE0000000
000000FFFFFF0000000000000FFFFFF0000000
000001FFFFFF0000000000000FFFFFF0000000
000001FFFFFF0000000000000FFFFFF0000000
000001FFFFFF8000000000001FFFFFF8000000
000003FFFFFF8000000000001FFFFFF8000000
000003FFFFFFC000000000003FFFFFF8000000
000003FFFFFFC000000000003FFFFFF8000000
000003FFFFFFE000000000007FFFFFFC000000
000007FFFFFFE000000000007FFFFFFC000000
000007FFFFFFE00000000000FFFFFFFC000000
000007FFFFFFF00000000000FFFFFFFC000000
000007FFFFFFF00000000000FFFFFFFE000000
00000FFFFFFFF80000000001FFFFFFFE000000
00000FFFFFFFF80000000001FFFFFFFE000000
00000FFFFFFFFC0000000003FFFFFFFF000000
00001FFFFFFFFC0000000003FFFFFFFF000000
00001FFFF7FFFE0000000007FFFDFFFF000000
00001FFFF7FFFE0000000007FFFDFFFF000000
00001FFFF3FFFE0000000007FFF9FFFF800000
00003FFFE3FFFF000000000FFFF8FFFF800000
00003FFFE3FFFF000000000FFFF8FFFF800000
00003FFFE1FFFF800000001FFFF0FFFF800000
00003FFFE1FFFF800000001FFFF0FFFFC00000
00007FFFC0FFFFC00000003FFFE07FFFC00000
00007FFFC0FFFFC00000003FFFE07FFFC00000
00007FFFC07FFFE00000007FFFC07FFFE00000
0000FFFFC07FFFE00000007FFFC03FFFE00000
0000FFFF803FFFE00000007FFF803FFFE00000
0000FFFF803FFFF0000000FFFF803FFFE00000
0000FFFF803FFFF0000000FFFF803FFFF00000
0001FFFF001FFFF8000001FFFF001FFFF00000
0001FFFF001FFFF8000001FFFF001FFFF00000
0001FFFF000FFFFC000003FFFE001FFFF00000
0003FFFF000FFFFC000003FFFE001FFFF80000
0003FFFE0007FFFC000003FFFC000FFFF80000
0003FFFE0007FFFE000007FFFC000FFFF80000
0003FFFE0003FFFE000007FFF8000FFFFC0000
0007FFFE0003FFFF00000FFFF80007FFFC0000
0007FFFC0003FFFF00000FFFF80007FFFC0000
0007FFFC0001FFFF80001FFFF00007FFFC0000
0007FFFC0001FFFF80001FFFF00007FFFE0000
000FFFF80000FFFFC0003FFFE00003FFFE0000
000FFFF80000FFFFC0003FFFE00003FFFE0000
000FFFF800007FFFC0003FFFC00003FFFF0000
001FFFF800007FFFE0007FFFC00003FFFF0000
001FFFF000007FFFE0007FFFC00001FFFF0000
001FFFF000003FFFF000FFFF800001FFFF0000
001FFFF000003FFFF000FFFF800001FFFF8000
003FFFE000001FFFF801FFFF000000FFFF8000
003FFFE000001FFFF801FFFF000000FFFF8000
003FFFE000000FFFF803FFFE000000FFFF8000
003FFFE000000FFFFC03FFFE000000FFFFC000
007FFFC0000007FFFC03FFFC0000007FFFC000
007FFFC0000007FFFE07FFFC0000007FFFC000
007FFFC0000007FFFE07FFFC0000007FFFE000
00FFFFC0000003FFFF0FFFF80000007FFFE000
00FFFF80000003FFFF0FFFF80000003FFFE000
00FFFF80000001FFFF9FFFF00000003FFFE000
00FFFF80000001FFFF9FFFF00000003FFFF000
01FFFF00000000FFFF9FFFE00000001FFFF000
01FFFF00000000FFFFFFFFE00000001FFFF000
01FFFF00000000FFFFFFFFC00000001FFFF000
03FFFF000000007FFFFFFFC00000001FFFF800
03FFFE000000007FFFFFFFC00000000FFFF800
03FFFE000000003FFFFFFF800000000FFFF800
03FFFE000000003FFFFFFF800000000FFFFC00
07FFFE000000001FFFFFFF0000000007FFFC00
07FFFC000000001FFFFFFF0000000007FFFC00
07FFFC000000000FFFFFFE0000000007FFFC00
07FFFC000000000FFFFFFE0000000007FFFE00
0FFFF8000000000FFFFFFE0000000003FFFE00
0FFFF80000000007FFFFFC0000000003FFFE00
0FFFF80000000007FFFFFC0000000003FFFE00
1FFFF80000000003FFFFF80000000003FFFF00
1FFFF00000000003FFFFF80000000001FFFF00
1FFFF00000000001FFFFF00000000001FFFF00
1FFFF00000000001FFFFF00000000001FFFF80
3FFFE00000000001FFFFE00000000000FFFF80
3FFFE00000000000FFFFE00000000000FFFF80
3FFFE00000000000FFFFE00000000000FFFF80
3FFFE000000000007FFFC00000000000FFFFC0
7FFFC000000000007FFFC000000000007FFFC0
7FFFC000000000003FFF8000000000007FFFC0
7FFFC000000000001FFF0000000000007FFFC0
FFFFC000000000000FFE0000000000007FFFE0
000000000000000007FC000000000000000000
00000000000000000040000000000000000000
ENDCHAR
STARTCHAR N
ENCODING 78
SWIDTH 873 0
DWIDTH 120 0
BBX 103 100 8 0
BITMAP
03F0000000000000000001FFFE
0FFC000000000000000001FFFE
1FFE000000000000000001FFFE
3FFF000000000000000001FFFE
7FFFC00000000000000001FFFE
7FFFE00000000000000001FFFE
7FFFF00000000000000001FFFE
FFFFF80000000000000001FFFE
FFFFFC0000000000000001FFFE
FFFFFE0000000000000001FFFE
FFFFFF0000000000000001FFFE
FFFFFF8000000000000001FFFE
FFFFFFC000000000000001FFFE
FFFFFFE000000000000001FFFE
FFFFFFF000000000000001FFFE
FFFFFFF800000000000001FFFE
FFFFFFFC00000000000001FFFE
FFFFFFFE00000000000001FFFE
FFFFFFFF00000000000001FFFE
FFFFFFFF80000000000001FFFE
FFFFFFFFC0000000000001FFFE
FFFFFFFFE0000000000001FFFE
FFFFFFFFF0000000000001FFFE
FFFFFFFFF8000000000001FFFE
FFFFFFFFFC000000000001FFFE
FFFFFFFFFE000000000001FFFE
FFFFFFFFFF000000000001FFFE
FFFFFFFFFF800000000001FFFE
FFFFFFFFFFC00000000001FFFE
FFFFBFFFFFE00000000001FFFE
FFFF9FFFFFF00000000001FFFE
FFFF8FFFFFF80000000001FFFE
FFFF87FFFFFC0000000001FFFE
FFFF83FFFFFE0000000001FFFE
FFFF81FFFFFF0000000001FFFE
FFFF807FFFFF8000000001FFFE
FFFF803FFFFFC000000001FFFE
FFFF801FFFFFE000000001FFFE
FFFF800FFFFFF000000001FFFE
FFFF8007FFFFF800000001FFFE
FFFF8003FFFFFC00000001FFFE
FFFF8001FFFFFE00000001FFFE
FFFF8000FFFFFF00000001FFFE
FFFF80007FFFFF80000001FFFE
FFFF80003FFFFFC0000001FFFE
FFFF80001FFFFFE0000001FFFE
FFFF80000FFFFFF0000001FFFE
FFFF800007FFFFF8000001FFFE
FFFF800003FFFFFC000001FFFE
FFFF800001FFFFFE000001FFFE
FFFF800000FFFFFF000001FFFE
FFFF8000007FFFFF800001FFFE
FFFF8000003FFFFFC00001FFFE
FFFF8000001FFFFFE00001FFFE
FFFF8000000FFFFFF00001FFFE
FFFF80000007FFFFF80001FFFE
FFFF80000003FFFFFC0001FFFE
FFFF80000001FFFFFE0001FFFE
FFFF80000000FFFFFF0001FFFE
FFFF800000007FFFFF8001FFFE
FFFF800000003FFFFFC001FFFE
FFFF800000001FFFFFE001FFFE
FFFF800000000FFFFFF001FFFE
FFFF8000000007FFFFF801FFFE
FFFF8000000003FFFFFC01FFFE
FFFF8000000001FFFFFE01FFFE
FFFF8000000000FFFFFF01FFFE
FFFF80000000007FFFFF81FFFE
FFFF80000000003FFFFFC1FFFE
FFFF80000000001FFFFFE1FFFE
FFFF80000000000FFFFFF1FFFE
FFFF800000000007FFFFF9FFFE
FFFF800000000003FFFFFFFFFE
FFFF800000000001FFFFFFFFFE
FFFF800000000000FFFFFFFFFE
FFFF8000000000007FFFFFFFFE
FFFF8000000000003FFFFFFFFE
FFFF8000000000001FFFFFFFFE
FFFF8000000000000FFFFFFFFE
FFFF80000000000007FFFFFFFE
FFFF80000000000001FFFFFFFE
FFFF80000000000000FFFFFFFE
FFFF800000000000007FFFFFFE
FFFF800000000000003FFFFFFE
FFFF800000000000001FFFFFFE
FFFF800000000000000FFFFFFE
FFFF8000000000000007FFFFFE
FFFF8000000000000003FFFFFE
FFFF8000000000000001FFFFFE
FFFF8000000000000000FFFFFE
FFFF80000000000000007FFFFE
FFFF80000000000000003FFFFE
FFFF80000000000000001FFFFE
FFFF80000000000000000FFFFE
FFFF800000000000000007FFFE
FFFF800000000000000003FFFC
FFFF800000000000000001FFFC
FFFF800000000000000000FFF8
FFFF8000000000000000007FF0
FFFF8000000000000000000FC0
ENDCHAR
STARTCHAR O
ENCODING 79
SWIDTH 968 0
DWIDTH 133 0
BBX 121 100 6 0
BITMAP
00000000007FFFFFFFFF000000000000
000000001FFFFFFFFFFFFC0000000000
00000000FFFFFFFFFFFFFF8000000000
00000007FFFFFFFFFFFFFFF000000000
0000001FFFFFFFFFFFFFFFFC00000000
000000FFFFFFFFFFFFFFFFFF00000000
000001FFFFFFFFFFFFFFFFFFC0000000
000007FFFFFFFFFFFFFFFFFFF0000000
00001FFFFFFFFFFFFFFFFFFFF8000000
00003FFFFFFFFFFFFFFFFFFFFE000000
00007FFFFFFFFFFFFFFFFFFFFF000000
0000FFFFFFFFFFFFFFFFFFFFFF800000
0003FFFFFFFFFFFFFFFFFFFFFFC00000
0007FFFFFFFFFFFFFFFFFFFFFFE00000
000FFFFFFFFFFFFFFFFFFFFFFFF00000
000FFFFFFFFFFFFFFFFFFFFFFFF80000
001FFFFFFFFFFFFFFFFFFFFFFFFC0000
003FFFFFFFFE0000007FFFFFFFFE0000
007FFFFFFF00000000007FFFFFFF0000
00FFFFFFF800000000000FFFFFFF0000
00FFFFFFC0000000000003FFFFFF8000
01FFFFFF00000000000000FFFFFFC000
03FFFFFE000000000000003FFFFFC000
03FFFFF8000000000000001FFFFFE000
07FFFFF00000000000000007FFFFE000
07FFFFE00000000000000003FFFFF000
0FFFFFC00000000000000001FFFFF000
0FFFFF800000000000000000FFFFF800
0FFFFF0000000000000000007FFFF800
1FFFFE0000000000000000007FFFFC00
1FFFFE0000000000000000003FFFFC00
3FFFFC0000000000000000001FFFFC00
3FFFF80000000000000000001FFFFE00
3FFFF80000000000000000000FFFFE00
3FFFF00000000000000000000FFFFE00
7FFFF000000000000000000007FFFF00
7FFFF000000000000000000007FFFF00
7FFFE000000000000000000003FFFF00
7FFFE000000000000000000003FFFF00
FFFFE000000000000000000003FFFF00
FFFFC000000000000000000001FFFF80
FFFFC000000000000000000001FFFF80
FFFFC000000000000000000001FFFF80
FFFFC000000000000000000001FFFF80
FFFF8000000000000000000001FFFF80
FFFF8000000000000000000001FFFF80
FFFF8000000000000000000000FFFF80
FFFF8000000000000000000000FFFF80
FFFF8000000000000000000000FFFF80
FFFF8000000000000000000000FFFF80
FFFF8000000000000000000000FFFF80
FFFF8000000000000000000000FFFF80
FFFF8000000000000000000000FFFF80
FFFF8000000000000000000000FFFF80
FFFF8000000000000000000001FFFF80
FFFFC000000000000000000001FFFF80
FFFFC000000000000000000001FFFF80
FFFFC000000000000000000001FFFF80
FFFFC000000000000000000001FFFF00
7FFFC000000000000000000003FFFF00
7FFFE000000000000000000003FFFF00
7FFFE000000000000000000003FFFF00
7FFFE000000000000000000003FFFF00
3FFFF000000000000000000007FFFE00
3FFFF000000000000000000007FFFE00
3FFFF80000000000000000000FFFFE00
3FFFF80000000000000000000FFFFC00
1FFFFC0000000000000000001FFFFC00
1FFFFC0000000000000000001FFFFC00
1FFFFE0000000000000000003FFFF800
0FFFFF0000000000000000007FFFF800
0FFFFF000000000000000000FFFFF800
07FFFF800000000000000000FFFFF000
07FFFFC00000000000000001FFFFF000
03FFFFE00000000000000003FFFFE000
03FFFFF0000000000000000FFFFFE000
01FFFFFC000000000000001FFFFFC000
01FFFFFE000000000000003FFFFF8000
00FFFFFF80000000000000FFFFFF8000
007FFFFFC0000000000003FFFFFF0000
007FFFFFF800000000000FFFFFFE0000
003FFFFFFF00000000007FFFFFFE0000
001FFFFFFFFE0000007FFFFFFFFC0000
000FFFFFFFFFFFFFFFFFFFFFFFF80000
0007FFFFFFFFFFFFFFFFFFFFFFF00000
0003FFFFFFFFFFFFFFFFFFFFFFE00000
0001FFFFFFFFFFFFFFFFFFFFFFC00000
0000FFFFFFFFFFFFFFFFFFFFFF800000
00007FFFFFFFFFFFFFFFFFFFFF000000
00003FFFFFFFFFFFFFFFFFFFFE000000
00001FFFFFFFFFFFFFFFFFFFFC000000
000007FFFFFFFFFFFFFFFFFFF0000000
000003FFFFFFFFFFFFFFFFFFE0000000
000000FFFFFFFFFFFFFFFFFF80000000
0000003FFFFFFFFFFFFFFFFE00000000
0000000FFFFFFFFFFFFFFFF800000000
00000003FFFFFFFFFFFFFFE000000000
00000000FFFFFFFFFFFFFF0000000000
000000000FFFFFFFFFFFF80000000000
00000000007FFFFFFFFF000000000000
ENDCHAR
STARTCHAR P
ENCODING 80
SWIDTH 867 0
DWIDTH 119 0
BBX 106 100 9 0
BITMAP
FFFFFFFFFFFFFFFFFFF800000000
FFFFFFFFFFFFFFFFFFFFC0000000
FFFFFFFFFFFFFFFFFFFFF8000000
FFFFFFFFFFFFFFFFFFFFFE000000
FFFFFFFFFFFFFFFFFFFFFF800000
FFFFFFFFFFFFFFFFFFFFFFE00000
FFFFFFFFFFFFFFFFFFFFFFF80000
FFFFFFFFFFFFFFFFFFFFFFFC0000
FFFFFFFFFFFFFFFFFFFFFFFE0000
FFFFFFFFFFFFFFFFFFFFFFFF0000
FFFFFFFFFFFFFFFFFFFFFFFF8000
FFFFFFFFFFFFFFFFFFFFFFFFC000
FFFFFFFFFFFFFFFFFFFFFFFFE000
FFFFFFFFFFFFFFFFFFFFFFFFF000
FFFFFFFFFFFFFFFFFFFFFFFFF000
FFFFFFFFFFFFFFFFFFFFFFFFF800
FFFFFFFFFFFFFFFFFFFFFFFFFC00
FFFF80000000000003FFFFFFFC00
FFFF8000000000000007FFFFFE00
FFFF8000000000000000FFFFFE00
FFFF80000000000000007FFFFE00
FFFF80000000000000001FFFFF00
FFFF80000000000000000FFFFF00
FFFF800000000000000007FFFF00
FFFF800000000000000003FFFF80
FFFF800000000000000003FFFF80
FFFF800000000000000001FFFF80
FFFF800000000000000001FFFF80
FFFF800000000000000000FFFFC0
FFFF800000000000000000FFFFC0
FFFF800000000000000000FFFFC0
FFFF8000000000000000007FFFC0
FFFF8000000000000000007FFFC0
FFFF8000000000000000007FFFC0
FFFF8000000000000000007FFFC0
FFFF8000000000000000007FFFC0
FFFF8000000000000000007FFFC0
FFFF8000000000000000007FFFC0
FFFF8000000000000000007FFFC0
FFFF8000000000000000007FFFC0
FFFF8000000000000000007FFFC0
FFFF800000000000000000FFFFC0
FFFF800000000000000000FFFFC0
FFFF800000000000000000FFFF80
FFFF800000000000000001FFFF80
FFFF800000000000000001FFFF80
FFFF800000000000000003FFFF80
FFFF800000000000000003FFFF80
FFFF800000000000000007FFFF00
FFFF80000000000000000FFFFF00
FFFF80000000000000001FFFFF00
FFFF80000000000000003FFFFE00
FFFF8000000000000000FFFFFE00
FFFF8000000000000003FFFFFC00
FFFF800000000000001FFFFFFC00
FFFF8003FFFFFFFFFFFFFFFFF800
FFFF8003FFFFFFFFFFFFFFFFF800
FFFF8003FFFFFFFFFFFFFFFFF000
FFFF8003FFFFFFFFFFFFFFFFF000
FFFF8003FFFFFFFFFFFFFFFFE000
FFFF8003FFFFFFFFFFFFFFFFC000
FFFF8003FFFFFFFFFFFFFFFF8000
FFFF8003FFFFFFFFFFFFFFFF0000
FFFF8003FFFFFFFFFFFFFFFE0000
FFFF8003FFFFFFFFFFFFFFFC0000
FFFF8003FFFFFFFFFFFFFFF80000
FFFF8003FFFFFFFFFFFFFFE00000
FFFF8003FFFFFFFFFFFFFFC00000
FFFF8003FFFFFFFFFFFFFF000000
FFFF8003FFFFFFFFFFFFFC000000
FFFF8003FFFFFFFFFFFFE0000000
FFFF8003FFFFFFFFFFFE00000000
FFFF800000000000000000000000
FFFF800000000000000000000000
FFFF800000000000000000000000
FFFF800000000000000000000000
FFFF800000000000000000000000
FFFF800000000000000000000000
FFFF800000000000000000000000
FFFF800000000000000000000000
FFFF800000000000000000000000
FFFF800000000000000000000000
FFFF800000000000000000000000
FFFF800000000000000000000000
FFFF800000000000000000000000
FFFF800000000000000000000000
FFFF800000000000000000000000
FFFF800000000000000000000000
FFFF800000000000000000000000
FFFF800000000000000000000000
FFFF800000000000000000000000
FFFF800000000000000000000000
FFFF800000000000000000000000
FFFF800000000000000000000000
FFFF800000000000000000000000
FFFF800000000000000000000000
FFFF800000000000000000000000
FFFF800000000000000000000000
FFFF800000000000000000000000
FFFF800000000000000000000000
ENDCHAR
STARTCHAR Q
ENCODING 81
SWIDTH 968 0
DWIDTH 133 0
BBX 126 100 6 0
BITMAP
00000000007FFFFFFFFF000000000000
000000001FFFFFFFFFFFFC0000000000
00000000FFFFFFFFFFFFFF8000000000
00000007FFFFFFFFFFFFFFF000000000
0000001FFFFFFFFFFFFFFFFC00000000
000000FFFFFFFFFFFFFFFFFF00000000
000001FFFFFFFFFFFFFFFFFFC0000000
000007FFFFFFFFFFFFFFFFFFF0000000
00001FFFFFFFFFFFFFFFFFFFF8000000
00003FFFFFFFFFFFFFFFFFFFFE000000
00007FFFFFFFFFFFFFFFFFFFFF000000
0000FFFFFFFFFFFFFFFFFFFFFF800000
0003FFFFFFFFFFFFFFFFFFFFFFC00000
0007FFFFFFFFFFFFFFFFFFFFFFE00000
000FFFFFFFFFFFFFFFFFFFFFFFF00000
000FFFFFFFFFFFFFFFFFFFFFFFF80000
001FFFFFFFFFFFFFFFFFFFFFFFFC0000
003FFFFFFFFE0000007FFFFFFFFE0000
007FFFFFFF00000000007FFFFFFF0000
00FFFFFFF800000000000FFFFFFF0000
00FFFFFFC0000000000003FFFFFF8000
01FFFFFF00000000000000FFFFFFC000
03FFFFFE000000000000003FFFFFC000
03FFFFF8000000000000001FFFFFE000
07FFFFF00000000000000007FFFFE000
07FFFFE00000000000000003FFFFF000
0FFFFFC00000000000000001FFFFF000
0FFFFF800000000000000000FFFFF800
0FFFFF0000000000000000007FFFF800
1FFFFE0000000000000000007FFFFC00
1FFFFE0000000000000000003FFFFC00
3FFFFC0000000000000000001FFFFC00
3FFFF80000000000000000001FFFFE00
3FFFF80000000000000000000FFFFE00
3FFFF00000000000000000000FFFFE00
7FFFF000000000000000000007FFFF00
7FFFF000000000000000000007FFFF00
7FFFE000000000000000000003FFFF00
7FFFE000000000000000000003FFFF00
FFFFE000000000000000000003FFFF00
FFFFC000000000000000000001FFFF80
FFFFC000000000000000000001FFFF80
FFFFC000000000000000000001FFFF80
FFFFC000000000000000000001FFFF80
FFFF8000000000000000000001FFFF80
FFFF8000000000000000000001FFFF80
FFFF8000000000000000000000FFFF80
FFFF8000000000000000000000FFFF80
FFFF8000000000000000000000FFFF80
FFFF8000000000000000000000FFFF80
FFFF8000000000000000000000FFFF80
FFFF8000000000000000000000FFFF80
FFFF8000000000000000000000FFFF80
FFFF8000000000000000000000FFFF80
FFFF8000000000000000000001FFFF80
FFFFC000000000000000000001FFFF80
FFFFC000000000000000000001FFFF80
FFFFC000000000000000000001FFFF80
FFFFC000000008000000000001FFFF00
7FFFC000000007FFFFF0000003FFFF00
7FFFE000000003FFFFF8000003FFFF00
7FFFE000000000FFFFFC000003FFFF00
7FFFE0000000007FFFFF000003FFFF00
3FFFF0000000003FFFFF800007FFFE00
3FFFF0000000001FFFFFC00007FFFE00
3FFFF80000000007FFFFE0000FFFFE00
3FFFF80000000003FFFFF0000FFFFE00
1FFFFC0000000001FFFFFC001FFFFC00
1FFFFC00000000007FFFFE001FFFFC00
1FFFFE00000000003FFFFF003FFFFC00
0FFFFF00000000001FFFFF807FFFF800
0FFFFF00000000000FFFFFC0FFFFF800
07FFFF800000000003FFFFE0FFFFF000
07FFFFC00000000001FFFFF9FFFFF000
03FFFFE00000000000FFFFFFFFFFE000
03FFFFF000000000007FFFFFFFFFE000
01FFFFFC00000000001FFFFFFFFFC000
01FFFFFE00000000000FFFFFFFFFC000
00FFFFFF800000000007FFFFFFFF8000
007FFFFFC00000000003FFFFFFFF0000
007FFFFFF80000000000FFFFFFFF0000
003FFFFFFF00000000007FFFFFFE0000
001FFFFFFFFE0000007FFFFFFFFC0000
000FFFFFFFFFFFFFFFFFFFFFFFF80000
0007FFFFFFFFFFFFFFFFFFFFFFF00000
0003FFFFFFFFFFFFFFFFFFFFFFE00000
0001FFFFFFFFFFFFFFFFFFFFFFF00000
0000FFFFFFFFFFFFFFFFFFFFFFFC0000
00007FFFFFFFFFFFFFFFFFFFFFFE0000
00003FFFFFFFFFFFFFFFFFFFFFFF0000
00001FFFFFFFFFFFFFFFFFFFFFFFC000
000007FFFFFFFFFFFFFFFFFFFFFFE000
000003FFFFFFFFFFFFFFFFFFFFFFF000
000000FFFFFFFFFFFFFFFFFFFFFFFC00
0000003FFFFFFFFFFFFFFFFEFFFFFE00
0000000FFFFFFFFFFFFFFFF83FFFFF00
00000003FFFFFFFFFFFFFFE01FFFFF80
00000000FFFFFFFFFFFFFF000FFFFFE0
000000000FFFFFFFFFFFF80007FFFFF0
00000000007FFFFFFFFE000003FFFFFC
ENDCHAR
STARTCHAR R
ENCODING 82
SWIDTH 921 0
DWIDTH 126 0
BBX 117 100 9 0
BITMAP
FFFFFFFFFFFFFFFFFFFC0000000000
FFFFFFFFFFFFFFFFFFFFE000000000
FFFFFFFFFFFFFFFFFFFFFC00000000
FFFFFFFFFFFFFFFFFFFFFF80000000
FFFFFFFFFFFFFFFFFFFFFFE0000000
FFFFFFFFFFFFFFFFFFFFFFF0000000
FFFFFFFFFFFFFFFFFFFFFFFC000000
FFFFFFFFFFFFFFFFFFFFFFFE000000
FFFFFFFFFFFFFFFFFFFFFFFF000000
FFFFFFFFFFFFFFFFFFFFFFFF800000
FFFFFFFFFFFFFFFFFFFFFFFFC00000
FFFFFFFFFFFFFFFFFFFFFFFFE00000
FFFFFFFFFFFFFFFFFFFFFFFFF00000
FFFFFFFFFFFFFFFFFFFFFFFFF80000
FFFFFFFFFFFFFFFFFFFFFFFFF80000
FFFFFFFFFFFFFFFFFFFFFFFFFC0000
FFFFFFFFFFFFFFFFFFFFFFFFFE0000
FFFF80000000000000FFFFFFFE0000
FFFF8000000000000001FFFFFF0000
FFFF80000000000000007FFFFF0000
FFFF80000000000000001FFFFF8000
FFFF80000000000000000FFFFF8000
FFFF800000000000000007FFFF8000
FFFF800000000000000003FFFFC000
FFFF800000000000000001FFFFC000
FFFF800000000000000000FFFFC000
FFFF800000000000000000FFFFC000
FFFF8000000000000000007FFFE000
FFFF8000000000000000007FFFE000
FFFF8000000000000000007FFFE000
FFFF8000000000000000003FFFE000
FFFF8000000000000000003FFFE000
FFFF8000000000000000003FFFE000
FFFF8000000000000000003FFFE000
FFFF8000000000000000003FFFE000
FFFF8000000000000000003FFFE000
FFFF8000000000000000003FFFE000
FFFF8000000000000000003FFFE000
FFFF8000000000000000003FFFE000
FFFF8000000000000000003FFFE000
FFFF8000000000000000003FFFE000
FFFF8000000000000000003FFFE000
FFFF8000000000000000003FFFE000
FFFF8000000000000000007FFFE000
FFFF8000000000000000007FFFE000
FFFF8000000000000000007FFFE000
FFFF8000000000000000007FFFC000
FFFF800000000000000000FFFFC000
FFFF800000000000000000FFFFC000
FFFF800000000000000001FFFF8000
FFFF800000000000000003FFFF8000
FFFF800000000000000003FFFF8000
FFFF800000000000000007FFFF0000
FFFF80000000000000000FFFFF0000
FFFF80000000000000003FFFFE0000
FFFF8000000000000000FFFFFE0000
FFFF800000000000000FFFFFFC0000
FFFF8003FFFFFFFFFFFFFFFFFC0000
FFFF8003FFFFFFFFFFFFFFFFF80000
FFFF8003FFFFFFFFFFFFFFFFF00000
FFFF8003FFFFFFFFFFFFFFFFF00000
FFFF8003FFFFFFFFFFFFFFFFE00000
FFFF8003FFFFFFFFFFFFFFFFC00000
FFFF8003FFFFFFFFFFFFFFFF800000
FFFF8003FFFFFFFFFFFFFFFF000000
FFFF8003FFFFFFFFFFFFFFFC000000
FFFF8003FFFFFFFFFFFFFFF8000000
FFFF8003FFFFFFFFFFFFFFE0000000
FFFF8003FFFFFFFFFFFFFF80000000
FFFF8003FFFFFFFFFFFFFE00000000
FFFF8003FFFFFFFFFFFFFF00000000
FFFF8003FFFFFFFFFFFFFF80000000
FFFF8000000000001FFFFFC0000000
FFFF8000000000000FFFFFE0000000
FFFF80000000000007FFFFF0000000
FFFF80000000000003FFFFF8000000
FFFF80000000000001FFFFFC000000
FFFF80000000000000FFFFFE000000
FFFF800000000000007FFFFF000000
FFFF800000000000003FFFFF800000
FFFF800000000000001FFFFFC00000
FFFF800000000000001FFFFFE00000
FFFF800000000000000FFFFFF00000
FFFF8000000000000007FFFFF80000
FFFF8000000000000003FFFFFC0000
FFFF8000000000000001FFFFFE0000
FFFF8000000000000000FFFFFF0000
FFFF80000000000000007FFFFF0000
FFFF80000000000000003FFFFF8000
FFFF80000000000000001FFFFFC000
FFFF80000000000000000FFFFFE000
FFFF80000000000000000FFFFFF000
FFFF800000000000000007FFFFF800
FFFF800000000000000003FFFFFC00
FFFF800000000000000001FFFFFE00
FFFF800000000000000000FFFFFF00
FFFF8000000000000000007FFFFF80
FFFF8000000000000000003FFFFFC0
FFFF8000000000000000001FFFFFE0
FFFF8000000000000000000FFFFFF8
ENDCHAR
STARTCHAR S
ENCODING 83
SWIDTH 880 0
DWIDTH 121 0
BBX 107 100 7 0
BITMAP
000000FFFFFFFFFFFFFFFFFFFC00
00000FFFFFFFFFFFFFFFFFFFFC00
00007FFFFFFFFFFFFFFFFFFFFC00
0001FFFFFFFFFFFFFFFFFFFFFC00
0007FFFFFFFFFFFFFFFFFFFFFC00
001FFFFFFFFFFFFFFFFFFFFFFC00
003FFFFFFFFFFFFFFFFFFFFFFC00
007FFFFFFFFFFFFFFFFFFFFFFC00
00FFFFFFFFFFFFFFFFFFFFFFFC00
01FFFFFFFFFFFFFFFFFFFFFFFC00
03FFFFFFFFFFFFFFFFFFFFFFFC00
07FFFFFFFFFFFFFFFFFFFFFFFC00
0FFFFFFFFFFFFFFFFFFFFFFFFC00
0FFFFFFFFFFFFFFFFFFFFFFFFC00
1FFFFFFFFFFFFFFFFFFFFFFFFC00
1FFFFFFFFFFFFFFFFFFFFFFFFC00
3FFFFFFFFFFFFFFFFFFFFFFFFC00
3FFFFFFC00000000000000000000
3FFFFF8000000000000000000000
7FFFFE0000000000000000000000
7FFFFC0000000000000000000000
7FFFF80000000000000000000000
7FFFF00000000000000000000000
FFFFE00000000000000000000000
FFFFE00000000000000000000000
FFFFE00000000000000000000000
FFFFE00000000000000000000000
FFFFC00000000000000000000000
FFFFC00000000000000000000000
FFFFC00000000000000000000000
FFFFC00000000000000000000000
FFFFC00000000000000000000000
FFFFC00000000000000000000000
7FFFE00000000000000000000000
7FFFE00000000000000000000000
7FFFE00000000000000000000000
7FFFF00000000000000000000000
7FFFF00000000000000000000000
3FFFF80000000000000000000000
3FFFFC0000000000000000000000
1FFFFF0000000000000000000000
1FFFFFE000000000000000000000
1FFFFFFFFFFFFFFFFFFFF0000000
0FFFFFFFFFFFFFFFFFFFFF800000
07FFFFFFFFFFFFFFFFFFFFF00000
07FFFFFFFFFFFFFFFFFFFFFC0000
03FFFFFFFFFFFFFFFFFFFFFF0000
01FFFFFFFFFFFFFFFFFFFFFF8000
00FFFFFFFFFFFFFFFFFFFFFFE000
007FFFFFFFFFFFFFFFFFFFFFF000
003FFFFFFFFFFFFFFFFFFFFFF800
001FFFFFFFFFFFFFFFFFFFFFFC00
0007FFFFFFFFFFFFFFFFFFFFFC00
0001FFFFFFFFFFFFFFFFFFFFFE00
00007FFFFFFFFFFFFFFFFFFFFF00
00000FFFFFFFFFFFFFFFFFFFFF00
000000FFFFFFFFFFFFFFFFFFFF80
000000000000000000007FFFFF80
000000000000000000000FFFFF80
0000000000000000000003FFFFC0
0000000000000000000001FFFFC0
0000000000000000000000FFFFC0
00000000000000000000007FFFC0
00000000000000000000003FFFE0
00000000000000000000003FFFE0
00000000000000000000003FFFE0
00000000000000000000001FFFE0
00000000000000000000001FFFE0
00000000000000000000001FFFE0
00000000000000000000001FFFE0
00000000000000000000001FFFE0
00000000000000000000001FFFE0
00000000000000000000001FFFE0
00000000000000000000003FFFE0
00000000000000000000003FFFE0
00000000000000000000003FFFE0
00000000000000000000007FFFE0
0000000000000000000000FFFFE0
0000000000000000000000FFFFC0
0000000000000000000003FFFFC0
0000000000000000000007FFFFC0
000000000000000000001FFFFFC0
00000000000000000007FFFFFF80
3FFFFFFFFFFFFFFFFFFFFFFFFF80
3FFFFFFFFFFFFFFFFFFFFFFFFF00
3FFFFFFFFFFFFFFFFFFFFFFFFF00
3FFFFFFFFFFFFFFFFFFFFFFFFE00
3FFFFFFFFFFFFFFFFFFFFFFFFE00
3FFFFFFFFFFFFFFFFFFFFFFFFC00
3FFFFFFFFFFFFFFFFFFFFFFFFC00
3FFFFFFFFFFFFFFFFFFFFFFFF800
3FFFFFFFFFFFFFFFFFFFFFFFF000
3FFFFFFFFFFFFFFFFFFFFFFFE000
3FFFFFFFFFFFFFFFFFFFFFFFC000
3FFFFFFFFFFFFFFFFFFFFFFF0000
3FFFFFFFFFFFFFFFFFFFFFFE0000
3FFFFFFFFFFFFFFFFFFFFFF80000
3FFFFFFFFFFFFFFFFFFFFFE00000
3FFFFFFFFFFFFFFFFFFFFF000000
3FFFFFFFFFFFFFFFFFFFE0000000
ENDCHAR
STARTCHAR T
ENCODING 84
SWIDTH 720 0
DWIDTH 99 0
BBX 93 100 3 0
BITMAP
FFFFFFFFFFFFFFFFFFFFFFF8
FFFFFFFFFFFFFFFFFFFFFFF8
FFFFFFFFFFFFFFFFFFFFFFF8
FFFFFFFFFFFFFFFFFFFFFFF8
FFFFFFFFFFFFFFFFFFFFFFF8
FFFFFFFFFFFFFFFFFFFFFFF8
FFFFFFFFFFFFFFFFFFFFFFF8
FFFFFFFFFFFFFFFFFFFFFFF8
FFFFFFFFFFFFFFFFFFFFFFF8
FFFFFFFFFFFFFFFFFFFFFFF8
FFFFFFFFFFFFFFFFFFFFFFF8
FFFFFFFFFFFFFFFFFFFFFFF8
FFFFFFFFFFFFFFFFFFFFFFF8
FFFFFFFFFFFFFFFFFFFFFFF8
FFFFFFFFFFFFFFFFFFFFFFF8
FFFFFFFFFFFFFFFFFFFFFFF8
FFFFFFFFFFFFFFFFFFFFFFF8
0000000003FFFE0000000000
0000000003FFFE0000000000
0000000003FFFE0000000000
0000000003FFFE0000000000
0000000003FFFE0000000000
0000000003FFFE0000000000
0000000003FFFE0000000000
0000000003FFFE0000000000
0000000003FFFE0000000000
0000000003FFFE0000000000
0000000003FFFE0000000000
0000000003FFFE0000000000
0000000003FFFE0000000000
0000000003FFFE0000000000
0000000003FFFE0000000000
0000000003FFFE0000000000
0000000003FFFE0000000000
0000000003FFFE0000000000
0000000003FFFE0000000000
0000000003FFFE0000000000
0000000003FFFE0000000000
0000000003FFFE0000000000
0000000003FFFE0000000000
0000000003FFFE0000000000
0000000003FFFE0000000000
0000000003FFFE0000000000
0000000003FFFE0000000000
0000000003FFFE0000000000
0000000003FFFE0000000000
0000000003FFFE0000000000
0000000003FFFE0000000000
0000000003FFFE0000000000
0000000003FFFE0000000000
0000000003FFFE0000000000
0000000003FFFE0000000000
0000000003FFFE0000000000
0000000003FFFE0000000000
0000000003FFFE0000000000
0000000003FFFE0000000000
0000000003FFFE0000000000
0000000003FFFE0000000000
0000000003FFFE0000000000
0000000003FFFE0000000000
0000000003FFFE0000000000
0000000003FFFE0000000000
0000000003FFFE0000000000
0000000003FFFE0000000000
0000000003FFFE0000000000
0000000003FFFE0000000000
0000000003FFFE0000000000
0000000003FFFE0000000000
0000000003FFFE0000000000
0000000003FFFE0000000000
0000000003FFFE0000000000
0000000003FFFE0000000000
0000000003FFFE0000000000
0000000003FFFE0000000000
0000000003FFFE0000000000
0000000003FFFE0000000000
0000000003FFFE0000000000
0000000003FFFE0000000000
0000000003FFFE0000000000
0000000003FFFE0000000000
0000000003FFFE0000000000
0000000003FFFE0000000000
0000000003FFFE0000000000
0000000003FFFE0000000000
0000000003FFFE0000000000
0000000003FFFE0000000000
0000000003FFFE0000000000
0000000003FFFE0000000000
0000000003FFFE0000000000
0000000003FFFE0000000000
0000000003FFFE0000000000
0000000003FFFE0000000000
0000000003FFFE0000000000
0000000003FFFE0000000000
0000000003FFFE0000000000
0000000003FFFE0000000000
0000000003FFFE0000000000
0000000003FFFE0000000000
0000000003FFFE0000000000
0000000003FFFE0000000000
ENDCHAR
STARTCHAR U
ENCODING 85
SWIDTH 889 0
DWIDTH 122 0
BBX 108 101 7 -1
BITMAP
FFFFC000000000000000001FFFF0
FFFFC000000000000000001FFFF0
FFFFC000000000000000001FFFF0
FFFFC000000000000000001FFFF0
FFFFC000000000000000001FFFF0
FFFFC000000000000000001FFFF0
FFFFC000000000000000001FFFF0
FFFFC000000000000000001FFFF0
FFFFC000000000000000001FFFF0
FFFFC000000000000000001FFFF0
FFFFC000000000000000001FFFF0
FFFFC000000000000000001FFFF0
FFFFC000000000000000001FFFF0
FFFFC000000000000000001FFFF0
FFFFC000000000000000001FFFF0
FFFFC000000000000000001FFFF0
FFFFC000000000000000001FFFF0
FFFFC000000000000000001FFFF0
FFFFC000000000000000001FFFF0
FFFFC000000000000000001FFFF0
FFFFC000000000000000001FFFF0
FFFFC000000000000000001FFFF0
FFFFC000000000000000001FFFF0
FFFFC000000000000000001FFFF0
FFFFC000000000000000001FFFF0
FFFFC000000000000000001FFFF0
FFFFC000000000000000001FFFF0
FFFFC000000000000000001FFFF0
FFFFC000000000000000001FFFF0
FFFFC000000000000000001FFFF0
FFFFC000000000000000001FFFF0
FFFFC000000000000000001FFFF0
FFFFC000000000000000001FFFF0
FFFFC000000000000000001FFFF0
FFFFC000000000000000001FFFF0
FFFFC000000000000000001FFFF0
FFFFC000000000000000001FFFF0
FFFFC000000000000000001FFFF0
FFFFC000000000000000001FFFF0
FFFFC000000000000000001FFFF0
FFFFC000000000000000001FFFF0
FFFFC000000000000000001FFFF0
FFFFC000000000000000001FFFF0
FFFFC000000000000000001FFFF0
FFFFC000000000000000001FFFF0
FFFFC000000000000000001FFFF0
FFFFC000000000000000001FFFF0
FFFFC000000000000000001FFFF0
FFFFC000000000000000001FFFF0
FFFFC000000000000000001FFFF0
FFFFC000000000000000001FFFF0
FFFFC000000000000000001FFFF0
FFFFC000000000000000001FFFF0
FFFFC000000000000000001FFFF0
FFFFC000000000000000001FFFF0
FFFFC000000000000000001FFFF0
FFFFC000000000000000001FFFF0
FFFFC000000000000000001FFFF0
FFFFC000000000000000001FFFF0
FFFFC000000000000000001FFFF0
FFFFC000000000000000003FFFF0
FFFFC000000000000000003FFFE0
FFFFC000000000000000003FFFE0
FFFFE000000000000000003FFFE0
7FFFE000000000000000003FFFE0
7FFFE000000000000000003FFFE0
7FFFE000000000000000007FFFE0
7FFFF000000000000000007FFFE0
7FFFF000000000000000007FFFE0
7FFFF00000000000000000FFFFC0
3FFFF80000000000000000FFFFC0
3FFFF80000000000000000FFFFC0
3FFFFC0000000000000001FFFFC0
3FFFFC0000000000000003FFFF80
1FFFFE0000000000000003FFFF80
1FFFFF0000000000000007FFFF80
1FFFFF800000000000000FFFFF80
0FFFFFC00000000000001FFFFF00
0FFFFFE00000000000007FFFFF00
07FFFFF8000000000000FFFFFE00
07FFFFFE000000000003FFFFFE00
03FFFFFFC0000000001FFFFFFC00
03FFFFFFF800000001FFFFFFFC00
01FFFFFFFFF000007FFFFFFFF800
01FFFFFFFFFFFFFFFFFFFFFFF000
00FFFFFFFFFFFFFFFFFFFFFFF000
007FFFFFFFFFFFFFFFFFFFFFE000
003FFFFFFFFFFFFFFFFFFFFFC000
001FFFFFFFFFFFFFFFFFFFFF8000
000FFFFFFFFFFFFFFFFFFFFF0000
0007FFFFFFFFFFFFFFFFFFFE0000
0003FFFFFFFFFFFFFFFFFFFC0000
0001FFFFFFFFFFFFFFFFFFF00000
00007FFFFFFFFFFFFFFFFFE00000
00001FFFFFFFFFFFFFFFFF800000
00000FFFFFFFFFFFFFFFFE000000
000001FFFFFFFFFFFFFFF8000000
0000007FFFFFFFFFFFFFE0000000
0000000FFFFFFFFFFFFE00000000
00000000FFFFFFFFFFE000000000
0000000003FFFFFFFC0000000000
ENDCHAR
STARTCHAR V
ENCODING 86
SWIDTH 989 0
DWIDTH 136 0
BBX 131 102 2 -2
BITMAP
FFFFF80000000000000000000001FFFFE0
7FFFFC0000000000000000000001FFFFE0
7FFFFE0000000000000000000003FFFFC0
3FFFFE0000000000000000000007FFFF80
1FFFFF0000000000000000000007FFFF80
1FFFFF000000000000000000000FFFFF00
0FFFFF800000000000000000000FFFFF00
0FFFFFC00000000000000000001FFFFE00
07FFFFC00000000000000000003FFFFC00
03FFFFE00000000000000000003FFFFC00
03FFFFE00000000000000000007FFFF800
01FFFFF00000000000000000007FFFF800
01FFFFF0000000000000000000FFFFF000
00FFFFF8000000000000000000FFFFE000
007FFFFC000000000000000001FFFFE000
007FFFFC000000000000000003FFFFC000
003FFFFE000000000000000003FFFFC000
003FFFFE000000000000000007FFFF8000
001FFFFF000000000000000007FFFF0000
000FFFFF80000000000000000FFFFF0000
000FFFFF80000000000000001FFFFE0000
0007FFFFC0000000000000001FFFFE0000
0007FFFFC0000000000000003FFFFC0000
0003FFFFE0000000000000003FFFF80000
0001FFFFF0000000000000007FFFF80000
0001FFFFF0000000000000007FFFF00000
0000FFFFF800000000000000FFFFF00000
0000FFFFF800000000000001FFFFE00000
00007FFFFC00000000000001FFFFC00000
00003FFFFC00000000000003FFFFC00000
00003FFFFE00000000000003FFFF800000
00001FFFFF00000000000007FFFF800000
00001FFFFF0000000000000FFFFF000000
00000FFFFF8000000000000FFFFE000000
000007FFFF8000000000001FFFFE000000
000007FFFFC000000000001FFFFC000000
000003FFFFE000000000003FFFFC000000
000003FFFFE000000000003FFFF8000000
000001FFFFF000000000007FFFF0000000
000000FFFFF00000000000FFFFF0000000
000000FFFFF80000000000FFFFE0000000
0000007FFFF80000000001FFFFE0000000
0000007FFFFC0000000001FFFFC0000000
0000003FFFFE0000000003FFFF80000000
0000003FFFFE0000000007FFFF80000000
0000001FFFFF0000000007FFFF00000000
0000000FFFFF000000000FFFFF00000000
0000000FFFFF800000000FFFFE00000000
00000007FFFFC00000001FFFFC00000000
00000007FFFFC00000001FFFFC00000000
00000003FFFFE00000003FFFF800000000
00000001FFFFE00000007FFFF800000000
00000001FFFFF00000007FFFF000000000
00000000FFFFF0000000FFFFE000000000
00000000FFFFF8000000FFFFE000000000
000000007FFFFC000001FFFFC000000000
000000003FFFFC000003FFFFC000000000
000000003FFFFE000003FFFF8000000000
000000001FFFFE000007FFFF0000000000
000000001FFFFF000007FFFF0000000000
000000000FFFFF80000FFFFE0000000000
0000000007FFFF80001FFFFE0000000000
0000000007FFFFC0001FFFFC0000000000
0000000003FFFFC0003FFFF80000000000
0000000003FFFFE0003FFFF80000000000
0000000001FFFFF0007FFFF00000000000
0000000000FFFFF0007FFFF00000000000
0000000000FFFFF800FFFFE00000000000
00000000007FFFF801FFFFC00000000000
00000000007FFFFC01FFFFC00000000000
00000000003FFFFC03FFFF800000000000
00000000001FFFFE03FFFF800000000000
00000000001FFFFF07FFFF000000000000
00000000000FFFFF0FFFFE000000000000
00000000000FFFFF8FFFFE000000000000
000000000007FFFF9FFFFC000000000000
000000000003FFFFDFFFFC000000000000
000000000003FFFFFFFFF8000000000000
000000000001FFFFFFFFF0000000000000
000000000001FFFFFFFFF0000000000000
000000000000FFFFFFFFE0000000000000
0000000000007FFFFFFFE0000000000000
0000000000007FFFFFFFC0000000000000
0000000000003FFFFFFF80000000000000
0000000000003FFFFFFF80000000000000
0000000000001FFFFFFF00000000000000
0000000000000FFFFFFF00000000000000
0000000000000FFFFFFE00000000000000
00000000000007FFFFFC00000000000000
00000000000007FFFFFC00000000000000
00000000000003FFFFF800000000000000
00000000000001FFFFF800000000000000
00000000000001FFFFF000000000000000
00000000000000FFFFE000000000000000
00000000000000FFFFE000000000000000
000000000000007FFFC000000000000000
000000000000003FFFC000000000000000
000000000000003FFF8000000000000000
000000000000001FFF0000000000000000
000000000000000FFE0000000000000000
0000000000000007FC0000000000000000
0000000000000000400000000000000000
ENDCHAR
STARTCHAR W
ENCODING 87
SWIDTH 1268 0
DWIDTH 174 0
BBX 170 101 2 -1
BITMAP
FFFFF80000003FFFFE00000000000000000003FFFFC0
7FFFFC0000001FFFFF00000000000000000007FFFF80
7FFFFC0000001FFFFF00000000000000000007FFFF00
3FFFFE0000000FFFFF8000000000000000000FFFFF00
3FFFFE00000007FFFF8000000000000000000FFFFE00
1FFFFF00000007FFFFC000000000000000001FFFFE00
1FFFFF00000003FFFFC000000000000000001FFFFC00
0FFFFF80000003FFFFE000000000000000003FFFFC00
0FFFFF80000001FFFFE000000000000000003FFFF800
07FFFFC0000001FFFFF000000000000000007FFFF800
03FFFFC0000000FFFFF000000000000000007FFFF000
03FFFFE0000000FFFFF80000000000000000FFFFE000
01FFFFE00000007FFFF80000000000000000FFFFE000
01FFFFF00000007FFFFC0000000000000001FFFFC000
00FFFFF00000003FFFFC0000000000000001FFFFC000
00FFFFF80000003FFFFE0000000000000003FFFF8000
007FFFF80000001FFFFE0000000000000007FFFF8000
007FFFFC0000001FFFFF0000000000000007FFFF0000
003FFFFC0000000FFFFF000000000000000FFFFF0000
003FFFFE0000000FFFFF800000000000000FFFFE0000
001FFFFE00000007FFFF800000000000001FFFFE0000
000FFFFF00000007FFFFC00000000000001FFFFC0000
000FFFFF80000003FFFFC00000000000003FFFFC0000
0007FFFF80000003FFFFE00000000000003FFFF80000
0007FFFFC0000001FFFFE00000000000007FFFF00000
0003FFFFC0000001FFFFF00000000000007FFFF00000
0003FFFFE0000000FFFFF0000000000000FFFFE00000
0001FFFFE0000000FFFFF8000000000000FFFFE00000
0001FFFFF00000007FFFF8000000000001FFFFC00000
0000FFFFF00000007FFFFC000000000001FFFFC00000
0000FFFFF80000003FFFFC000000000003FFFF800000
00007FFFF80000003FFFFE000000000003FFFF800000
00007FFFFC0000001FFFFE000000000007FFFF000000
00003FFFFC0000000FFFFF000000000007FFFF000000
00001FFFFE0000000FFFFF00000000000FFFFE000000
00001FFFFE00000007FFFF80000000001FFFFE000000
00000FFFFF00000007FFFF80000000001FFFFC000000
00000FFFFF00000003FFFFC0000000003FFFF8000000
000007FFFF80000003FFFFC0000000003FFFF8000000
000007FFFF80000001FFFFE0000000007FFFF0000000
000003FFFFC0000001FFFFE0000000007FFFF0000000
000003FFFFC0000000FFFFF000000000FFFFE0000000
000001FFFFE0000000FFFFF000000000FFFFE0000000
000001FFFFF00000007FFFF800000001FFFFC0000000
000000FFFFF00000007FFFF800000001FFFFC0000000
000000FFFFF80000003FFFFC00000003FFFF80000000
0000007FFFF80000003FFFFC00000003FFFF80000000
0000003FFFFC0000001FFFFE00000007FFFF00000000
0000003FFFFC0000001FFFFE00000007FFFF00000000
0000001FFFFE0000000FFFFF0000000FFFFE00000000
0000001FFFFE0000000FFFFF0000000FFFFC00000000
0000000FFFFF0000001FFFFF8000001FFFFC00000000
0000000FFFFF0000001FFFFF8000003FFFF800000000
00000007FFFF8000003FFFFFC000003FFFF800000000
00000007FFFF8000003FFFFFC000007FFFF000000000
00000003FFFFC000007FFFFFE000007FFFF000000000
00000003FFFFC00000FFFFFFE00000FFFFE000000000
00000001FFFFE00000FFFFFFF00000FFFFE000000000
00000001FFFFE00001FFFFFFF00001FFFFC000000000
00000000FFFFF00001FFFFFFF80001FFFFC000000000
000000007FFFF00003FFFFFFF80003FFFF8000000000
000000007FFFF80003FFFFFFFC0003FFFF8000000000
000000003FFFF80007FFFFFFFC0007FFFF0000000000
000000003FFFFC0007FFFFFFFE0007FFFE0000000000
000000001FFFFE000FFFFFFFFE000FFFFE0000000000
000000001FFFFE001FFFFFFFFF000FFFFC0000000000
000000000FFFFF001FFFFFFFFF001FFFFC0000000000
000000000FFFFF003FFFF7FFFF801FFFF80000000000
0000000007FFFF803FFFF3FFFF803FFFF80000000000
0000000007FFFF807FFFE3FFFFC03FFFF00000000000
0000000003FFFFC07FFFE1FFFFC07FFFF00000000000
0000000003FFFFC0FFFFC1FFFFE0FFFFE00000000000
0000000001FFFFE1FFFFC0FFFFE0FFFFE00000000000
0000000000FFFFE1FFFF80FFFFF1FFFFC00000000000
0000000000FFFFF3FFFF807FFFF1FFFFC00000000000
00000000007FFFF3FFFF003FFFFBFFFF800000000000
00000000007FFFFFFFFF003FFFFBFFFF000000000000
00000000003FFFFFFFFE001FFFFFFFFF000000000000
00000000003FFFFFFFFE001FFFFFFFFE000000000000
00000000001FFFFFFFFC000FFFFFFFFE000000000000
00000000001FFFFFFFF8000FFFFFFFFC000000000000
00000000000FFFFFFFF80007FFFFFFFC000000000000
00000000000FFFFFFFF00007FFFFFFF8000000000000
000000000007FFFFFFF00003FFFFFFF8000000000000
000000000007FFFFFFE00003FFFFFFF0000000000000
000000000003FFFFFFE00001FFFFFFF0000000000000
000000000001FFFFFFC00001FFFFFFE0000000000000
000000000001FFFFFFC00000FFFFFFC0000000000000
000000000000FFFFFF800000FFFFFFC0000000000000
000000000000FFFFFF8000007FFFFF80000000000000
0000000000007FFFFF0000007FFFFF80000000000000
0000000000007FFFFF0000003FFFFF00000000000000
0000000000003FFFFE0000001FFFFF00000000000000
0000000000003FFFFE0000001FFFFE00000000000000
0000000000001FFFFC0000000FFFFE00000000000000
0000000000001FFFF80000000FFFFC00000000000000
0000000000000FFFF800000007FFFC00000000000000
00000000000007FFF000000007FFF800000000000000
00000000000003FFE000000003FFF000000000000000
00000000000001FFC000000000FFC000000000000000
000000000000007F00000000003F0000000000000000
ENDCHAR
STARTCHAR X
ENCODING 88
SWIDTH 1000 0
DWIDTH 137 0
BBX 130 100 3 0
BITMAP
0FFFFFF0000000000000000001FFFFFC00
07FFFFF8000000000000000003FFFFF000
03FFFFFC000000000000000007FFFFE000
01FFFFFE00000000000000000FFFFFC000
00FFFFFF00000000000000001FFFFF8000
003FFFFF80000000000000003FFFFF0000
001FFFFFE0000000000000007FFFFE0000
000FFFFFF000000000000000FFFFFC0000
0007FFFFF800000000000001FFFFF80000
0003FFFFFC00000000000003FFFFF00000
0001FFFFFE00000000000007FFFFE00000
0000FFFFFF0000000000000FFFFFC00000
00007FFFFF8000000000001FFFFF800000
00003FFFFFC000000000003FFFFF000000
00001FFFFFE00000000000FFFFFE000000
00000FFFFFF00000000001FFFFFC000000
000007FFFFF80000000003FFFFF8000000
000003FFFFFC0000000007FFFFF0000000
000001FFFFFE000000000FFFFFE0000000
000000FFFFFF000000001FFFFFC0000000
0000007FFFFF800000003FFFFF80000000
0000003FFFFFC00000007FFFFF00000000
0000001FFFFFE0000000FFFFFE00000000
0000000FFFFFF0000001FFFFFC00000000
00000007FFFFF8000003FFFFF000000000
00000003FFFFFC000007FFFFE000000000
00000001FFFFFE00000FFFFFC000000000
00000000FFFFFF00001FFFFF8000000000
000000007FFFFF80003FFFFF0000000000
000000003FFFFFC0007FFFFE0000000000
000000001FFFFFE000FFFFFC0000000000
000000000FFFFFF001FFFFF80000000000
0000000007FFFFF803FFFFF00000000000
0000000003FFFFFC07FFFFE00000000000
0000000001FFFFFE0FFFFFC00000000000
0000000000FFFFFF1FFFFF800000000000
00000000003FFFFFBFFFFF000000000000
00000000001FFFFFFFFFFE000000000000
00000000000FFFFFFFFFFC000000000000
000000000007FFFFFFFFF8000000000000
000000000003FFFFFFFFF0000000000000
000000000001FFFFFFFFE0000000000000
000000000000FFFFFFFFC0000000000000
0000000000007FFFFFFF80000000000000
0000000000003FFFFFFF00000000000000
0000000000001FFFFFFE00000000000000
0000000000000FFFFFFC00000000000000
00000000000007FFFFF800000000000000
00000000000007FFFFF800000000000000
0000000000000FFFFFFC00000000000000
0000000000001FFFFFFE00000000000000
0000000000003FFFFFFF00000000000000
0000000000007FFFFFFF80000000000000
000000000000FFFFFFFFC0000000000000
000000000001FFFFFFFFE0000000000000
000000000003FFFFFFFFF0000000000000
000000000007FFFFFFFFF8000000000000
00000000000FFFFFFFFFFC000000000000
00000000001FFFFFFFFFFE000000000000
00000000003FFFFFFFFFFF000000000000
00000000007FFFFE7FFFFF800000000000
0000000000FFFFFC3FFFFFC00000000000
0000000001FFFFF81FFFFFE00000000000
0000000003FFFFF00FFFFFF00000000000
000000000FFFFFE007FFFFF80000000000
000000001FFFFFC003FFFFFC0000000000
000000003FFFFF8000FFFFFE0000000000
000000007FFFFF00007FFFFF0000000000
00000000FFFFFE00003FFFFF8000000000
00000001FFFFFC00001FFFFFC000000000
00000003FFFFF800000FFFFFF000000000
00000007FFFFF0000007FFFFF800000000
0000000FFFFFE0000003FFFFFC00000000
0000001FFFFF80000001FFFFFE00000000
0000003FFFFF00000000FFFFFF00000000
0000007FFFFE000000007FFFFF80000000
000000FFFFFC000000003FFFFFC0000000
000001FFFFF8000000001FFFFFE0000000
000003FFFFF0000000000FFFFFF0000000
000007FFFFE00000000007FFFFF8000000
00000FFFFFC00000000003FFFFFC000000
00001FFFFF800000000001FFFFFE000000
00003FFFFF000000000000FFFFFF000000
00007FFFFE0000000000007FFFFF800000
0000FFFFFC0000000000003FFFFFC00000
0001FFFFF80000000000001FFFFFE00000
0003FFFFF00000000000000FFFFFF00000
0007FFFFE000000000000007FFFFF80000
000FFFFFC000000000000003FFFFFC0000
001FFFFF8000000000000001FFFFFE0000
003FFFFF0000000000000000FFFFFF0000
007FFFFE00000000000000007FFFFF8000
00FFFFFC00000000000000003FFFFFC000
01FFFFF800000000000000001FFFFFE000
03FFFFF000000000000000000FFFFFF000
07FFFFE0000000000000000007FFFFF800
0FFFFFC0000000000000000003FFFFFE00
1FFFFF80000000000000000001FFFFFF00
3FFFFF00000000000000000000FFFFFF80
FFFFFE000000000000000000007FFFFFC0
ENDCHAR
STARTCHAR Y
ENCODING 89
SWIDTH 926 0
DWIDTH 127 0
BBX 123 100 2 0
BITMAP
FFFFFF0000000000000000000FFFFFE0
7FFFFF0000000000000000000FFFFFC0
3FFFFF8000000000000000001FFFFF80
1FFFFFC000000000000000003FFFFF00
0FFFFFE000000000000000007FFFFE00
0FFFFFF00000000000000000FFFFFC00
07FFFFF80000000000000001FFFFFC00
03FFFFFC0000000000000001FFFFF800
01FFFFFC0000000000000003FFFFF000
00FFFFFE0000000000000007FFFFE000
007FFFFF000000000000000FFFFFC000
003FFFFF800000000000001FFFFF8000
003FFFFFC00000000000003FFFFF0000
001FFFFFE00000000000007FFFFF0000
000FFFFFE00000000000007FFFFE0000
0007FFFFF0000000000000FFFFFC0000
0003FFFFF8000000000001FFFFF80000
0001FFFFFC000000000003FFFFF00000
0000FFFFFE000000000007FFFFE00000
0000FFFFFF00000000000FFFFFC00000
00007FFFFF00000000000FFFFFC00000
00003FFFFF80000000001FFFFF800000
00001FFFFFC0000000003FFFFF000000
00000FFFFFE0000000007FFFFE000000
000007FFFFF000000000FFFFFC000000
000003FFFFF800000001FFFFF8000000
000003FFFFFC00000003FFFFF0000000
000001FFFFFC00000003FFFFF0000000
000000FFFFFE00000007FFFFE0000000
0000007FFFFF0000000FFFFFC0000000
0000003FFFFF8000001FFFFF80000000
0000001FFFFFC000003FFFFF00000000
0000001FFFFFE000007FFFFE00000000
0000000FFFFFE000007FFFFC00000000
00000007FFFFF00000FFFFFC00000000
00000003FFFFF80001FFFFF800000000
00000001FFFFFC0003FFFFF000000000
00000000FFFFFE0007FFFFE000000000
000000007FFFFF000FFFFFC000000000
000000007FFFFF000FFFFF8000000000
000000003FFFFF801FFFFF0000000000
000000001FFFFFC03FFFFF0000000000
000000000FFFFFE07FFFFE0000000000
0000000007FFFFF0FFFFFC0000000000
0000000003FFFFF9FFFFF80000000000
0000000001FFFFFFFFFFF00000000000
0000000001FFFFFFFFFFE00000000000
0000000000FFFFFFFFFFE00000000000
00000000007FFFFFFFFFC00000000000
00000000003FFFFFFFFF800000000000
00000000001FFFFFFFFF000000000000
00000000000FFFFFFFFE000000000000
000000000007FFFFFFFC000000000000
000000000007FFFFFFF8000000000000
000000000003FFFFFFF8000000000000
000000000001FFFFFFF0000000000000
000000000000FFFFFFE0000000000000
0000000000007FFFFFC0000000000000
0000000000003FFFFF80000000000000
0000000000003FFFFF00000000000000
0000000000001FFFFE00000000000000
0000000000000FFFFE00000000000000
00000000000007FFFC00000000000000
00000000000007FFFC00000000000000
00000000000007FFFC00000000000000
00000000000007FFFC00000000000000
00000000000007FFFC00000000000000
00000000000007FFFC00000000000000
00000000000007FFFC00000000000000
00000000000007FFFC00000000000000
00000000000007FFFC00000000000000
00000000000007FFFC00000000000000
00000000000007FFFC00000000000000
00000000000007FFFC00000000000000
00000000000007FFFC00000000000000
00000000000007FFFC00000000000000
00000000000007FFFC00000000000000
00000000000007FFFC00000000000000
00000000000007FFFC00000000000000
00000000000007FFFC00000000000000
00000000000007FFFC00000000000000
00000000000007FFFC00000000000000
00000000000007FFFC00000000000000
00000000000007FFFC00000000000000
00000000000007FFFC00000000000000
00000000000007FFFC00000000000000
00000000000007FFFC00000000000000
00000000000007FFFC00000000000000
00000000000007FFFC00000000000000
00000000000007FFFC00000000000000
00000000000007FFFC00000000000000
00000000000007FFFC00000000000000
00000000000007FFFC00000000000000
00000000000007FFFC00000000000000
00000000000007FFFC00000000000000
00000000000007FFFC00000000000000
00000000000007FFFC00000000000000
00000000000007FFFC00000000000000
00000000000007FFFC00000000000000
00000000000007FFFC00000000000000
ENDCHAR
STARTCHAR Z
ENCODING 90
SWIDTH 802 0
DWIDTH 110 0
BBX 99 100 5 0
BITMAP
3FFFFFFFFFFFFFFFFFFFFFF000
3FFFFFFFFFFFFFFFFFFFFFFE00
3FFFFFFFFFFFFFFFFFFFFFFF00
3FFFFFFFFFFFFFFFFFFFFFFF80
3FFFFFFFFFFFFFFFFFFFFFFFC0
3FFFFFFFFFFFFFFFFFFFFFFFC0
3FFFFFFFFFFFFFFFFFFFFFFFC0
3FFFFFFFFFFFFFFFFFFFFFFFE0
3FFFFFFFFFFFFFFFFFFFFFFFE0
3FFFFFFFFFFFFFFFFFFFFFFFE0
3FFFFFFFFFFFFFFFFFFFFFFFE0
3FFFFFFFFFFFFFFFFFFFFFFFC0
3FFFFFFFFFFFFFFFFFFFFFFFC0
3FFFFFFFFFFFFFFFFFFFFFFF80
3FFFFFFFFFFFFFFFFFFFFFFF80
3FFFFFFFFFFFFFFFFFFFFFFF00
3FFFFFFFFFFFFFFFFFFFFFFE00
000000000000000003FFFFFC00
000000000000000007FFFFF800
00000000000000000FFFFFF000
00000000000000001FFFFFE000
00000000000000003FFFFFC000
00000000000000007FFFFF8000
0000000000000000FFFFFF0000
0000000000000001FFFFFE0000
0000000000000003FFFFFC0000
0000000000000007FFFFF80000
000000000000000FFFFFF00000
000000000000001FFFFFE00000
000000000000003FFFFFC00000
000000000000007FFFFF800000
00000000000000FFFFFF000000
00000000000001FFFFFE000000
00000000000003FFFFFC000000
00000000000007FFFFF8000000
0000000000000FFFFFF0000000
0000000000001FFFFFE0000000
0000000000003FFFFFC0000000
0000000000007FFFFF80000000
000000000000FFFFFF00000000
000000000001FFFFFE00000000
000000000003FFFFFC00000000
000000000007FFFFF800000000
00000000000FFFFFF000000000
00000000001FFFFFE000000000
00000000003FFFFFC000000000
00000000007FFFFF8000000000
0000000000FFFFFF0000000000
0000000001FFFFFE0000000000
0000000003FFFFFC0000000000
0000000007FFFFF80000000000
000000000FFFFFF00000000000
000000001FFFFFE00000000000
000000003FFFFFC00000000000
000000007FFFFF800000000000
00000000FFFFFF000000000000
00000001FFFFFE000000000000
00000003FFFFFC000000000000
00000007FFFFF8000000000000
0000000FFFFFF0000000000000
0000001FFFFFE0000000000000
0000003FFFFFC0000000000000
0000007FFFFF80000000000000
000000FFFFFF00000000000000
000001FFFFFE00000000000000
000003FFFFFC00000000000000
000007FFFFF800000000000000
00000FFFFFF000000000000000
00001FFFFFE000000000000000
00003FFFFFC000000000000000
00007FFFFF8000000000000000
0000FFFFFF0000000000000000
0001FFFFFE0000000000000000
0003FFFFFC0000000000000000
0007FFFFF80000000000000000
000FFFFFF00000000000000000
001FFFFFE00000000000000000
003FFFFFC00000000000000000
007FFFFF800000000000000000
00FFFFFF000000000000000000
01FFFFFE000000000000000000
03FFFFFC000000000000000000
07FFFFF8000000000000000000
0FFFFFFFFFFFFFFFFFFFFFFFC0
1FFFFFFFFFFFFFFFFFFFFFFFC0
3FFFFFFFFFFFFFFFFFFFFFFFC0
3FFFFFFFFFFFFFFFFFFFFFFFC0
7FFFFFFFFFFFFFFFFFFFFFFFC0
7FFFFFFFFFFFFFFFFFFFFFFFC0
7FFFFFFFFFFFFFFFFFFFFFFFC0
FFFFFFFFFFFFFFFFFFFFFFFFC0
FFFFFFFFFFFFFFFFFFFFFFFFC0
7FFFFFFFFFFFFFFFFFFFFFFFC0
7FFFFFFFFFFFFFFFFFFFFFFFC0
7FFFFFFFFFFFFFFFFFFFFFFFC0
7FFFFFFFFFFFFFFFFFFFFFFFC0
3FFFFFFFFFFFFFFFFFFFFFFFC0
1FFFFFFFFFFFFFFFFFFFFFFFC0
07FFFFFFFFFFFFFFFFFFFFFFC0
01FFFFFFFFFFFFFFFFFFFFFFC0
ENDCHAR
STARTCHAR bracketleft
ENCODING 91
SWIDTH 333 0
DWIDTH 46 0
BBX 23 126 14 -12
BITMAP
FFFFFE
FFFFFE
FFFFFE
FFFFFE
FFFFFE
FFFFFE
FFFFFE
FFFFFE
FFFFFE
FFFFFE
FFFFFE
FFE000
FFE000
FFE000
FFE000
FFE000
FFE000
FFE000
FFE000
FFE000
FFE000
FFE000
FFE000
FFE000
FFE000
FFE000
FFE000
FFE000
FFE000
FFE000
FFE000
FFE000
FFE000
FFE000
FFE000
FFE000
FFE000
FFE000
FFE000
FFE000
FFE000
FFE000
FFE000
FFE000
FFE000
FFE000
FFE000
FFE000
FFE000
FFE000
FFE000
FFE000
FFE000
FFE000
FFE000
FFE000
FFE000
FFE000
FFE000
FFE000
FFE000
FFE000
FFE000
FFE000
FFE000
FFE000
FFE000
FFE000
FFE000
FFE000
FFE000
FFE000
FFE000
FFE000
FFE000
FFE000
FFE000
FFE000
FFE000
FFE000
FFE000
FFE000
FFE000
FFE000
FFE000
FFE000
FFE000
FFE000
FFE000
FFE000
FFE000
FFE000
FFE000
FFE000
FFE000
FFE000
FFE000
FFE000
FFE000
FFE000
FFE000
FFE000
FFE000
FFE000
FFE000
FFE000
FFE000
FFE000
FFE000
FFE000
FFE000
FFE000
FFE000
FFE000
FFE000
FFFFFE
FFFFFE
FFFFFE
FFFFFE
FFFFFE
FFFFFE
FFFFFE
FFFFFE
FFFFFE
FFFFFE
FFFFFE
ENDCHAR
STARTCHAR backslash
ENCODING 92
SWIDTH 445 0
DWIDTH 61 0
BBX 59 100 1 0
BITMAP
FFF0000000000000
7FF8000000000000
3FF8000000000000
3FFC000000000000
3FFC000000000000
1FFC000000000000
1FFE000000000000
0FFE000000000000
0FFF000000000000
07FF000000000000
07FF800000000000
03FF800000000000
03FFC00000000000
01FFC00000000000
01FFE00000000000
00FFE00000000000
00FFF00000000000
00FFF00000000000
007FF80000000000
007FF80000000000
003FF80000000000
003FFC0000000000
001FFC0000000000
001FFE0000000000
000FFE0000000000
000FFF0000000000
0007FF0000000000
0007FF8000000000
0003FF8000000000
0003FFC000000000
0003FFC000000000
0001FFE000000000
0001FFE000000000
0000FFF000000000
0000FFF000000000
00007FF000000000
00007FF800000000
00003FF800000000
00003FFC00000000
00001FFC00000000
00001FFE00000000
00000FFE00000000
00000FFF00000000
00000FFF00000000
000007FF80000000
000007FF80000000
000003FFC0000000
000003FFC0000000
000001FFE0000000
000001FFE0000000
000000FFE0000000
000000FFF0000000
0000007FF0000000
0000007FF8000000
0000003FF8000000
0000003FFC000000
0000003FFC000000
0000001FFE000000
0000001FFE000000
0000000FFF000000
0000000FFF000000
00000007FF800000
00000007FF800000
00000003FFC00000
00000003FFC00000
00000001FFC00000
00000001FFE00000
00000000FFE00000
00000000FFF00000
00000000FFF00000
000000007FF80000
000000007FF80000
000000003FFC0000
000000003FFC0000
000000001FFE0000
000000001FFE0000
000000000FFF0000
000000000FFF0000
0000000007FF8000
0000000007FF8000
0000000003FF8000
0000000003FFC000
0000000003FFC000
0000000001FFE000
0000000001FFE000
0000000000FFF000
0000000000FFF000
00000000007FF800
00000000007FF800
00000000003FFC00
00000000003FFC00
00000000001FFE00
00000000001FFE00
00000000000FFF00
00000000000FFF00
00000000000FFF00
000000000007FF80
000000000007FF80
000000000003FFC0
000000000003FFE0
ENDCHAR
STARTCHAR bracketright
ENCODING 93
SWIDTH 333 0
DWIDTH 46 0
BBX 23 126 9 -12
BITMAP
FFFFFE
FFFFFE
FFFFFE
FFFFFE
FFFFFE
FFFFFE
FFFFFE
FFFFFE
FFFFFE
FFFFFE
FFFFFE
000FFE
000FFE
000FFE
000FFE
000FFE
000FFE
000FFE
000FFE
000FFE
000FFE
000FFE
000FFE
000FFE
000FFE
000FFE
000FFE
000FFE
000FFE
000FFE
000FFE
000FFE
000FFE
000FFE
000FFE
000FFE
000FFE
000FFE
000FFE
000FFE
000FFE
000FFE
000FFE
000FFE
000FFE
000FFE
000FFE
000FFE
000FFE
000FFE
000FFE
000FFE
000FFE
000FFE
000FFE
000FFE
000FFE
000FFE
000FFE
000FFE
000FFE
000FFE
000FFE
000FFE
000FFE
000FFE
000FFE
000FFE
000FFE
000FFE
000FFE
000FFE
000FFE
000FFE
000FFE
000FFE
000FFE
000FFE
000FFE
000FFE
000FFE
000FFE
000FFE
000FFE
000FFE
000FFE
000FFE
000FFE
000FFE
000FFE
000FFE
000FFE
000FFE
000FFE
000FFE
000FFE
000FFE
000FFE
000FFE
000FFE
000FFE
000FFE
000FFE
000FFE
000FFE
000FFE
000FFE
000FFE
000FFE
000FFE
000FFE
000FFE
000FFE
000FFE
000FFE
FFFFFE
FFFFFE
FFFFFE
FFFFFE
FFFFFE
FFFFFE
FFFFFE
FFFFFE
FFFFFE
FFFFFE
FFFFFE
ENDCHAR
STARTCHAR asciicircum
ENCODING 94
SWIDTH 559 0
DWIDTH 77 0
BBX 59 60 9 40
BITMAP
0000001F00000000
0000007FC0000000
000000FFE0000000
000000FFE0000000
000001FFF0000000
000001FFF0000000
000003FFF8000000
000003FFF8000000
000007FFFC000000
000007FFFC000000
000007FFFC000000
00000FFFFE000000
00000FFFFE000000
00001FFFFF000000
00001FFFFF000000
00003FFBFF000000
00003FFBFF800000
00003FF3FF800000
00007FF1FFC00000
00007FE1FFC00000
0000FFE0FFE00000
0000FFE0FFE00000
0000FFC0FFE00000
0001FFC07FF00000
0001FF807FF00000
0003FF803FF80000
0003FF803FF80000
0007FF003FF80000
0007FF001FFC0000
0007FE001FFC0000
000FFE000FFE0000
000FFE000FFE0000
001FFC000FFF0000
001FFC0007FF0000
003FF80007FF0000
003FF80003FF8000
003FF80003FF8000
007FF00003FFC000
007FF00001FFC000
00FFE00001FFC000
00FFE00001FFE000
01FFE00000FFE000
01FFC00000FFF000
01FFC000007FF000
03FF8000007FF800
03FF8000007FF800
07FF8000003FF800
07FF0000003FFC00
0FFF0000001FFC00
0FFE0000001FFE00
0FFE0000001FFE00
1FFE0000000FFE00
1FFC0000000FFF00
3FFC00000007FF00
3FF800000007FF80
3FF800000007FF80
7FF800000003FFC0
7FF000000003FFC0
FFF000000001FFC0
FFE000000001FFE0
ENDCHAR
STARTCHAR underscore
ENCODING 95
SWIDTH 668 0
DWIDTH 92 0
BBX 93 8 0 -22
BITMAP
FFFFFFFFFFFFFFFFFFFFFFF8
FFFFFFFFFFFFFFFFFFFFFFF8
FFFFFFFFFFFFFFFFFFFFFFF8
FFFFFFFFFFFFFFFFFFFFFFF8
FFFFFFFFFFFFFFFFFFFFFFF8
FFFFFFFFFFFFFFFFFFFFFFF8
FFFFFFFFFFFFFFFFFFFFFFF8
FFFFFFFFFFFFFFFFFFFFFFF8
ENDCHAR
STARTCHAR grave
ENCODING 96
SWIDTH 362 0
DWIDTH 50 0
BBX 35 19 7 106
BITMAP
8000000000
F000000000
FE00000000
FFE0000000
FFFC000000
FFFF800000
FFFFF80000
FFFFFF0000
FFFFFFE000
FFFFFFFC00
FFFFFFFFC0
7FFFFFFFE0
03FFFFFFE0
001FFFFFE0
0001FFFFE0
00000FFFE0
0000007FE0
00000007E0
0000000020
ENDCHAR
STARTCHAR a
ENCODING 97
SWIDTH 989 0
DWIDTH 136 0
BBX 131 102 2 0
BITMAP
0000000000000000400000000000000000
0000000000000003FC0000000000000000
000000000000000FFE0000000000000000
000000000000001FFF0000000000000000
000000000000003FFF8000000000000000
000000000000003FFFC000000000000000
000000000000007FFFC000000000000000
00000000000000FFFFE000000000000000
00000000000000FFFFE000000000000000
00000000000001FFFFF000000000000000
00000000000001FFFFF800000000000000
00000000000003FFFFF800000000000000
00000000000007FFFFFC00000000000000
00000000000007FFFFFC00000000000000
0000000000000FFFFFFE00000000000000
0000000000000FFFFFFF00000000000000
0000000000001FFFFFFF00000000000000
0000000000003FFFFFFF80000000000000
0000000000003FFFFFFF80000000000000
0000000000007FFFFFFFC0000000000000
0000000000007FFFFFFFE0000000000000
000000000000FFFFFFFFE0000000000000
000000000001FFFFFFFFF0000000000000
000000000001FFFFFFFFF0000000000000
000000000003FFFFFFFFF8000000000000
000000000003FFFFFFFFFC000000000000
000000000007FFFF3FFFFC000000000000
00000000000FFFFF3FFFFE000000000000
00000000000FFFFE1FFFFE000000000000
00000000001FFFFE1FFFFF000000000000
00000000001FFFFC0FFFFF800000000000
00000000003FFFFC0FFFFF800000000000
00000000007FFFF807FFFFC00000000000
00000000007FFFF003FFFFC00000000000
0000000000FFFFF003FFFFE00000000000
0000000000FFFFE001FFFFF00000000000
0000000001FFFFE001FFFFF00000000000
0000000003FFFFC000FFFFF80000000000
0000000003FFFF80007FFFF80000000000
0000000007FFFF80007FFFFC0000000000
0000000007FFFF00003FFFFE0000000000
000000000FFFFF00003FFFFE0000000000
000000001FFFFE00001FFFFF0000000000
000000001FFFFC00000FFFFF0000000000
000000003FFFFC00000FFFFF8000000000
000000003FFFF8000007FFFFC000000000
000000007FFFF8000007FFFFC000000000
00000000FFFFF0000003FFFFE000000000
00000000FFFFE0000001FFFFE000000000
00000001FFFFE0000001FFFFF000000000
00000001FFFFC0000000FFFFF800000000
00000003FFFFC0000000FFFFF800000000
00000007FFFF800000007FFFFC00000000
00000007FFFF800000003FFFFC00000000
0000000FFFFF000000003FFFFE00000000
0000000FFFFE000000001FFFFF00000000
0000001FFFFE000000001FFFFF00000000
0000003FFFFC000000000FFFFF80000000
0000003FFFFC0000000007FFFF80000000
0000007FFFF80000000007FFFFC0000000
0000007FFFF00000000003FFFFE0000000
000000FFFFF00000000003FFFFE0000000
000000FFFFE00000000001FFFFF0000000
000001FFFFE000FFFFFFFFFFFFF0000000
000003FFFFC000FFFFFFFFFFFFF8000000
000003FFFF8001FFFFFFFFFFFFFC000000
000007FFFF8001FFFFFFFFFFFFFC000000
000007FFFF0003FFFFFFFFFFFFFE000000
00000FFFFF0007FFFFFFFFFFFFFE000000
00001FFFFE0007FFFFFFFFFFFFFF000000
00001FFFFC000FFFFFFFFFFFFFFF800000
00003FFFFC000FFFFFFFFFFFFFFF800000
00003FFFF8001FFFFFFFFFFFFFFFC00000
00007FFFF8003FFFFFFFFFFFFFFFC00000
0000FFFFF0003FFFFFFFFFFFFFFFE00000
0000FFFFE0007FFFFFFFFFFFFFFFF00000
0001FFFFE000FFFFFFFFFFFFFFFFF00000
0001FFFFC000000000000000FFFFF80000
0003FFFFC000000000000000FFFFF80000
0007FFFF80000000000000007FFFFC0000
0007FFFF80000000000000003FFFFE0000
000FFFFF00000000000000003FFFFE0000
000FFFFE00000000000000001FFFFF0000
001FFFFE00000000000000001FFFFF0000
003FFFFC00000000000000000FFFFF8000
003FFFFC000000000000000007FFFFC000
007FFFF8000000000000000007FFFFC000
007FFFF0000000000000000003FFFFE000
00FFFFF0000000000000000003FFFFE000
01FFFFE0000000000000000001FFFFF000
01FFFFE0000000000000000000FFFFF800
03FFFFC0000000000000000000FFFFF800
03FFFF800000000000000000007FFFFC00
07FFFF800000000000000000007FFFFC00
0FFFFF000000000000000000003FFFFE00
0FFFFF000000000000000000001FFFFF00
1FFFFE000000000000000000001FFFFF00
1FFFFC000000000000000000000FFFFF80
3FFFFC000000000000000000000FFFFF80
7FFFF80000000000000000000007FFFFC0
7FFFF80000000000000000000003FFFFE0
FFFFF00000000000000000000003FFFFE0
ENDCHAR
STARTCHAR b
ENCODING 98
SWIDTH 891 0
DWIDTH 122 0
BBX 107 100 8 0
BITMAP
FFFFFFFFFFFFFFFFFFFF80000000
FFFFFFFFFFFFFFFFFFFFFC000000
FFFFFFFFFFFFFFFFFFFFFF800000
FFFFFFFFFFFFFFFFFFFFFFF00000
FFFFFFFFFFFFFFFFFFFFFFFC0000
FFFFFFFFFFFFFFFFFFFFFFFE0000
FFFFFFFFFFFFFFFFFFFFFFFF8000
FFFFFFFFFFFFFFFFFFFFFFFFC000
FFFFFFFFFFFFFFFFFFFFFFFFE000
FFFFFFFFFFFFFFFFFFFFFFFFF000
FFFFFFFFFFFFFFFFFFFFFFFFF800
FFFFFFFFFFFFFFFFFFFFFFFFF800
FFFFFFFFFFFFFFFFFFFFFFFFFC00
FFFFFFFFFFFFFFFFFFFFFFFFFE00
FFFFFFFFFFFFFFFFFFFFFFFFFE00
FFFFFFFFFFFFFFFFFFFFFFFFFF00
FFFFFFFFFFFFFFFFFFFFFFFFFF00
FFFFC000000000000FFFFFFFFF00
FFFFC000000000000001FFFFFF80
FFFFC0000000000000003FFFFF80
FFFFC0000000000000000FFFFF80
FFFFC00000000000000007FFFF80
FFFFC00000000000000003FFFF80
FFFFC00000000000000001FFFFC0
FFFFC00000000000000001FFFFC0
FFFFC00000000000000001FFFFC0
FFFFC00000000000000000FFFFC0
FFFFC00000000000000000FFFFC0
FFFFC00000000000000000FFFFC0
FFFFC00000000000000000FFFFC0
FFFFC00000000000000000FFFF80
FFFFC00000000000000000FFFF80
FFFFC00000000000000000FFFF80
FFFFC00000000000000000FFFF80
FFFFC00000000000000001FFFF80
FFFFC00000000000000001FFFF00
FFFFC00000000000000001FFFF00
FFFFC00000000000000003FFFE00
FFFFC00000000000000007FFFE00
FFFFC0000000000000000FFFFC00
FFFFC0000000000000003FFFFC00
FFFFC000000000000001FFFFF800
FFFFC003FFFFFFFFFFFFFFFFF000
FFFFC003FFFFFFFFFFFFFFFFE000
FFFFC003FFFFFFFFFFFFFFFFC000
FFFFC003FFFFFFFFFFFFFFFF0000
FFFFC003FFFFFFFFFFFFFFFE0000
FFFFC003FFFFFFFFFFFFFFF00000
FFFFC003FFFFFFFFFFFFFFFC0000
FFFFC003FFFFFFFFFFFFFFFF0000
FFFFC003FFFFFFFFFFFFFFFFC000
FFFFC003FFFFFFFFFFFFFFFFE000
FFFFC003FFFFFFFFFFFFFFFFF000
FFFFC003FFFFFFFFFFFFFFFFF800
FFFFC003FFFFFFFFFFFFFFFFFC00
FFFFC003FFFFFFFFFFFFFFFFFE00
FFFFC003FFFFFFFFFFFFFFFFFF00
FFFFC000000000000000FFFFFF00
FFFFC0000000000000001FFFFF80
FFFFC00000000000000007FFFF80
FFFFC00000000000000003FFFFC0
FFFFC00000000000000001FFFFC0
FFFFC00000000000000000FFFFE0
FFFFC00000000000000000FFFFE0
FFFFC000000000000000007FFFE0
FFFFC000000000000000007FFFE0
FFFFC000000000000000007FFFE0
FFFFC000000000000000003FFFE0
FFFFC000000000000000003FFFE0
FFFFC000000000000000003FFFE0
FFFFC000000000000000003FFFE0
FFFFC000000000000000003FFFE0
FFFFC000000000000000007FFFE0
FFFFC000000000000000007FFFE0
FFFFC000000000000000007FFFE0
FFFFC00000000000000000FFFFE0
FFFFC00000000000000000FFFFE0
FFFFC00000000000000001FFFFE0
FFFFC00000000000000003FFFFC0
FFFFC0000000000000000FFFFFC0
FFFFC0000000000000003FFFFFC0
FFFFC000000000000001FFFFFFC0
FFFFC0000000000003FFFFFFFF80
FFFFFFFFFFFFFFFFFFFFFFFFFF80
FFFFFFFFFFFFFFFFFFFFFFFFFF00
FFFFFFFFFFFFFFFFFFFFFFFFFF00
FFFFFFFFFFFFFFFFFFFFFFFFFE00
FFFFFFFFFFFFFFFFFFFFFFFFFC00
FFFFFFFFFFFFFFFFFFFFFFFFFC00
FFFFFFFFFFFFFFFFFFFFFFFFF800
FFFFFFFFFFFFFFFFFFFFFFFFF000
FFFFFFFFFFFFFFFFFFFFFFFFE000
FFFFFFFFFFFFFFFFFFFFFFFFC000
FFFFFFFFFFFFFFFFFFFFFFFF8000
FFFFFFFFFFFFFFFFFFFFFFFE0000
FFFFFFFFFFFFFFFFFFFFFFFC0000
FFFFFFFFFFFFFFFFFFFFFFF00000
FFFFFFFFFFFFFFFFFFFFFFC00000
FFFFFFFFFFFFFFFFFFFFFE000000
FFFFFFFFFFFFFFFFFFFFC0000000
ENDCHAR
STARTCHAR c
ENCODING 99
SWIDTH 829 0
DWIDTH 114 0
BBX 102 100 6 0
BITMAP
00000000007FFFFFFFFFFFFFFC
000000001FFFFFFFFFFFFFFFFC
00000000FFFFFFFFFFFFFFFFFC
00000007FFFFFFFFFFFFFFFFFC
0000001FFFFFFFFFFFFFFFFFFC
000000FFFFFFFFFFFFFFFFFFFC
000001FFFFFFFFFFFFFFFFFFFC
000007FFFFFFFFFFFFFFFFFFFC
00001FFFFFFFFFFFFFFFFFFFFC
00003FFFFFFFFFFFFFFFFFFFFC
00007FFFFFFFFFFFFFFFFFFFFC
0000FFFFFFFFFFFFFFFFFFFFFC
0003FFFFFFFFFFFFFFFFFFFFFC
0007FFFFFFFFFFFFFFFFFFFFFC
000FFFFFFFFFFFFFFFFFFFFFFC
000FFFFFFFFFFFFFFFFFFFFFFC
001FFFFFFFFFFFFFFFFFFFFFFC
003FFFFFFFFE00000000000000
007FFFFFFF0000000000000000
00FFFFFFF80000000000000000
00FFFFFFC00000000000000000
01FFFFFF000000000000000000
03FFFFFE000000000000000000
03FFFFF8000000000000000000
07FFFFF0000000000000000000
07FFFFE0000000000000000000
0FFFFFC0000000000000000000
0FFFFF80000000000000000000
0FFFFF00000000000000000000
1FFFFE00000000000000000000
1FFFFE00000000000000000000
3FFFFC00000000000000000000
3FFFF800000000000000000000
3FFFF800000000000000000000
3FFFF000000000000000000000
7FFFF000000000000000000000
7FFFF000000000000000000000
7FFFE000000000000000000000
7FFFE000000000000000000000
FFFFE000000000000000000000
FFFFC000000000000000000000
FFFFC000000000000000000000
FFFFC000000000000000000000
FFFFC000000000000000000000
FFFF8000000000000000000000
FFFF8000000000000000000000
FFFF8000000000000000000000
FFFF8000000000000000000000
FFFF8000000000000000000000
FFFF8000000000000000000000
FFFF8000000000000000000000
FFFF8000000000000000000000
FFFF8000000000000000000000
FFFF8000000000000000000000
FFFF8000000000000000000000
FFFFC000000000000000000000
FFFFC000000000000000000000
FFFFC000000000000000000000
FFFFC000000000000000000000
7FFFC000000000000000000000
7FFFE000000000000000000000
7FFFE000000000000000000000
7FFFE000000000000000000000
3FFFF000000000000000000000
3FFFF000000000000000000000
3FFFF800000000000000000000
3FFFF800000000000000000000
1FFFFC00000000000000000000
1FFFFC00000000000000000000
1FFFFE00000000000000000000
0FFFFF00000000000000000000
0FFFFF00000000000000000000
07FFFF80000000000000000000
07FFFFC0000000000000000000
03FFFFE0000000000000000000
03FFFFF0000000000000000000
01FFFFFC000000000000000000
01FFFFFE000000000000000000
00FFFFFF800000000000000000
007FFFFFC00000000000000000
007FFFFFF80000000000000000
003FFFFFFF0000000000000000
001FFFFFFFFE00000000000000
000FFFFFFFFFFFFFFFFFFFFFFC
0007FFFFFFFFFFFFFFFFFFFFFC
0003FFFFFFFFFFFFFFFFFFFFFC
0001FFFFFFFFFFFFFFFFFFFFFC
0000FFFFFFFFFFFFFFFFFFFFFC
00007FFFFFFFFFFFFFFFFFFFFC
00003FFFFFFFFFFFFFFFFFFFFC
00001FFFFFFFFFFFFFFFFFFFFC
000007FFFFFFFFFFFFFFFFFFFC
000003FFFFFFFFFFFFFFFFFFFC
000000FFFFFFFFFFFFFFFFFFFC
0000003FFFFFFFFFFFFFFFFFFC
0000000FFFFFFFFFFFFFFFFFFC
00000003FFFFFFFFFFFFFFFFFC
00000000FFFFFFFFFFFFFFFFFC
000000000FFFFFFFFFFFFFFFFC
00000000007FFFFFFFFFFFFFFC
ENDCHAR
STARTCHAR d
ENCODING 100
SWIDTH 879 0
DWIDTH 120 0
BBX 106 100 9 0
BITMAP
FFFFFFFFFFFFFFFF800000000000
FFFFFFFFFFFFFFFFFC0000000000
FFFFFFFFFFFFFFFFFFC000000000
FFFFFFFFFFFFFFFFFFF800000000
FFFFFFFFFFFFFFFFFFFE00000000
FFFFFFFFFFFFFFFFFFFF80000000
FFFFFFFFFFFFFFFFFFFFE0000000
FFFFFFFFFFFFFFFFFFFFF0000000
FFFFFFFFFFFFFFFFFFFFFC000000
FFFFFFFFFFFFFFFFFFFFFE000000
FFFFFFFFFFFFFFFFFFFFFF800000
FFFFFFFFFFFFFFFFFFFFFFC00000
FFFFFFFFFFFFFFFFFFFFFFE00000
FFFFFFFFFFFFFFFFFFFFFFF00000
FFFFFFFFFFFFFFFFFFFFFFF80000
FFFFFFFFFFFFFFFFFFFFFFFC0000
FFFFFFFFFFFFFFFFFFFFFFFE0000
FFFF80000000003FFFFFFFFF0000
FFFF8000000000003FFFFFFF0000
FFFF80000000000007FFFFFF8000
FFFF80000000000001FFFFFFC000
FFFF800000000000007FFFFFC000
FFFF800000000000001FFFFFE000
FFFF800000000000000FFFFFF000
FFFF8000000000000007FFFFF000
FFFF8000000000000003FFFFF800
FFFF8000000000000000FFFFF800
FFFF8000000000000000FFFFF800
FFFF80000000000000007FFFFC00
FFFF80000000000000003FFFFC00
FFFF80000000000000001FFFFE00
FFFF80000000000000001FFFFE00
FFFF80000000000000000FFFFE00
FFFF800000000000000007FFFF00
FFFF800000000000000007FFFF00
FFFF800000000000000003FFFF00
FFFF800000000000000003FFFF00
FFFF800000000000000003FFFF80
FFFF800000000000000001FFFF80
FFFF800000000000000001FFFF80
FFFF800000000000000001FFFF80
FFFF800000000000000001FFFF80
FFFF800000000000000000FFFF80
FFFF800000000000000000FFFFC0
FFFF800000000000000000FFFFC0
FFFF800000000000000000FFFFC0
FFFF800000000000000000FFFFC0
FFFF800000000000000000FFFFC0
FFFF800000000000000000FFFFC0
FFFF800000000000000000FFFFC0
FFFF800000000000000000FFFFC0
FFFF800000000000000000FFFFC0
FFFF800000000000000000FFFFC0
FFFF800000000000000000FFFFC0
FFFF800000000000000000FFFFC0
FFFF800000000000000000FFFF80
FFFF800000000000000000FFFF80
FFFF800000000000000000FFFF80
FFFF800000000000000001FFFF80
FFFF800000000000000001FFFF80
FFFF800000000000000001FFFF80
FFFF800000000000000001FFFF00
FFFF800000000000000003FFFF00
FFFF800000000000000003FFFF00
FFFF800000000000000007FFFF00
FFFF800000000000000007FFFE00
FFFF80000000000000000FFFFE00
FFFF80000000000000000FFFFE00
FFFF80000000000000001FFFFC00
FFFF80000000000000001FFFFC00
FFFF80000000000000003FFFFC00
FFFF80000000000000007FFFF800
FFFF8000000000000000FFFFF800
FFFF8000000000000001FFFFF000
FFFF8000000000000003FFFFF000
FFFF8000000000000007FFFFE000
FFFF800000000000000FFFFFE000
FFFF800000000000003FFFFFC000
FFFF800000000000007FFFFF8000
FFFF80000000000001FFFFFF8000
FFFF80000000000007FFFFFF0000
FFFF8000000000003FFFFFFE0000
FFFF80000000003FFFFFFFFE0000
FFFFFFFFFFFFFFFFFFFFFFFC0000
FFFFFFFFFFFFFFFFFFFFFFF80000
FFFFFFFFFFFFFFFFFFFFFFF00000
FFFFFFFFFFFFFFFFFFFFFFE00000
FFFFFFFFFFFFFFFFFFFFFFC00000
FFFFFFFFFFFFFFFFFFFFFF800000
FFFFFFFFFFFFFFFFFFFFFF000000
FFFFFFFFFFFFFFFFFFFFFC000000
FFFFFFFFFFFFFFFFFFFFF8000000
FFFFFFFFFFFFFFFFFFFFF0000000
FFFFFFFFFFFFFFFFFFFFC0000000
FFFFFFFFFFFFFFFFFFFF00000000
FFFFFFFFFFFFFFFFFFFC00000000
FFFFFFFFFFFFFFFFFFF000000000
FFFFFFFFFFFFFFFFFF8000000000
FFFFFFFFFFFFFFFFFC0000000000
FFFFFFFFFFFFFFFF000000000000
ENDCHAR
STARTCHAR e
ENCODING 101
SWIDTH 759 0
DWIDTH 104 0
BBX 89 100 9 0
BITMAP
FFFFFFFFFFFFFFFFFFFFFF80
FFFFFFFFFFFFFFFFFFFFFF80
FFFFFFFFFFFFFFFFFFFFFF80
FFFFFFFFFFFFFFFFFFFFFF80
FFFFFFFFFFFFFFFFFFFFFF80
FFFFFFFFFFFFFFFFFFFFFF80
FFFFFFFFFFFFFFFFFFFFFF80
FFFFFFFFFFFFFFFFFFFFFF80
FFFFFFFFFFFFFFFFFFFFFF80
FFFFFFFFFFFFFFFFFFFFFF80
FFFFFFFFFFFFFFFFFFFFFF80
FFFFFFFFFFFFFFFFFFFFFF80
FFFFFFFFFFFFFFFFFFFFFF80
FFFFFFFFFFFFFFFFFFFFFF80
FFFFFFFFFFFFFFFFFFFFFF80
FFFFFFFFFFFFFFFFFFFFFF80
FFFFFFFFFFFFFFFFFFFFFF80
FFFF80000000000000000000
FFFF80000000000000000000
FFFF80000000000000000000
FFFF80000000000000000000
FFFF80000000000000000000
FFFF80000000000000000000
FFFF80000000000000000000
FFFF80000000000000000000
FFFF80000000000000000000
FFFF80000000000000000000
FFFF80000000000000000000
FFFF80000000000000000000
FFFF80000000000000000000
FFFF80000000000000000000
FFFF80000000000000000000
FFFF80000000000000000000
FFFF80000000000000000000
FFFF80000000000000000000
FFFF80000000000000000000
FFFF80000000000000000000
FFFF80000000000000000000
FFFF80000000000000000000
FFFF80000000000000000000
FFFF80000000000000000000
FFFF80000000000000000000
FFFF8003FFFFFFFFFFFFF800
FFFF8003FFFFFFFFFFFFF800
FFFF8003FFFFFFFFFFFFF800
FFFF8003FFFFFFFFFFFFF800
FFFF8003FFFFFFFFFFFFF800
FFFF8003FFFFFFFFFFFFF800
FFFF8003FFFFFFFFFFFFF800
FFFF8003FFFFFFFFFFFFF800
FFFF8003FFFFFFFFFFFFF800
FFFF8003FFFFFFFFFFFFF800
FFFF8003FFFFFFFFFFFFF800
FFFF8003FFFFFFFFFFFFF800
FFFF8003FFFFFFFFFFFFF800
FFFF8003FFFFFFFFFFFFF800
FFFF8003FFFFFFFFFFFFF800
FFFF80000000000000000000
FFFF80000000000000000000
FFFF80000000000000000000
FFFF80000000000000000000
FFFF80000000000000000000
FFFF80000000000000000000
FFFF80000000000000000000
FFFF80000000000000000000
FFFF80000000000000000000
FFFF80000000000000000000
FFFF80000000000000000000
FFFF80000000000000000000
FFFF80000000000000000000
FFFF80000000000000000000
FFFF80000000000000000000
FFFF80000000000000000000
FFFF80000000000000000000
FFFF80000000000000000000
FFFF80000000000000000000
FFFF80000000000000000000
FFFF80000000000000000000
FFFF80000000000000000000
FFFF80000000000000000000
FFFF80000000000000000000
FFFF80000000000000000000
FFFF80000000000000000000
FFFFFFFFFFFFFFFFFFFFFF80
FFFFFFFFFFFFFFFFFFFFFF80
FFFFFFFFFFFFFFFFFFFFFF80
FFFFFFFFFFFFFFFFFFFFFF80
FFFFFFFFFFFFFFFFFFFFFF80
FFFFFFFFFFFFFFFFFFFFFF80
FFFFFFFFFFFFFFFFFFFFFF80
FFFFFFFFFFFFFFFFFFFFFF80
FFFFFFFFFFFFFFFFFFFFFF80
FFFFFFFFFFFFFFFFFFFFFF80
FFFFFFFFFFFFFFFFFFFFFF80
FFFFFFFFFFFFFFFFFFFFFF80
FFFFFFFFFFFFFFFFFFFFFF80
FFFFFFFFFFFFFFFFFFFFFF80
FFFFFFFFFFFFFFFFFFFFFF80
FFFFFFFFFFFFFFFFFFFFFF80
FFFFFFFFFFFFFFFFFFFFFF80
ENDCHAR
STARTCHAR f
ENCODING 102
SWIDTH 705 0
DWIDTH 97 0
BBX 84 100 9 0
BITMAP
FFFFFFFFFFFFFFFFFFFFF0
FFFFFFFFFFFFFFFFFFFFF0
FFFFFFFFFFFFFFFFFFFFF0
FFFFFFFFFFFFFFFFFFFFF0
FFFFFFFFFFFFFFFFFFFFF0
FFFFFFFFFFFFFFFFFFFFF0
FFFFFFFFFFFFFFFFFFFFF0
FFFFFFFFFFFFFFFFFFFFF0
FFFFFFFFFFFFFFFFFFFFF0
FFFFFFFFFFFFFFFFFFFFF0
FFFFFFFFFFFFFFFFFFFFF0
FFFFFFFFFFFFFFFFFFFFF0
FFFFFFFFFFFFFFFFFFFFF0
FFFFFFFFFFFFFFFFFFFFF0
FFFFFFFFFFFFFFFFFFFFF0
FFFFFFFFFFFFFFFFFFFFF0
FFFFFFFFFFFFFFFFFFFFF0
FFFF800000000000000000
FFFF800000000000000000
FFFF800000000000000000
FFFF800000000000000000
FFFF800000000000000000
FFFF800000000000000000
FFFF800000000000000000
FFFF800000000000000000
FFFF800000000000000000
FFFF800000000000000000
FFFF800000000000000000
FFFF800000000000000000
FFFF800000000000000000
FFFF800000000000000000
FFFF800000000000000000
FFFF800000000000000000
FFFF800000000000000000
FFFF800000000000000000
FFFF800000000000000000
FFFF800000000000000000
FFFF800000000000000000
FFFF800000000000000000
FFFF800000000000000000
FFFF800000000000000000
FFFF800000000000000000
FFFF800000000000000000
FFFF8003FFFFFFFFFFFF00
FFFF8003FFFFFFFFFFFF00
FFFF8003FFFFFFFFFFFF00
FFFF8003FFFFFFFFFFFF00
FFFF8003FFFFFFFFFFFF00
FFFF8003FFFFFFFFFFFF00
FFFF8003FFFFFFFFFFFF00
FFFF8003FFFFFFFFFFFF00
FFFF8003FFFFFFFFFFFF00
FFFF8003FFFFFFFFFFFF00
FFFF8003FFFFFFFFFFFF00
FFFF8003FFFFFFFFFFFF00
FFFF8003FFFFFFFFFFFF00
FFFF8003FFFFFFFFFFFF00
FFFF8003FFFFFFFFFFFF00
FFFF800000000000000000
FFFF800000000000000000
FFFF800000000000000000
FFFF800000000000000000
FFFF800000000000000000
FFFF800000000000000000
FFFF800000000000000000
FFFF800000000000000000
FFFF800000000000000000
FFFF800000000000000000
FFFF800000000000000000
FFFF800000000000000000
FFFF800000000000000000
FFFF800000000000000000
FFFF800000000000000000
FFFF800000000000000000
FFFF800000000000000000
FFFF800000000000000000
FFFF800000000000000000
FFFF800000000000000000
FFFF800000000000000000
FFFF800000000000000000
FFFF800000000000000000
FFFF800000000000000000
FFFF800000000000000000
FFFF800000000000000000
FFFF800000000000000000
FFFF800000000000000000
FFFF800000000000000000
FFFF800000000000000000
FFFF800000000000000000
FFFF800000000000000000
FFFF800000000000000000
FFFF800000000000000000
FFFF800000000000000000
FFFF800000000000000000
FFFF800000000000000000
FFFF800000000000000000
FFFF800000000000000000
FFFF800000000000000000
FFFF800000000000000000
FFFF800000000000000000
ENDCHAR
STARTCHAR g
ENCODING 103
SWIDTH 888 0
DWIDTH 122 0
BBX 108 100 6 0
BITMAP
00000000007FFFFFFFFFFFFFFC00
000000001FFFFFFFFFFFFFFFFC00
00000000FFFFFFFFFFFFFFFFFC00
00000007FFFFFFFFFFFFFFFFFC00
0000001FFFFFFFFFFFFFFFFFFC00
000000FFFFFFFFFFFFFFFFFFFC00
000001FFFFFFFFFFFFFFFFFFFC00
000007FFFFFFFFFFFFFFFFFFFC00
00001FFFFFFFFFFFFFFFFFFFFC00
00003FFFFFFFFFFFFFFFFFFFFC00
00007FFFFFFFFFFFFFFFFFFFFC00
0000FFFFFFFFFFFFFFFFFFFFFC00
0003FFFFFFFFFFFFFFFFFFFFFC00
0007FFFFFFFFFFFFFFFFFFFFFC00
000FFFFFFFFFFFFFFFFFFFFFFC00
000FFFFFFFFFFFFFFFFFFFFFFC00
001FFFFFFFFFFFFFFFFFFFFFFC00
003FFFFFFFFE0000000000000000
007FFFFFFF000000000000000000
00FFFFFFF8000000000000000000
00FFFFFFC0000000000000000000
01FFFFFF00000000000000000000
03FFFFFE00000000000000000000
03FFFFF800000000000000000000
07FFFFF000000000000000000000
07FFFFE000000000000000000000
0FFFFFC000000000000000000000
0FFFFF8000000000000000000000
0FFFFF0000000000000000000000
1FFFFE0000000000000000000000
1FFFFE0000000000000000000000
3FFFFC0000000000000000000000
3FFFF80000000000000000000000
3FFFF80000000000000000000000
3FFFF00000000000000000000000
7FFFF00000000000000000000000
7FFFF00000000000000000000000
7FFFE00000000000000000000000
7FFFE00000000000000000000000
FFFFE00000000000000000000000
FFFFC00000000000000000000000
FFFFC00000000000000000000000
FFFFC0000003FFFFFFFFFFFFFFF0
FFFFC0000003FFFFFFFFFFFFFFF0
FFFF80000003FFFFFFFFFFFFFFF0
FFFF80000003FFFFFFFFFFFFFFF0
FFFF80000003FFFFFFFFFFFFFFF0
FFFF80000003FFFFFFFFFFFFFFF0
FFFF80000003FFFFFFFFFFFFFFF0
FFFF80000003FFFFFFFFFFFFFFF0
FFFF80000003FFFFFFFFFFFFFFF0
FFFF80000003FFFFFFFFFFFFFFF0
FFFF80000003FFFFFFFFFFFFFFF0
FFFF80000003FFFFFFFFFFFFFFF0
FFFF80000003FFFFFFFFFFFFFFF0
FFFFC0000003FFFFFFFFFFFFFFF0
FFFFC0000003FFFFFFFFFFFFFFF0
FFFFC000000000000000001FFFF0
FFFFC000000000000000001FFFF0
7FFFC000000000000000001FFFF0
7FFFE000000000000000001FFFF0
7FFFE000000000000000001FFFF0
7FFFE000000000000000001FFFF0
3FFFF000000000000000001FFFF0
3FFFF000000000000000001FFFF0
3FFFF800000000000000001FFFF0
3FFFF800000000000000001FFFF0
1FFFFC00000000000000001FFFF0
1FFFFC00000000000000001FFFF0
1FFFFE00000000000000001FFFF0
0FFFFF00000000000000001FFFF0
0FFFFF00000000000000001FFFF0
07FFFF80000000000000001FFFF0
07FFFFC0000000000000001FFFF0
03FFFFE0000000000000001FFFF0
03FFFFF0000000000000001FFFF0
01FFFFFC000000000000001FFFF0
01FFFFFE000000000000001FFFF0
00FFFFFF800000000000001FFFF0
007FFFFFC00000000000001FFFF0
007FFFFFF80000000000001FFFF0
003FFFFFFF0000000000001FFFF0
001FFFFFFFFE00000000001FFFF0
000FFFFFFFFFFFFFFFFFFFFFFFF0
0007FFFFFFFFFFFFFFFFFFFFFFF0
0003FFFFFFFFFFFFFFFFFFFFFFF0
0001FFFFFFFFFFFFFFFFFFFFFFF0
0000FFFFFFFFFFFFFFFFFFFFFFF0
00007FFFFFFFFFFFFFFFFFFFFFF0
00003FFFFFFFFFFFFFFFFFFFFFF0
00001FFFFFFFFFFFFFFFFFFFFFF0
000007FFFFFFFFFFFFFFFFFFFFF0
000003FFFFFFFFFFFFFFFFFFFFF0
000000FFFFFFFFFFFFFFFFFFFFF0
0000003FFFFFFFFFFFFFFFFFFFF0
0000000FFFFFFFFFFFFFFFFFFFF0
00000003FFFFFFFFFFFFFFFFFFF0
00000000FFFFFFFFFFFFFFFFFFF0
000000000FFFFFFFFFFFFFFFFFF0
00000000007FFFFFFFFFFFFFFFF0
ENDCHAR
STARTCHAR h
ENCODING 104
SWIDTH 838 0
DWIDTH 115 0
BBX 97 100 9 0
BITMAP
FFFF8000000000000000FFFF80
FFFF8000000000000000FFFF80
FFFF8000000000000000FFFF80
FFFF8000000000000000FFFF80
FFFF8000000000000000FFFF80
FFFF8000000000000000FFFF80
FFFF8000000000000000FFFF80
FFFF8000000000000000FFFF80
FFFF8000000000000000FFFF80
FFFF8000000000000000FFFF80
FFFF8000000000000000FFFF80
FFFF8000000000000000FFFF80
FFFF8000000000000000FFFF80
FFFF8000000000000000FFFF80
FFFF8000000000000000FFFF80
FFFF8000000000000000FFFF80
FFFF8000000000000000FFFF80
FFFF8000000000000000FFFF80
FFFF8000000000000000FFFF80
FFFF8000000000000000FFFF80
FFFF8000000000000000FFFF80
FFFF8000000000000000FFFF80
FFFF8000000000000000FFFF80
FFFF8000000000000000FFFF80
FFFF8000000000000000FFFF80
FFFF8000000000000000FFFF80
FFFF8000000000000000FFFF80
FFFF8000000000000000FFFF80
FFFF8000000000000000FFFF80
FFFF8000000000000000FFFF80
FFFF8000000000000000FFFF80
FFFF8000000000000000FFFF80
FFFF8000000000000000FFFF80
FFFF8000000000000000FFFF80
FFFF8000000000000000FFFF80
FFFF8000000000000000FFFF80
FFFF8000000000000000FFFF80
FFFF8000000000000000FFFF80
FFFF8000000000000000FFFF80
FFFF8000000000000000FFFF80
FFFF8000000000000000FFFF80
FFFF8003FFFFFFFFFFFFFFFF80
FFFF8003FFFFFFFFFFFFFFFF80
FFFF8003FFFFFFFFFFFFFFFF80
FFFF8003FFFFFFFFFFFFFFFF80
FFFF8003FFFFFFFFFFFFFFFF80
FFFF8003FFFFFFFFFFFFFFFF80
FFFF8003FFFFFFFFFFFFFFFF80
FFFF8003FFFFFFFFFFFFFFFF80
FFFF8003FFFFFFFFFFFFFFFF80
FFFF8003FFFFFFFFFFFFFFFF80
FFFF8003FFFFFFFFFFFFFFFF80
FFFF8003FFFFFFFFFFFFFFFF80
FFFF8003FFFFFFFFFFFFFFFF80
FFFF8003FFFFFFFFFFFFFFFF80
FFFF8003FFFFFFFFFFFFFFFF80
FFFF8003FFFFFFFFFFFFFFFF80
FFFF8000000000000000FFFF80
FFFF8000000000000000FFFF80
FFFF8000000000000000FFFF80
FFFF8000000000000000FFFF80
FFFF8000000000000000FFFF80
FFFF8000000000000000FFFF80
FFFF8000000000000000FFFF80
FFFF8000000000000000FFFF80
FFFF8000000000000000FFFF80
FFFF8000000000000000FFFF80
FFFF8000000000000000FFFF80
FFFF8000000000000000FFFF80
FFFF8000000000000000FFFF80
FFFF8000000000000000FFFF80
FFFF8000000000000000FFFF80
FFFF8000000000000000FFFF80
FFFF8000000000000000FFFF80
FFFF8000000000000000FFFF80
FFFF8000000000000000FFFF80
FFFF8000000000000000FFFF80
FFFF8000000000000000FFFF80
FFFF8000000000000000FFFF80
FFFF8000000000000000FFFF80
FFFF8000000000000000FFFF80
FFFF8000000000000000FFFF80
FFFF8000000000000000FFFF80
FFFF8000000000000000FFFF80
FFFF8000000000000000FFFF80
FFFF8000000000000000FFFF80
FFFF8000000000000000FFFF80
FFFF8000000000000000FFFF80
FFFF8000000000000000FFFF80
FFFF8000000000000000FFFF80
FFFF8000000000000000FFFF80
FFFF8000000000000000FFFF80
FFFF8000000000000000FFFF80
FFFF8000000000000000FFFF80
FFFF8000000000000000FFFF80
FFFF8000000000000000FFFF80
FFFF8000000000000000FFFF80
FFFF8000000000000000FFFF80
FFFF8000000000000000FFFF80
FFFF8000000000000000FFFF80
ENDCHAR
STARTCHAR i
ENCODING 105
SWIDTH 267 0
DWIDTH 37 0
BBX 17 100 10 0
BITMAP
FFFF80
FFFF80
FFFF80
FFFF80
FFFF80
FFFF80
FFFF80
FFFF80
FFFF80
FFFF80
FFFF80
FFFF80
FFFF80
FFFF80
FFFF80
FFFF80
FFFF80
FFFF80
FFFF80
FFFF80
FFFF80
FFFF80
FFFF80
FFFF80
FFFF80
FFFF80
FFFF80
FFFF80
FFFF80
FFFF80
FFFF80
FFFF80
FFFF80
FFFF80
FFFF80
FFFF80
FFFF80
FFFF80
FFFF80
FFFF80
FFFF80
FFFF80
FFFF80
FFFF80
FFFF80
FFFF80
FFFF80
FFFF80
FFFF80
FFFF80
FFFF80
FFFF80
FFFF80
FFFF80
FFFF80
FFFF80
FFFF80
FFFF80
FFFF80
FFFF80
FFFF80
FFFF80
FFFF80
FFFF80
FFFF80
FFFF80
FFFF80
FFFF80
FFFF80
FFFF80
FFFF80
FFFF80
FFFF80
FFFF80
FFFF80
FFFF80
FFFF80
FFFF80
FFFF80
FFFF80
FFFF80
FFFF80
FFFF80
FFFF80
FFFF80
FFFF80
FFFF80
FFFF80
FFFF80
FFFF80
FFFF80
FFFF80
FFFF80
FFFF80
FFFF80
FFFF80
FFFF80
FFFF80
FFFF80
FFFF80
ENDCHAR
STARTCHAR j
ENCODING 106
SWIDTH 708 0
DWIDTH 97 0
BBX 87 100 3 0
BITMAP
000000000000000007FFFE
000000000000000007FFFE
000000000000000007FFFE
000000000000000007FFFE
000000000000000007FFFE
000000000000000007FFFE
000000000000000007FFFE
000000000000000007FFFE
000000000000000007FFFE
000000000000000007FFFE
000000000000000007FFFE
000000000000000007FFFE
000000000000000007FFFE
000000000000000007FFFE
000000000000000007FFFE
000000000000000007FFFE
000000000000000007FFFE
000000000000000007FFFE
000000000000000007FFFE
000000000000000007FFFE
000000000000000007FFFE
000000000000000007FFFE
000000000000000007FFFE
000000000000000007FFFE
000000000000000007FFFE
000000000000000007FFFE
000000000000000007FFFE
000000000000000007FFFE
000000000000000007FFFE
000000000000000007FFFE
000000000000000007FFFE
000000000000000007FFFE
000000000000000007FFFE
000000000000000007FFFE
000000000000000007FFFE
000000000000000007FFFE
000000000000000007FFFE
000000000000000007FFFE
000000000000000007FFFE
000000000000000007FFFE
000000000000000007FFFE
000000000000000007FFFE
000000000000000007FFFE
000000000000000007FFFE
000000000000000007FFFE
000000000000000007FFFE
000000000000000007FFFE
000000000000000007FFFE
000000000000000007FFFE
000000000000000007FFFE
000000000000000007FFFE
000000000000000007FFFE
000000000000000007FFFE
000000000000000007FFFE
000000000000000007FFFE
000000000000000007FFFE
000000000000000007FFFE
000000000000000007FFFE
000000000000000007FFFE
000000000000000007FFFE
000000000000000007FFFE
000000000000000007FFFE
000000000000000007FFFC
000000000000000007FFFC
00000000000000000FFFFC
00000000000000000FFFFC
00000000000000000FFFFC
00000000000000001FFFFC
00000000000000001FFFFC
00000000000000001FFFF8
00000000000000003FFFF8
00000000000000007FFFF8
00000000000000007FFFF8
0000000000000000FFFFF0
0000000000000001FFFFF0
0000000000000003FFFFF0
0000000000000007FFFFE0
000000000000000FFFFFE0
000000000000003FFFFFC0
00000000000000FFFFFFC0
00000000000007FFFFFF80
0000000000007FFFFFFF80
0000000003FFFFFFFFFF00
FFFFFFFFFFFFFFFFFFFE00
FFFFFFFFFFFFFFFFFFFE00
FFFFFFFFFFFFFFFFFFFC00
FFFFFFFFFFFFFFFFFFF800
FFFFFFFFFFFFFFFFFFF000
FFFFFFFFFFFFFFFFFFE000
FFFFFFFFFFFFFFFFFFC000
FFFFFFFFFFFFFFFFFF8000
FFFFFFFFFFFFFFFFFF0000
FFFFFFFFFFFFFFFFFC0000
FFFFFFFFFFFFFFFFF00000
FFFFFFFFFFFFFFFFC00000
FFFFFFFFFFFFFFFF000000
FFFFFFFFFFFFFFF8000000
FFFFFFFFFFFFFFC0000000
FFFFFFFFFFFFFC00000000
FFFFFFFFFFFE0000000000
ENDCHAR
STARTCHAR k
ENCODING 107
SWIDTH 875 0
DWIDTH 120 0
BBX 108 100 9 0
BITMAP
FFFF8000000000000001FFFFFFC0
FFFF8000000000000003FFFFFF00
FFFF800000000000000FFFFFFE00
FFFF800000000000001FFFFFFC00
FFFF800000000000003FFFFFF000
FFFF80000000000000FFFFFFE000
FFFF80000000000001FFFFFFC000
FFFF80000000000003FFFFFF0000
FFFF8000000000000FFFFFFE0000
FFFF8000000000001FFFFFFC0000
FFFF8000000000003FFFFFF00000
FFFF8000000000007FFFFFE00000
FFFF800000000001FFFFFFC00000
FFFF800000000003FFFFFF000000
FFFF800000000007FFFFFE000000
FFFF80000000001FFFFFFC000000
FFFF80000000003FFFFFF0000000
FFFF80000000007FFFFFE0000000
FFFF8000000000FFFFFFC0000000
FFFF8000000003FFFFFF00000000
FFFF8000000007FFFFFE00000000
FFFF800000000FFFFFFC00000000
FFFF800000003FFFFFF000000000
FFFF800000007FFFFFE000000000
FFFF80000000FFFFFFC000000000
FFFF80000003FFFFFF0000000000
FFFF80000007FFFFFE0000000000
FFFF8000000FFFFFF80000000000
FFFF8000001FFFFFF00000000000
FFFF8000007FFFFFE00000000000
FFFF800000FFFFFF800000000000
FFFF800001FFFFFF000000000000
FFFF800007FFFFFE000000000000
FFFF80000FFFFFF8000000000000
FFFF80001FFFFFF0000000000000
FFFF80007FFFFFE0000000000000
FFFF8000FFFFFF80000000000000
FFFF8001FFFFFF00000000000000
FFFF8003FFFFFE00000000000000
FFFF800FFFFFF800000000000000
FFFF801FFFFFF000000000000000
FFFF803FFFFFE000000000000000
FFFF807FFFFF8000000000000000
FFFF80FFFFFF0000000000000000
FFFF81FFFFFE0000000000000000
FFFF81FFFFF80000000000000000
FFFF81FFFFF00000000000000000
FFFF83FFFFE00000000000000000
FFFF83FFFF800000000000000000
FFFF83FFFFC00000000000000000
FFFF83FFFFE00000000000000000
FFFF81FFFFF80000000000000000
FFFF81FFFFFC0000000000000000
FFFF81FFFFFE0000000000000000
FFFF80FFFFFF0000000000000000
FFFF807FFFFFC000000000000000
FFFF801FFFFFE000000000000000
FFFF800FFFFFF000000000000000
FFFF8007FFFFFC00000000000000
FFFF8003FFFFFE00000000000000
FFFF8000FFFFFF00000000000000
FFFF80007FFFFFC0000000000000
FFFF80003FFFFFE0000000000000
FFFF80001FFFFFF0000000000000
FFFF800007FFFFFC000000000000
FFFF800003FFFFFE000000000000
FFFF800001FFFFFF000000000000
FFFF800000FFFFFFC00000000000
FFFF8000003FFFFFE00000000000
FFFF8000001FFFFFF00000000000
FFFF8000000FFFFFFC0000000000
FFFF80000003FFFFFE0000000000
FFFF80000001FFFFFF0000000000
FFFF80000000FFFFFF8000000000
FFFF800000007FFFFFE000000000
FFFF800000001FFFFFF000000000
FFFF800000000FFFFFF800000000
FFFF8000000007FFFFFE00000000
FFFF8000000003FFFFFF00000000
FFFF8000000000FFFFFF80000000
FFFF80000000007FFFFFE0000000
FFFF80000000003FFFFFF0000000
FFFF80000000001FFFFFF8000000
FFFF800000000007FFFFFE000000
FFFF800000000003FFFFFF000000
FFFF800000000001FFFFFF800000
FFFF8000000000007FFFFFE00000
FFFF8000000000003FFFFFF00000
FFFF8000000000001FFFFFF80000
FFFF8000000000000FFFFFFC0000
FFFF80000000000003FFFFFF0000
FFFF80000000000001FFFFFF8000
FFFF80000000000000FFFFFFC000
FFFF800000000000007FFFFFF000
FFFF800000000000001FFFFFF800
FFFF800000000000000FFFFFFC00
FFFF8000000000000007FFFFFF00
FFFF8000000000000003FFFFFF80
FFFF8000000000000000FFFFFFC0
FFFF80000000000000007FFFFFF0
ENDCHAR
STARTCHAR l
ENCODING 108
SWIDTH 707 0
DWIDTH 97 0
BBX 84 100 9 0
BITMAP
FFFF800000000000000000
FFFF800000000000000000
FFFF800000000000000000
FFFF800000000000000000
FFFF800000000000000000
FFFF800000000000000000
FFFF800000000000000000
FFFF800000000000000000
FFFF800000000000000000
FFFF800000000000000000
FFFF800000000000000000
FFFF800000000000000000
FFFF800000000000000000
FFFF800000000000000000
FFFF800000000000000000
FFFF800000000000000000
FFFF800000000000000000
FFFF800000000000000000
FFFF800000000000000000
FFFF800000000000000000
FFFF800000000000000000
FFFF800000000000000000
FFFF800000000000000000
FFFF800000000000000000
FFFF800000000000000000
FFFF800000000000000000
FFFF800000000000000000
FFFF800000000000000000
FFFF800000000000000000
FFFF800000000000000000
FFFF800000000000000000
FFFF800000000000000000
FFFF800000000000000000
FFFF800000000000000000
FFFF800000000000000000
FFFF800000000000000000
FFFF800000000000000000
FFFF800000000000000000
FFFF800000000000000000
FFFF800000000000000000
FFFF800000000000000000
FFFF800000000000000000
FFFF800000000000000000
FFFF800000000000000000
FFFF800000000000000000
FFFF800000000000000000
FFFF800000000000000000
FFFF800000000000000000
FFFF800000000000000000
FFFF800000000000000000
FFFF800000000000000000
FFFF800000000000000000
FFFF800000000000000000
FFFF800000000000000000
FFFF800000000000000000
FFFF800000000000000000
FFFF800000000000000000
FFFF800000000000000000
FFFF800000000000000000
FFFF800000000000000000
FFFF800000000000000000
FFFF800000000000000000
FFFF800000000000000000
FFFF800000000000000000
FFFF800000000000000000
FFFF800000000000000000
FFFF800000000000000000
FFFF800000000000000000
FFFF800000000000000000
FFFF800000000000000000
FFFF800000000000000000
FFFF800000000000000000
FFFF800000000000000000
FFFF800000000000000000
FFFF800000000000000000
FFFF800000000000000000
FFFF800000000000000000
FFFF800000000000000000
FFFF800000000000000000
FFFF800000000000000000
FFFF800000000000000000
FFFF800000000000000000
FFFF800000000000000000
FFFFFFFFFFFFFFFFFFFFF0
FFFFFFFFFFFFFFFFFFFFF0
FFFFFFFFFFFFFFFFFFFFF0
FFFFFFFFFFFFFFFFFFFFF0
FFFFFFFFFFFFFFFFFFFFF0
FFFFFFFFFFFFFFFFFFFFF0
FFFFFFFFFFFFFFFFFFFFF0
FFFFFFFFFFFFFFFFFFFFF0
FFFFFFFFFFFFFFFFFFFFF0
FFFFFFFFFFFFFFFFFFFFF0
FFFFFFFFFFFFFFFFFFFFF0
FFFFFFFFFFFFFFFFFFFFF0
FFFFFFFFFFFFFFFFFFFFF0
FFFFFFFFFFFFFFFFFFFFF0
FFFFFFFFFFFFFFFFFFFFF0
FFFFFFFFFFFFFFFFFFFFF0
FFFFFFFFFFFFFFFFFFFFF0
ENDCHAR
STARTCHAR m
ENCODING 109
SWIDTH 1115 0
DWIDTH 153 0
BBX 147 102 3 -2
BITMAP
00000001FC000000000000000003F000000000
00000007FF00000000000000000FFC00000000
0000000FFF80000000000000001FFE00000000
0000001FFFC0000000000000003FFF00000000
0000001FFFE0000000000000007FFF00000000
0000003FFFE0000000000000007FFF80000000
0000003FFFF000000000000000FFFF80000000
0000003FFFF000000000000000FFFFC0000000
0000007FFFF000000000000000FFFFC0000000
0000007FFFF800000000000001FFFFC0000000
0000007FFFF800000000000001FFFFC0000000
0000007FFFFC00000000000003FFFFE0000000
000000FFFFFC00000000000003FFFFE0000000
000000FFFFFE00000000000007FFFFE0000000
000000FFFFFE00000000000007FFFFE0000000
000000FFFFFF0000000000000FFFFFF0000000
000001FFFFFF0000000000000FFFFFF0000000
000001FFFFFF0000000000000FFFFFF0000000
000001FFFFFF8000000000001FFFFFF8000000
000003FFFFFF8000000000001FFFFFF8000000
000003FFFFFFC000000000003FFFFFF8000000
000003FFFFFFC000000000003FFFFFF8000000
000003FFFFFFE000000000007FFFFFFC000000
000007FFFFFFE000000000007FFFFFFC000000
000007FFFFFFE00000000000FFFFFFFC000000
000007FFFFFFF00000000000FFFFFFFC000000
000007FFFFFFF00000000000FFFFFFFE000000
00000FFFFFFFF80000000001FFFFFFFE000000
00000FFFFFFFF80000000001FFFFFFFE000000
00000FFFFFFFFC0000000003FFFFFFFF000000
00001FFFFFFFFC0000000003FFFFFFFF000000
00001FFFF7FFFE0000000007FFFDFFFF000000
00001FFFF7FFFE0000000007FFFDFFFF000000
00001FFFF3FFFE0000000007FFF9FFFF800000
00003FFFE3FFFF000000000FFFF8FFFF800000
00003FFFE3FFFF000000000FFFF8FFFF800000
00003FFFE1FFFF800000001FFFF0FFFF800000
00003FFFE1FFFF800000001FFFF0FFFFC00000
00007FFFC0FFFFC00000003FFFE07FFFC00000
00007FFFC0FFFFC00000003FFFE07FFFC00000
00007FFFC07FFFE00000007FFFC07FFFE00000
0000FFFFC07FFFE00000007FFFC03FFFE00000
0000FFFF803FFFE00000007FFF803FFFE00000
0000FFFF803FFFF0000000FFFF803FFFE00000
0000FFFF803FFFF0000000FFFF803FFFF00000
0001FFFF001FFFF8000001FFFF001FFFF00000
0001FFFF001FFFF8000001FFFF001FFFF00000
0001FFFF000FFFFC000003FFFE001FFFF00000
0003FFFF000FFFFC000003FFFE001FFFF80000
0003FFFE0007FFFC000003FFFC000FFFF80000
0003FFFE0007FFFE000007FFFC000FFFF80000
0003FFFE0003FFFE000007FFF8000FFFFC0000
0007FFFE0003FFFF00000FFFF80007FFFC0000
0007FFFC0003FFFF00000FFFF80007FFFC0000
0007FFFC0001FFFF80001FFFF00007FFFC0000
0007FFFC0001FFFF80001FFFF00007FFFE0000
000FFFF80000FFFFC0003FFFE00003FFFE0000
000FFFF80000FFFFC0003FFFE00003FFFE0000
000FFFF800007FFFC0003FFFC00003FFFF0000
001FFFF800007FFFE0007FFFC00003FFFF0000
001FFFF000007FFFE0007FFFC00001FFFF0000
001FFFF000003FFFF000FFFF800001FFFF0000
001FFFF000003FFFF000FFFF800001FFFF8000
003FFFE000001FFFF801FFFF000000FFFF8000
003FFFE000001FFFF801FFFF000000FFFF8000
003FFFE000000FFFF803FFFE000000FFFF8000
003FFFE000000FFFFC03FFFE000000FFFFC000
007FFFC0000007FFFC03FFFC0000007FFFC000
007FFFC0000007FFFE07FFFC0000007FFFC000
007FFFC0000007FFFE07FFFC0000007FFFE000
00FFFFC0000003FFFF0FFFF80000007FFFE000
00FFFF80000003FFFF0FFFF80000003FFFE000
00FFFF80000001FFFF9FFFF00000003FFFE000
00FFFF80000001FFFF9FFFF00000003FFFF000
01FFFF00000000FFFF9FFFE00000001FFFF000
01FFFF00000000FFFFFFFFE00000001FFFF000
01FFFF00000000FFFFFFFFC00000001FFFF000
03FFFF000000007FFFFFFFC00000001FFFF800
03FFFE000000007FFFFFFFC00000000FFFF800
03FFFE000000003FFFFFFF800000000FFFF800
03FFFE000000003FFFFFFF800000000FFFFC00
07FFFE000000001FFFFFFF0000000007FFFC00
07FFFC000000001FFFFFFF0000000007FFFC00
07FFFC000000000FFFFFFE0000000007FFFC00
07FFFC000000000FFFFFFE0000000007FFFE00
0FFFF8000000000FFFFFFE0000000003FFFE00
0FFFF80000000007FFFFFC0000000003FFFE00
0FFFF80000000007FFFFFC0000000003FFFE00
1FFFF80000000003FFFFF80000000003FFFF00
1FFFF00000000003FFFFF80000000001FFFF00
1FFFF00000000001FFFFF00000000001FFFF00
1FFFF00000000001FFFFF00000000001FFFF80
3FFFE00000000001FFFFE00000000000FFFF80
3FFFE00000000000FFFFE00000000000FFFF80
3FFFE00000000000FFFFE00000000000FFFF80
3FFFE000000000007FFFC00000000000FFFFC0
7FFFC000000000007FFFC000000000007FFFC0
7FFFC000000000003FFF8000000000007FFFC0
7FFFC000000000001FFF0000000000007FFFC0
FFFFC000000000000FFE0000000000007FFFE0
000000000000000007FC000000000000000000
00000000000000000040000000000000000000
ENDCHAR
STARTCHAR n
ENCODING 110
SWIDTH 873 0
DWIDTH 120 0
BBX 103 100 8 0
BITMAP
03F0000000000000000001FFFE
0FFC000000000000000001FFFE
1FFE000000000000000001FFFE
3FFF000000000000000001FFFE
7FFFC00000000000000001FFFE
7FFFE00000000000000001FFFE
7FFFF00000000000000001FFFE
FFFFF80000000000000001FFFE
FFFFFC0000000000000001FFFE
FFFFFE0000000000000001FFFE
FFFFFF0000000000000001FFFE
FFFFFF8000000000000001FFFE
FFFFFFC000000000000001FFFE
FFFFFFE000000000000001FFFE
FFFFFFF000000000000001FFFE
FFFFFFF800000000000001FFFE
FFFFFFFC00000000000001FFFE
FFFFFFFE00000000000001FFFE
FFFFFFFF00000000000001FFFE
FFFFFFFF80000000000001FFFE
FFFFFFFFC0000000000001FFFE
FFFFFFFFE0000000000001FFFE
FFFFFFFFF0000000000001FFFE
FFFFFFFFF8000000000001FFFE
FFFFFFFFFC000000000001FFFE
FFFFFFFFFE000000000001FFFE
FFFFFFFFFF000000000001FFFE
FFFFFFFFFF800000000001FFFE
FFFFFFFFFFC00000000001FFFE
FFFFBFFFFFE00000000001FFFE
FFFF9FFFFFF00000000001FFFE
FFFF8FFFFFF80000000001FFFE
FFFF87FFFFFC0000000001FFFE
FFFF83FFFFFE0000000001FFFE
FFFF81FFFFFF0000000001FFFE
FFFF807FFFFF8000000001FFFE
FFFF803FFFFFC000000001FFFE
FFFF801FFFFFE000000001FFFE
FFFF800FFFFFF000000001FFFE
FFFF8007FFFFF800000001FFFE
FFFF8003FFFFFC00000001FFFE
FFFF8001FFFFFE00000001FFFE
FFFF8000FFFFFF00000001FFFE
FFFF80007FFFFF80000001FFFE
FFFF80003FFFFFC0000001FFFE
FFFF80001FFFFFE0000001FFFE
FFFF80000FFFFFF0000001FFFE
FFFF800007FFFFF8000001FFFE
FFFF800003FFFFFC000001FFFE
FFFF800001FFFFFE000001FFFE
FFFF800000FFFFFF000001FFFE
FFFF8000007FFFFF800001FFFE
FFFF8000003FFFFFC00001FFFE
FFFF8000001FFFFFE00001FFFE
FFFF8000000FFFFFF00001FFFE
FFFF80000007FFFFF80001FFFE
FFFF80000003FFFFFC0001FFFE
FFFF80000001FFFFFE0001FFFE
FFFF80000000FFFFFF0001FFFE
FFFF800000007FFFFF8001FFFE
FFFF800000003FFFFFC001FFFE
FFFF800000001FFFFFE001FFFE
FFFF800000000FFFFFF001FFFE
FFFF8000000007FFFFF801FFFE
FFFF8000000003FFFFFC01FFFE
FFFF8000000001FFFFFE01FFFE
FFFF8000000000FFFFFF01FFFE
FFFF80000000007FFFFF81FFFE
FFFF80000000003FFFFFC1FFFE
FFFF80000000001FFFFFE1FFFE
FFFF80000000000FFFFFF1FFFE
FFFF800000000007FFFFF9FFFE
FFFF800000000003FFFFFFFFFE
FFFF800000000001FFFFFFFFFE
FFFF800000000000FFFFFFFFFE
FFFF8000000000007FFFFFFFFE
FFFF8000000000003FFFFFFFFE
FFFF8000000000001FFFFFFFFE
FFFF8000000000000FFFFFFFFE
FFFF80000000000007FFFFFFFE
FFFF80000000000001FFFFFFFE
FFFF80000000000000FFFFFFFE
FFFF800000000000007FFFFFFE
FFFF800000000000003FFFFFFE
FFFF800000000000001FFFFFFE
FFFF800000000000000FFFFFFE
FFFF8000000000000007FFFFFE
FFFF8000000000000003FFFFFE
FFFF8000000000000001FFFFFE
FFFF8000000000000000FFFFFE
FFFF80000000000000007FFFFE
FFFF80000000000000003FFFFE
FFFF80000000000000001FFFFE
FFFF80000000000000000FFFFE
FFFF800000000000000007FFFE
FFFF800000000000000003FFFC
FFFF800000000000000001FFFC
FFFF800000000000000000FFF8
FFFF8000000000000000007FF0
FFFF8000000000000000000FC0
ENDCHAR
STARTCHAR o
ENCODING 111
SWIDTH 968 0
DWIDTH 133 0
BBX 121 100 6 0
BITMAP
00000000007FFFFFFFFF000000000000
000000001FFFFFFFFFFFFC0000000000
00000000FFFFFFFFFFFFFF8000000000
00000007FFFFFFFFFFFFFFF000000000
0000001FFFFFFFFFFFFFFFFC00000000
000000FFFFFFFFFFFFFFFFFF00000000
000001FFFFFFFFFFFFFFFFFFC0000000
000007FFFFFFFFFFFFFFFFFFF0000000
00001FFFFFFFFFFFFFFFFFFFF8000000
00003FFFFFFFFFFFFFFFFFFFFE000000
00007FFFFFFFFFFFFFFFFFFFFF000000
0000FFFFFFFFFFFFFFFFFFFFFF800000
0003FFFFFFFFFFFFFFFFFFFFFFC00000
0007FFFFFFFFFFFFFFFFFFFFFFE00000
000FFFFFFFFFFFFFFFFFFFFFFFF00000
000FFFFFFFFFFFFFFFFFFFFFFFF80000
001FFFFFFFFFFFFFFFFFFFFFFFFC0000
003FFFFFFFFE0000007FFFFFFFFE0000
007FFFFFFF00000000007FFFFFFF0000
00FFFFFFF800000000000FFFFFFF0000
00FFFFFFC0000000000003FFFFFF8000
01FFFFFF00000000000000FFFFFFC000
03FFFFFE000000000000003FFFFFC000
03FFFFF8000000000000001FFFFFE000
07FFFFF00000000000000007FFFFE000
07FFFFE00000000000000003FFFFF000
0FFFFFC00000000000000001FFFFF000
0FFFFF800000000000000000FFFFF800
0FFFFF0000000000000000007FFFF800
1FFFFE0000000000000000007FFFFC00
1FFFFE0000000000000000003FFFFC00
3FFFFC0000000000000000001FFFFC00
3FFFF80000000000000000001FFFFE00
3FFFF80000000000000000000FFFFE00
3FFFF00000000000000000000FFFFE00
7FFFF000000000000000000007FFFF00
7FFFF000000000000000000007FFFF00
7FFFE000000000000000000003FFFF00
7FFFE000000000000000000003FFFF00
FFFFE000000000000000000003FFFF00
FFFFC000000000000000000001FFFF80
FFFFC000000000000000000001FFFF80
FFFFC000000000000000000001FFFF80
FFFFC000000000000000000001FFFF80
FFFF8000000000000000000001FFFF80
FFFF8000000000000000000001FFFF80
FFFF8000000000000000000000FFFF80
FFFF8000000000000000000000FFFF80
FFFF8000000000000000000000FFFF80
FFFF8000000000000000000000FFFF80
FFFF8000000000000000000000FFFF80
FFFF8000000000000000000000FFFF80
FFFF8000000000000000000000FFFF80
FFFF8000000000000000000000FFFF80
FFFF8000000000000000000001FFFF80
FFFFC000000000000000000001FFFF80
FFFFC000000000000000000001FFFF80
FFFFC000000000000000000001FFFF80
FFFFC000000000000000000001FFFF00
7FFFC000000000000000000003FFFF00
7FFFE000000000000000000003FFFF00
7FFFE000000000000000000003FFFF00
7FFFE000000000000000000003FFFF00
3FFFF000000000000000000007FFFE00
3FFFF000000000000000000007FFFE00
3FFFF80000000000000000000FFFFE00
3FFFF80000000000000000000FFFFC00
1FFFFC0000000000000000001FFFFC00
1FFFFC0000000000000000001FFFFC00
1FFFFE0000000000000000003FFFF800
0FFFFF0000000000000000007FFFF800
0FFFFF000000000000000000FFFFF800
07FFFF800000000000000000FFFFF000
07FFFFC00000000000000001FFFFF000
03FFFFE00000000000000003FFFFE000
03FFFFF0000000000000000FFFFFE000
01FFFFFC000000000000001FFFFFC000
01FFFFFE000000000000003FFFFF8000
00FFFFFF80000000000000FFFFFF8000
007FFFFFC0000000000003FFFFFF0000
007FFFFFF800000000000FFFFFFE0000
003FFFFFFF00000000007FFFFFFE0000
001FFFFFFFFE0000007FFFFFFFFC0000
000FFFFFFFFFFFFFFFFFFFFFFFF80000
0007FFFFFFFFFFFFFFFFFFFFFFF00000
0003FFFFFFFFFFFFFFFFFFFFFFE00000
0001FFFFFFFFFFFFFFFFFFFFFFC00000
0000FFFFFFFFFFFFFFFFFFFFFF800000
00007FFFFFFFFFFFFFFFFFFFFF000000
00003FFFFFFFFFFFFFFFFFFFFE000000
00001FFFFFFFFFFFFFFFFFFFFC000000
000007FFFFFFFFFFFFFFFFFFF0000000
000003FFFFFFFFFFFFFFFFFFE0000000
000000FFFFFFFFFFFFFFFFFF80000000
0000003FFFFFFFFFFFFFFFFE00000000
0000000FFFFFFFFFFFFFFFF800000000
00000003FFFFFFFFFFFFFFE000000000
00000000FFFFFFFFFFFFFF0000000000
000000000FFFFFFFFFFFF80000000000
00000000007FFFFFFFFF000000000000
ENDCHAR
STARTCHAR p
ENCODING 112
SWIDTH 867 0
DWIDTH 119 0
BBX 106 100 9 0
BITMAP
FFFFFFFFFFFFFFFFFFF800000000
FFFFFFFFFFFFFFFFFFFFC0000000
FFFFFFFFFFFFFFFFFFFFF8000000
FFFFFFFFFFFFFFFFFFFFFE000000
FFFFFFFFFFFFFFFFFFFFFF800000
FFFFFFFFFFFFFFFFFFFFFFE00000
FFFFFFFFFFFFFFFFFFFFFFF80000
FFFFFFFFFFFFFFFFFFFFFFFC0000
FFFFFFFFFFFFFFFFFFFFFFFE0000
FFFFFFFFFFFFFFFFFFFFFFFF0000
FFFFFFFFFFFFFFFFFFFFFFFF8000
FFFFFFFFFFFFFFFFFFFFFFFFC000
FFFFFFFFFFFFFFFFFFFFFFFFE000
FFFFFFFFFFFFFFFFFFFFFFFFF000
FFFFFFFFFFFFFFFFFFFFFFFFF000
FFFFFFFFFFFFFFFFFFFFFFFFF800
FFFFFFFFFFFFFFFFFFFFFFFFFC00
FFFF80000000000003FFFFFFFC00
FFFF8000000000000007FFFFFE00
FFFF8000000000000000FFFFFE00
FFFF80000000000000007FFFFE00
FFFF80000000000000001FFFFF00
FFFF80000000000000000FFFFF00
FFFF800000000000000007FFFF00
FFFF800000000000000003FFFF80
FFFF800000000000000003FFFF80
FFFF800000000000000001FFFF80
FFFF800000000000000001FFFF80
FFFF800000000000000000FFFFC0
FFFF800000000000000000FFFFC0
FFFF800000000000000000FFFFC0
FFFF8000000000000000007FFFC0
FFFF8000000000000000007FFFC0
FFFF8000000000000000007FFFC0
FFFF8000000000000000007FFFC0
FFFF8000000000000000007FFFC0
FFFF8000000000000000007FFFC0
FFFF8000000000000000007FFFC0
FFFF8000000000000000007FFFC0
FFFF8000000000000000007FFFC0
FFFF8000000000000000007FFFC0
FFFF800000000000000000FFFFC0
FFFF800000000000000000FFFFC0
FFFF800000000000000000FFFF80
FFFF800000000000000001FFFF80
FFFF800000000000000001FFFF80
FFFF800000000000000003FFFF80
FFFF800000000000000003FFFF80
FFFF800000000000000007FFFF00
FFFF80000000000000000FFFFF00
FFFF80000000000000001FFFFF00
FFFF80000000000000003FFFFE00
FFFF8000000000000000FFFFFE00
FFFF8000000000000003FFFFFC00
FFFF800000000000001FFFFFFC00
FFFF8003FFFFFFFFFFFFFFFFF800
FFFF8003FFFFFFFFFFFFFFFFF800
FFFF8003FFFFFFFFFFFFFFFFF000
FFFF8003FFFFFFFFFFFFFFFFF000
FFFF8003FFFFFFFFFFFFFFFFE000
FFFF8003FFFFFFFFFFFFFFFFC000
FFFF8003FFFFFFFFFFFFFFFF8000
FFFF8003FFFFFFFFFFFFFFFF0000
FFFF8003FFFFFFFFFFFFFFFE0000
FFFF8003FFFFFFFFFFFFFFFC0000
FFFF8003FFFFFFFFFFFFFFF80000
FFFF8003FFFFFFFFFFFFFFE00000
FFFF8003FFFFFFFFFFFFFFC00000
FFFF8003FFFFFFFFFFFFFF000000
FFFF8003FFFFFFFFFFFFFC000000
FFFF8003FFFFFFFFFFFFE0000000
FFFF8003FFFFFFFFFFFE00000000
FFFF800000000000000000000000
FFFF800000000000000000000000
FFFF800000000000000000000000
FFFF800000000000000000000000
FFFF800000000000000000000000
FFFF800000000000000000000000
FFFF800000000000000000000000
FFFF800000000000000000000000
FFFF800000000000000000000000
FFFF800000000000000000000000
FFFF800000000000000000000000
FFFF800000000000000000000000
FFFF800000000000000000000000
FFFF800000000000000000000000
FFFF800000000000000000000000
FFFF800000000000000000000000
FFFF800000000000000000000000
FFFF800000000000000000000000
FFFF800000000000000000000000
FFFF800000000000000000000000
FFFF800000000000000000000000
FFFF800000000000000000000000
FFFF800000000000000000000000
FFFF800000000000000000000000
FFFF800000000000000000000000
FFFF800000000000000000000000
FFFF800000000000000000000000
FFFF800000000000000000000000
ENDCHAR
STARTCHAR q
ENCODING 113
SWIDTH 968 0
DWIDTH 133 0
BBX 126 100 6 0
BITMAP
00000000007FFFFFFFFF000000000000
000000001FFFFFFFFFFFFC0000000000
00000000FFFFFFFFFFFFFF8000000000
00000007FFFFFFFFFFFFFFF000000000
0000001FFFFFFFFFFFFFFFFC00000000
000000FFFFFFFFFFFFFFFFFF00000000
000001FFFFFFFFFFFFFFFFFFC0000000
000007FFFFFFFFFFFFFFFFFFF0000000
00001FFFFFFFFFFFFFFFFFFFF8000000
00003FFFFFFFFFFFFFFFFFFFFE000000
00007FFFFFFFFFFFFFFFFFFFFF000000
0000FFFFFFFFFFFFFFFFFFFFFF800000
0003FFFFFFFFFFFFFFFFFFFFFFC00000
0007FFFFFFFFFFFFFFFFFFFFFFE00000
000FFFFFFFFFFFFFFFFFFFFFFFF00000
000FFFFFFFFFFFFFFFFFFFFFFFF80000
001FFFFFFFFFFFFFFFFFFFFFFFFC0000
003FFFFFFFFE0000007FFFFFFFFE0000
007FFFFFFF00000000007FFFFFFF0000
00FFFFFFF800000000000FFFFFFF0000
00FFFFFFC0000000000003FFFFFF8000
01FFFFFF00000000000000FFFFFFC000
03FFFFFE000000000000003FFFFFC000
03FFFFF8000000000000001FFFFFE000
07FFFFF00000000000000007FFFFE000
07FFFFE00000000000000003FFFFF000
0FFFFFC00000000000000001FFFFF000
0FFFFF800000000000000000FFFFF800
0FFFFF0000000000000000007FFFF800
1FFFFE0000000000000000007FFFFC00
1FFFFE0000000000000000003FFFFC00
3FFFFC0000000000000000001FFFFC00
3FFFF80000000000000000001FFFFE00
3FFFF80000000000000000000FFFFE00
3FFFF00000000000000000000FFFFE00
7FFFF000000000000000000007FFFF00
7FFFF000000000000000000007FFFF00
7FFFE000000000000000000003FFFF00
7FFFE000000000000000000003FFFF00
FFFFE000000000000000000003FFFF00
FFFFC000000000000000000001FFFF80
FFFFC000000000000000000001FFFF80
FFFFC000000000000000000001FFFF80
FFFFC000000000000000000001FFFF80
FFFF8000000000000000000001FFFF80
FFFF8000000000000000000001FFFF80
FFFF8000000000000000000000FFFF80
FFFF8000000000000000000000FFFF80
FFFF8000000000000000000000FFFF80
FFFF8000000000000000000000FFFF80
FFFF8000000000000000000000FFFF80
FFFF8000000000000000000000FFFF80
FFFF8000000000000000000000FFFF80
FFFF8000000000000000000000FFFF80
FFFF8000000000000000000001FFFF80
FFFFC000000000000000000001FFFF80
FFFFC000000000000000000001FFFF80
FFFFC000000000000000000001FFFF80
FFFFC000000008000000000001FFFF00
7FFFC000000007FFFFF0000003FFFF00
7FFFE000000003FFFFF8000003FFFF00
7FFFE000000000FFFFFC000003FFFF00
7FFFE0000000007FFFFF000003FFFF00
3FFFF0000000003FFFFF800007FFFE00
3FFFF0000000001FFFFFC00007FFFE00
3FFFF80000000007FFFFE0000FFFFE00
3FFFF80000000003FFFFF0000FFFFE00
1FFFFC0000000001FFFFFC001FFFFC00
1FFFFC00000000007FFFFE001FFFFC00
1FFFFE00000000003FFFFF003FFFFC00
0FFFFF00000000001FFFFF807FFFF800
0FFFFF00000000000FFFFFC0FFFFF800
07FFFF800000000003FFFFE0FFFFF000
07FFFFC00000000001FFFFF9FFFFF000
03FFFFE00000000000FFFFFFFFFFE000
03FFFFF000000000007FFFFFFFFFE000
01FFFFFC00000000001FFFFFFFFFC000
01FFFFFE00000000000FFFFFFFFFC000
00FFFFFF800000000007FFFFFFFF8000
007FFFFFC00000000003FFFFFFFF0000
007FFFFFF80000000000FFFFFFFF0000
003FFFFFFF00000000007FFFFFFE0000
001FFFFFFFFE0000007FFFFFFFFC0000
000FFFFFFFFFFFFFFFFFFFFFFFF80000
0007FFFFFFFFFFFFFFFFFFFFFFF00000
0003FFFFFFFFFFFFFFFFFFFFFFE00000
0001FFFFFFFFFFFFFFFFFFFFFFF00000
0000FFFFFFFFFFFFFFFFFFFFFFFC0000
00007FFFFFFFFFFFFFFFFFFFFFFE0000
00003FFFFFFFFFFFFFFFFFFFFFFF0000
00001FFFFFFFFFFFFFFFFFFFFFFFC000
000007FFFFFFFFFFFFFFFFFFFFFFE000
000003FFFFFFFFFFFFFFFFFFFFFFF000
000000FFFFFFFFFFFFFFFFFFFFFFFC00
0000003FFFFFFFFFFFFFFFFEFFFFFE00
0000000FFFFFFFFFFFFFFFF83FFFFF00
00000003FFFFFFFFFFFFFFE01FFFFF80
00000000FFFFFFFFFFFFFF000FFFFFE0
000000000FFFFFFFFFFFF80007FFFFF0
00000000007FFFFFFFFE000003FFFFFC
ENDCHAR
STARTCHAR r
ENCODING 114
SWIDTH 921 0
DWIDTH 126 0
BBX 117 100 9 0
BITMAP
FFFFFFFFFFFFFFFFFFFC0000000000
FFFFFFFFFFFFFFFFFFFFE000000000
FFFFFFFFFFFFFFFFFFFFFC00000000
FFFFFFFFFFFFFFFFFFFFFF80000000
FFFFFFFFFFFFFFFFFFFFFFE0000000
FFFFFFFFFFFFFFFFFFFFFFF0000000
FFFFFFFFFFFFFFFFFFFFFFFC000000
FFFFFFFFFFFFFFFFFFFFFFFE000000
FFFFFFFFFFFFFFFFFFFFFFFF000000
FFFFFFFFFFFFFFFFFFFFFFFF800000
FFFFFFFFFFFFFFFFFFFFFFFFC00000
FFFFFFFFFFFFFFFFFFFFFFFFE00000
FFFFFFFFFFFFFFFFFFFFFFFFF00000
FFFFFFFFFFFFFFFFFFFFFFFFF80000
FFFFFFFFFFFFFFFFFFFFFFFFF80000
FFFFFFFFFFFFFFFFFFFFFFFFFC0000
FFFFFFFFFFFFFFFFFFFFFFFFFE0000
FFFF80000000000000FFFFFFFE0000
FFFF8000000000000001FFFFFF0000
FFFF80000000000000007FFFFF0000
FFFF80000000000000001FFFFF8000
FFFF80000000000000000FFFFF8000
FFFF800000000000000007FFFF8000
FFFF800000000000000003FFFFC000
FFFF800000000000000001FFFFC000
FFFF800000000000000000FFFFC000
FFFF800000000000000000FFFFC000
FFFF8000000000000000007FFFE000
FFFF8000000000000000007FFFE000
FFFF8000000000000000007FFFE000
FFFF8000000000000000003FFFE000
FFFF8000000000000000003FFFE000
FFFF8000000000000000003FFFE000
FFFF8000000000000000003FFFE000
FFFF8000000000000000003FFFE000
FFFF8000000000000000003FFFE000
FFFF8000000000000000003FFFE000
FFFF8000000000000000003FFFE000
FFFF8000000000000000003FFFE000
FFFF8000000000000000003FFFE000
FFFF8000000000000000003FFFE000
FFFF8000000000000000003FFFE000
FFFF8000000000000000003FFFE000
FFFF8000000000000000007FFFE000
FFFF8000000000000000007FFFE000
FFFF8000000000000000007FFFE000
FFFF8000000000000000007FFFC000
FFFF800000000000000000FFFFC000
FFFF800000000000000000FFFFC000
FFFF800000000000000001FFFF8000
FFFF800000000000000003FFFF8000
FFFF800000000000000003FFFF8000
FFFF800000000000000007FFFF0000
FFFF80000000000000000FFFFF0000
FFFF80000000000000003FFFFE0000
FFFF8000000000000000FFFFFE0000
FFFF800000000000000FFFFFFC0000
FFFF8003FFFFFFFFFFFFFFFFFC0000
FFFF8003FFFFFFFFFFFFFFFFF80000
FFFF8003FFFFFFFFFFFFFFFFF00000
FFFF8003FFFFFFFFFFFFFFFFF00000
FFFF8003FFFFFFFFFFFFFFFFE00000
FFFF8003FFFFFFFFFFFFFFFFC00000
FFFF8003FFFFFFFFFFFFFFFF800000
FFFF8003FFFFFFFFFFFFFFFF000000
FFFF8003FFFFFFFFFFFFFFFC000000
FFFF8003FFFFFFFFFFFFFFF8000000
FFFF8003FFFFFFFFFFFFFFE0000000
FFFF8003FFFFFFFFFFFFFF80000000
FFFF8003FFFFFFFFFFFFFE00000000
FFFF8003FFFFFFFFFFFFFF00000000
FFFF8003FFFFFFFFFFFFFF80000000
FFFF8000000000001FFFFFC0000000
FFFF8000000000000FFFFFE0000000
FFFF80000000000007FFFFF0000000
FFFF80000000000003FFFFF8000000
FFFF80000000000001FFFFFC000000
FFFF80000000000000FFFFFE000000
FFFF800000000000007FFFFF000000
FFFF800000000000003FFFFF800000
FFFF800000000000001FFFFFC00000
FFFF800000000000001FFFFFE00000
FFFF800000000000000FFFFFF00000
FFFF8000000000000007FFFFF80000
FFFF8000000000000003FFFFFC0000
FFFF8000000000000001FFFFFE0000
FFFF8000000000000000FFFFFF0000
FFFF80000000000000007FFFFF0000
FFFF80000000000000003FFFFF8000
FFFF80000000000000001FFFFFC000
FFFF80000000000000000FFFFFE000
FFFF80000000000000000FFFFFF000
FFFF800000000000000007FFFFF800
FFFF800000000000000003FFFFFC00
FFFF800000000000000001FFFFFE00
FFFF800000000000000000FFFFFF00
FFFF8000000000000000007FFFFF80
FFFF8000000000000000003FFFFFC0
FFFF8000000000000000001FFFFFE0
FFFF8000000000000000000FFFFFF8
ENDCHAR
STARTCHAR s
ENCODING 115
SWIDTH 880 0
DWIDTH 121 0
BBX 107 100 7 0
BITMAP
000000FFFFFFFFFFFFFFFFFFFC00
00000FFFFFFFFFFFFFFFFFFFFC00
00007FFFFFFFFFFFFFFFFFFFFC00
0001FFFFFFFFFFFFFFFFFFFFFC00
0007FFFFFFFFFFFFFFFFFFFFFC00
001FFFFFFFFFFFFFFFFFFFFFFC00
003FFFFFFFFFFFFFFFFFFFFFFC00
007FFFFFFFFFFFFFFFFFFFFFFC00
00FFFFFFFFFFFFFFFFFFFFFFFC00
01FFFFFFFFFFFFFFFFFFFFFFFC00
03FFFFFFFFFFFFFFFFFFFFFFFC00
07FFFFFFFFFFFFFFFFFFFFFFFC00
0FFFFFFFFFFFFFFFFFFFFFFFFC00
0FFFFFFFFFFFFFFFFFFFFFFFFC00
1FFFFFFFFFFFFFFFFFFFFFFFFC00
1FFFFFFFFFFFFFFFFFFFFFFFFC00
3FFFFFFFFFFFFFFFFFFFFFFFFC00
3FFFFFFC00000000000000000000
3FFFFF8000000000000000000000
7FFFFE0000000000000000000000
7FFFFC0000000000000000000000
7FFFF80000000000000000000000
7FFFF00000000000000000000000
FFFFE00000000000000000000000
FFFFE00000000000000000000000
FFFFE00000000000000000000000
FFFFE00000000000000000000000
FFFFC00000000000000000000000
FFFFC00000000000000000000000
FFFFC00000000000000000000000
FFFFC00000000000000000000000
FFFFC00000000000000000000000
FFFFC00000000000000000000000
7FFFE00000000000000000000000
7FFFE00000000000000000000000
7FFFE00000000000000000000000
7FFFF00000000000000000000000
7FFFF00000000000000000000000
3FFFF80000000000000000000000
3FFFFC0000000000000000000000
1FFFFF0000000000000000000000
1FFFFFE000000000000000000000
1FFFFFFFFFFFFFFFFFFFF0000000
0FFFFFFFFFFFFFFFFFFFFF800000
07FFFFFFFFFFFFFFFFFFFFF00000
07FFFFFFFFFFFFFFFFFFFFFC0000
03FFFFFFFFFFFFFFFFFFFFFF0000
01FFFFFFFFFFFFFFFFFFFFFF8000
00FFFFFFFFFFFFFFFFFFFFFFE000
007FFFFFFFFFFFFFFFFFFFFFF000
003FFFFFFFFFFFFFFFFFFFFFF800
001FFFFFFFFFFFFFFFFFFFFFFC00
0007FFFFFFFFFFFFFFFFFFFFFC00
0001FFFFFFFFFFFFFFFFFFFFFE00
00007FFFFFFFFFFFFFFFFFFFFF00
00000FFFFFFFFFFFFFFFFFFFFF00
000000FFFFFFFFFFFFFFFFFFFF80
000000000000000000007FFFFF80
000000000000000000000FFFFF80
0000000000000000000003FFFFC0
0000000000000000000001FFFFC0
0000000000000000000000FFFFC0
00000000000000000000007FFFC0
00000000000000000000003FFFE0
00000000000000000000003FFFE0
00000000000000000000003FFFE0
00000000000000000000001FFFE0
00000000000000000000001FFFE0
00000000000000000000001FFFE0
00000000000000000000001FFFE0
00000000000000000000001FFFE0
00000000000000000000001FFFE0
00000000000000000000001FFFE0
00000000000000000000003FFFE0
00000000000000000000003FFFE0
00000000000000000000003FFFE0
00000000000000000000007FFFE0
0000000000000000000000FFFFE0
0000000000000000000000FFFFC0
0000000000000000000003FFFFC0
0000000000000000000007FFFFC0
000000000000000000001FFFFFC0
00000000000000000007FFFFFF80
3FFFFFFFFFFFFFFFFFFFFFFFFF80
3FFFFFFFFFFFFFFFFFFFFFFFFF00
3FFFFFFFFFFFFFFFFFFFFFFFFF00
3FFFFFFFFFFFFFFFFFFFFFFFFE00
3FFFFFFFFFFFFFFFFFFFFFFFFE00
3FFFFFFFFFFFFFFFFFFFFFFFFC00
3FFFFFFFFFFFFFFFFFFFFFFFFC00
3FFFFFFFFFFFFFFFFFFFFFFFF800
3FFFFFFFFFFFFFFFFFFFFFFFF000
3FFFFFFFFFFFFFFFFFFFFFFFE000
3FFFFFFFFFFFFFFFFFFFFFFFC000
3FFFFFFFFFFFFFFFFFFFFFFF0000
3FFFFFFFFFFFFFFFFFFFFFFE0000
3FFFFFFFFFFFFFFFFFFFFFF80000
3FFFFFFFFFFFFFFFFFFFFFE00000
3FFFFFFFFFFFFFFFFFFFFF000000
3FFFFFFFFFFFFFFFFFFFE0000000
ENDCHAR
ENDFONT
